<mxfile host="app.diagrams.net" modified="2021-11-20T22:35:59.431Z" agent="5.0 (Windows NT 10.0; Win64; x64) AppleWebKit/537.36 (KHTML, like Gecko) Chrome/95.0.4638.69 Safari/537.36 Edg/95.0.1020.53" etag="khTsIviqmShATnID-5ky" version="15.8.0" type="github" pages="2">
  <diagram id="91Sjo58qr_71_-KIR0B1" name="Page-1">
    <mxGraphModel dx="875" dy="507" grid="0" gridSize="10" guides="1" tooltips="1" connect="1" arrows="1" fold="1" page="1" pageScale="1" pageWidth="850" pageHeight="1100" math="0" shadow="0">
      <root>
        <mxCell id="0" />
        <mxCell id="1" parent="0" />
        <mxCell id="0DDknlvD0FUHzTkSRWRA-1" value="" style="shape=image;verticalLabelPosition=bottom;labelBackgroundColor=#ffffff;verticalAlign=top;aspect=fixed;imageAspect=0;image=data:image/png,iVBORw0KGgoAAAANSUhEUgAAAd0AAAFKCAYAAABYXoWVAAAgAElEQVR4Ae2dL7P0upWv+yMMDAy4YGCGpAJf2OcbTAWlDhoQaJA6JEOCB5yqQT0VdMjgqQQ2TB2SQRcd8G508xEO9K0leclLstxte/uPbD27qsuyLC0tPctbv5bstm8tfxCAAAQgAAEI7ELgtksrNAIBCEAAAhCAQIvochJAAAIQgAAEdiKA6O4EmmYgAAEIQAACiC7nAAQgAAEIQGAnAojuTqBpBgIQgAAEIIDocg5AAAIQgAAEdiKA6O4EmmYgAAEIQAACiC7nAAQgAAEIQGAnAojuTqBpBgIQgAAEIIDocg5A4CWBZ9vc7u3joy/0bG7t7eY/zTOff7MH+iJdamiz/Xi0987m7f5otbmPxz20NWZzShl1QcrebWf0AFsIQGAXAojuLphp5HwEPtrHXcXViO6zaXtR7MXTCV8QWl837IbOj9hsxc6t1fIi6l4YJb9pva6P2HRibcsYX0O7XaITdkQ3BcM+BPYjgOjux5qWTklAxK4XsnSmmO5rF8fy/fHYZhsJuVpoWzf7NbNeEWMV5lBK6prMV+06Mb8z0w3sSEDgAAKI7gHQafJMBF4LpFtqNqKnPcsKpB5sY5silFY4Q7GonJ31mhLpcnEiwqFkl/9KlENZEhCAwGYEEN3N0GL4GgRigZQ+OaHVa7pNPNN0fR6buQYgsU0nhE2TvabbX+vtZ9vBjJsMJzPXrOhKe34JGtG19EhDYH8CiO7+zGnxVARigUxdH4iYiF64DpuW1v3YptjorxN7UXfXXeUabFheljrD5eVs+8nM25axafWGLQQgsB8BRHc/1rR0SgKxQKZdiJaRJwmuWEhsPpv4juJutjoQyNwsNskb1HFt6Q1hZpsIc9ov9iEAgW0IILrbcMXqZQgMBTLMSt3dwN2yb3QX8bvOJzbd3ct6B7KZ6Yqghpmuybfmo3ZTu7agTw9FeViGHAhAYDsCiO52bLF8CQJDIYuu6Xa/07V5+hve4c9+FMjQpruDWX+na2ahkd2QH99UJUKqbfY3ZMVlQsvpjVd6gC0EILALAUR3F8w0AgEIQAACEGhbRJezAAIQgAAEILATAUR3J9A0AwEIQAACEEB0OQcgAAEIQAACOxFAdHcCTTMQgAAEIAABRJdzAAIQgAAEILATAUR3J9A0AwEIrEFAfgplHvLRpee+OSl6qElwK/8zq3DY/SY6fSqY9yf8mssVfmMnGJSElI0f8Wl/Jmbt2vz+p2GRsW5naLN/nOgt+u13/udmsc3PlZGfx/nfoL/zv5bfkCO68fnFHgQgUDSBjKBFDwiZ5vwS0RVRaB6P9m6VsHsto32IiRfS/mEneY9EjPTLgxHd6IEovXg64Qvt+rphNzQwYnPrV0dG/MUH0x9p+/5on9FLPTL+d19o5n55Cl0/UQLRPVGwcHUOgczg7AYfHQzl+G3wdh//rV4HjZyNKT50ts2MLB5MprQ9pR3/lCo/+K5nc1rLR5XKxSQd6N/7Nl90pQ05d3SrbXh/HiLI3YNSpomu1o99T2d76X6o9fIhJ7HNzV8d+epRpOkjTrsOpP2SeNwree0koqtnMduLEcgNzjZP0vf23i19+c7LYCWzj8+IrrfRD8DecjzIT2l7Wjh6u+vZDC3L7MM8hjLkH5qwMewciWZa8hpi84Qu47+wCk/uuqXLxGIrY1v7Km10QRX7fXy1jm5TOzZfjdnta4F0PveNhYp93EOWScQ2HY+MjfgZ4Hk/U3F0Ap7YelXm49G0jw/jWpeM/O9Ee2BnWO0SOYjuJcJIJ4YEcoOIzfPpxr4Y3olM0zZhecyWH7aQzRkTqih/SttZ64PMfvBaz2ZoJPI55B6ckH7G4hm91Wls1hUt2+a/GL0SXRGEoDURl/4c6UWjz3sPKxZIKe+Etutjc4JXR/b97nobYiB905UlQ2IQC19mYMdUuVIS0b1SNOmLIZAb+Gxelw4DhJ8h3R9Pc03KljemXyTHBw5ra0rbyYwtjPjxoCwzN39ogk3pqxWsMAuUur2QeXtemFz5rpz0LdTXum4Avft3ARsfXyD65CHLUUzFomUFK/jaPN3s1y7x919WrDupbT0WtxG3aetoWrda/9U2tR2XHZxPLoYZIYuqxTZd3DRenag7FtGXB6mj51JvLNt+EufxMs+2Scr6Z4z3/tu6Nt17cL0Uonu9mNIjR0AGvl5IwgAc3nWrA6NudaDSrRjRY9ORjg8c1pamdatt6taNjNFdpiISbqB0Ivdo/YqdlNeBUm3pVm3pdtgHFZ7IZzsQ27S0awbQUGeSCAzbXp6j/TMWjG+BkzksSe2rZqf7Pj9jWw4Ih8y55EU8ruO5PNomnGfa4th2PD5SI/JzMuvEZnpdteMVYqiuGY6alS4nD+p4J0fPDftFJxVc/+Ul8z9qzrPgx4USiO6FgklXLIF4MPRHbF6ffjZyDdffZfkRzZz6MpFlc20wHR+yg5JUjgbM3u5Y2wPxGBko+0H5vU3vRjzIOf+dbz4/6o8RXWmn/+LSpaWw1DWzKMtpm3Tfz96+yYs4d6sFAz+lvH5Z6a2MfcnKxjSwMW07U952tORtmxikhwIZeDqx7+4vcOl+hjgwE2UkNpMvj+HcSmIX8q2tqN3UbldwpIw/t3NlbAN9Osu5P3yZFKJ7mVDSkZhAOhjKUZtn0jITCHdO2oHFlImNj+/JAGRFyA1s3fJryDd2R9oeDIBip3nGM59oJvTepgxqdrYqbUQiG1543w3upi8Df5RAMnBr9nZb00/TiPXP9VNnpoG5nzX6Lw5yA13adzEmtpMvF3JehBvrTIMdq+aZ8UeYhJlu5rg1E33J8wekL/oFR+Nj8/RYbqbtLdhzuGvM+WS+LIXsvq3+3Ih9jniqQ9H/Uu5SiH6JHfYp9r9zxC0o3P1qTp91yRSie8mw0qlYYJWHHUzStN6xbAcsW0ZtvNtK/W4puCuqg1YYr6IBS9rItJ2IWRCVKF/qqnhYX/M2xY9+uc/7KT4F285fY8eIbjxTH5tBvmPDcQhAANHlHLgoASMeoYc2z6ZDgeTGnLEytnwuLfXMDELTQXXH7FrBz80efFv9rMfO2KbYHPrlXYrze2HWfD/z1S8PbqaiM8joS0COBXkQgIAlgOhaGqQhsBmBWFA3awbDEIBA0QQQ3aLDg3MQgAAEIHAlAojulaJJXyAAAQhAoGgCiG7R4cE5CEAAAhC4EgFE90rRpC8QgAAEIFA0AUS36PDg3NkIfPPNr9sjP2fjhb8QqI0AoltbxOnvZgSOFFtte7POYRgCEFiFAKK7CkaMQKB1M9wffvhTe9RHhJc/CECgbAKIbtnxwbsTEdDZ5hFbEXpE90QnC65WSwDRrTb0dHxtAiq2a9t9Z0/aRXTfUeI4BMoggOiWEQe8uAABRPcCQaQLENiYAKK7MWDM10MA0a0n1vQUAksJILpLyVEPAgkBRDcBwi4EIDAggOgOkJABgWUEEN1l3KgFgZoIILo1RZu+bkoA0d0UL8YhcAkCiO4lwkgnSiCA6JYQBXyAQNkEEN2y44N3JyKA6J4oWLgKgYMIILoHgafZ6xFAdK8XU3oEgbUJILprE8VetQQQ3WpDT8chMJkAojsZFQUh8JoAovuaD0chAIG2RXQ5CyCwEgFEdyWQmIHAhQkguhcOLl3blwCiuy9vWoPAGQkgumeMGj4XSQDRLTIsOAWBogggukWFA2fOTADRPXP08B0C+xBAdPfhTCsVEEB0KwgyXYTAJwkgup8ESHUIKAFEV0mwhQAExgggumNkyIfATAIqukdseYn9zGBRHAIHEUB0DwJPs9cjIGIr4rfHJxV2RPd65xM9uiYBRPeacaVXBxBIhfCI/QO6TZMQgMAMAojuDFgUhcAYARHYH3/8S7u30Gqb3333W9f2mH/kQwACZRBAdMuIA16cmIAV3O+//327x8e2ieCe+OTB9eoIILrVhZwOr0nAit8eYitt2DYR3DWjiS0IbE8A0d2eMS1clIAVP0nv9WFJ+aInFN2qggCiW0WY6eTaBKzgMsNdmy72IHBdAojudWNLzzYigOBuBBazEKiAAKJbQZDp4noEENz1WGIJAjUSQHRrjDp9XkRABVevqcr+Hh9tj5umFoWNShAoigCiW1Q4cKZUAlZwRQRffb799t6mn1fl3x2TthHcUs8M/ILAPAKI7jxelK6QwBzBVQH96ae/O6GUreYt2SK4FZ5wdPnSBBDdS4eXzn2WwFzBlRmuiqsKrs3TY1O2CO5no0d9CJRHANEtLyZ4VAiBuYKrQrrG0jKCW8hJgBsQWJkAorsyUMxdg4CI3pEfruFe4zyiFxBICSC6KRH2qycgYrvH6/nG2lCxrz4QAIDABQkguhcMKl36PAEVvqO2n+8BFiAAgRIJILolRgWfrkvgj39s29utbWXLHwQgUB0BRLe6kNPhQwkguofip3EIHE0A0T06ArRfF4E//IGZbl0Rp7cQiAgguhEOdiCwMYHf/c6L7p//vHFDmIcABEokgOiWGBV8ui4BRPe6saVnEJhAANGdAIkiEFiNAKK7GkoMQeCMBBDdM0YNn89LANE9b+zwHAIrEEB0V4CICQhMJoDoTkZFQQhckQCie8Wo0qdyCSC65cYGzyCwAwFEdwfINAGBQADRDShIQKBGAohujVGnz8cRQHSPY0/LECiAAKJbQBBwoSICiG5FwaarEBgSQHSHTMiBwHYEEN3t2GIZAicggOieIEi4eCECX774J1L99a8X6hRdgQAEphJAdKeSohwE1iCgovt8rmENGxCAwMkIILonCxjunpwAonvyAOI+BD5HANH9HD9qQ2AeAUR3Hi9KQ+BiBBDdiwWU7hROANEtPEC4B4FtCSC62/LFOgRiAohuzIM9CFRGANGtLOB092ACiO7BAaB5CBxLANE9lj+t10YA0a0t4vQXAhEBRDfCwQ4ENiaA6G4MGPMQKJsAolt2fPDuagQQ3atFlP5AYBYBRHcWLgpD4JME/vmf/ROp/vd/P2mI6hCAwBkJILpnjBo+n5fAL3/pRffr1/P2Ac8hAIHFBBDdxeioCIEFBBDdBdCoAoHrEEB0rxNLenIGAojuGaKEjxDYjACiuxlaDEMgQwDRzUAhCwL1EEB064k1PS2BwB6i+/Fo77dbe9NPM/GNRs+mvd0f7cdUTnPLL7E7pY0pZaa2TTkIbEwA0d0YMOYhEBHYXHSfbXO7tw+jnM/m1t6mCq86K8L9ToCniN0UO9qmbqfY1bKynVve1iUNgZ0JILo7A6e5yglsLbpLRC4Xkil2pojdFDtp+1Ps2jpzy9u6pCGwMwFEd2fgNFc5ga1Ft5WZ7i2zTBzPgKPZrwjjrWmfQbw+2se9W57uZrsfj/twudqVb9omKdtHOLHjyt/7pe+xmXTwI5nFjrVnyqufcyf2vc+kILAtAUR3W75Yh0BMYHPR9c05UdVrukY4vRh1Yqii92zau6xHG/Fq7QzV5jsdvPXlzVK2tDkQu9ROUt61GxOK/bBtSzqp79rTMrpN7bEPgYIIILoFBQNXKiDwT//kH47xj3/s1tkwqxUBFJXqts/GX/vV7ZjoSv234tiJ8VvRVaGX3otINs/WfkGIRFTLaJ1EVIPIS373BWPQ/m6UaQgC0wggutM4UQoC6xC43bzormNtmpUw23y2zf3RPh93J6KyFHt/PNvHvWnd/c1W1EId0cZtRXfQCevHWNqKvJYRn2WZfGCQDAiUQwDRLScWeFIDgY1F113T1Jlhx9OKpsxq7/fu7mYnrHc/+5WyKl6SNqIb5XdiN1iOtiJo4zjFji2f+mF9smnbnsm3fU3Nsg+BEggguiVEAR/qIbCx6ApIvZlIl1yjnwsZgWpbf203LMlGx7obsrqZY2RTK0Tl/YxYD/UBNXakvF5nlu2wsK9m7Y6lR0S37W4kyy6H906RgsBhBBDdw9DTcJUEdhDdYrlaAS3WSRyDwLYEEN1t+WIdAjEBRHf6E69icuxB4BIEEN1LhJFOnIZAzaJ7miDhKAS2I4DobscWyxAYEkB0h0zIgUBFBBDdioJNVwsggOgWEARcgMBxBBDd49jTco0EEN0ao06fIRAIILoBBQkIbEzg55/9gzFEePmDAASqJMB/f5Vhp9OHEPj61YuuPH95s7/4xQbSjDwwQn8fa38aa/NHfzPr/BzadA/P0N/cmodxZH/Pm/R1Spm8b/qb33x/pBmxzW90E+C77Q7PExvHc59760FEdNdjiSUIvCawqeiaN/qYlwLET5PqB0UnfGEUTB6SEXoxYrN7AIVWl4HVC53Y18cwjtiMHtUoZeJ3/0rT475Z+8HJPuFsqy99NqmtCYycJ9Hvss9+7q3HENFdjyWWIPCawKaiq03HQpbO/NL9UOvlDDG2GQu5WkgeHWmfGGWKuLqq1hNnpsFn+0hJa7NLO/G/M9PNoNkpKz5PQty61tN9dWos3x+PbR527qmzK2wR3RUgYgICkwgcILrpIOWW+4zoqd+Sn8nuDscDnwyS+eVoWy4/Kx0MsDIbGm/YtR9862ayulQe1evsDOxrB9nuQMDG333rit7rfOpzb0V6iO6KMDEFgZcEjhDd9JpukxG5aBkw14N4MHXC1jT5l9EHYRwuG4vlgSi+E13rm7OdW74W/3z+wH6uO+RtRCA+T6QRJ7T62sUzn3srEkN0V4SJKQi8JHCQ6FqfBqIkohauw9qSNh0PpmLjZm6ekoHVXdONln+lznD2nG1/bKab+vbxET9CshNsa9OmbQ9I70EgPk/SFgexSeObVnD7sU2xcci5l/VtWSaiu4wbtSAwn0ABohuWasX7SYOeFIwHPqkX3SGcET8Hp8uPQCV5g4FYC0/xzdl6OHEPS856R/WYkKt9thsQSM6TpIVLnXtJ3+bsIrpzaFEWAp8hcIToijDprNQtz5p36b6d4Wpn08E0vl4bZrq2rW5pMRJnMTdYIs4sQ0dl1IdXdzXHZQZt9odJbUogOU/s+XDyc29NbIjumjSxBYFXBI4Q3fS62tM7KEKZzg69WMWC6ksng6lkyoCamVVGdsNsM7bplggHdfsykY2unAqpPaZ5FvnozNkWIr0RgeF5YuOlp4PN03PoDOfeWtAQ3bVIYgcC7wjsIrrvnOA4BCBwJAFE90j6tF0XgefTP5HqN7+pq9/0FgIQCAQQ3YCCBAQ2JqCi++XLxg1hHgIQKJUAoltqZPDregQQ3evFlB5BYCYBRHcmMIpDYDEBRHcxOipC4CoEEN2rRJJ+lE8A0S0/RngIgY0JFC2633zz6/bIz8bsMV8bAUS3tojTXwgMCBQrukeKrbY9oEUGBD5DANH9DD3qQuASBIoW3R9++FN71EeElz8IrEoA0V0VJ8bOS0AnNkdtjyRXtOgeFRARekT3yNPyom0juhcNLN2aQ+Cocd22O8fftcsWL7prd/idPQkMovuOUn3H//v/te2VP/VFlB4fRUDH2FpXMRHd5MzTE0K2/EFACIjY3v6n4M/N/xsv8VG/SBBpCOxFQMbWoz4lTKgQ3eRMQ3QTIJXv7iq4+hKABVsbJvcQ+QlfElzffvvv7kuFrU8aAlsSUMHdso2c7VLGdkQ3iU4pgUncYvcAArMEV4RygtCNlulmq2t3c6w9Fdwbors2cuy9IYDovgF01OHaA3MUd9r1BCYJbjcjVWZjAjclX22suR1r1wouorsmcWxNIVD72M5MNzlLmOkmQCrcHRXcRGQtGn0v6KztBjPjMaHV/FRwEV0bRdJ7EEB096C8oI3aA7MAGVVWIDAQ3BdC+9nmVAhnb81S9Jy6OcFFdD8bRerPJVD72M5MNzljmOkmQCraHQiumYmujWGOWK5RdkxwEd21I4u9dwQQ3XeEDjpee2AOwl5ts68E14peCsge2zzdzbrntvNKcBHdNKLsb02g9rGdmW5yhjHTTYBUsDtVcOeK3aC8WRb+LNa5PwsScR37SP/5g8BeBBDdvUjPbKf2wMzERfGFBGYJrsw0zZLzrPSKgpt2dcyPdzNcFWFENyXK/pYEah/bmekmZxcz3QTIhXffCq4u5xrBHBO4d/lbYRxrd6rgsry8VWSwO0YA0R0jc3B+7YE5GP/lm88KbkZkLYgxgdss34i9+jGlrTmCi+gqWbZ7Eah9bGemm5xpzHQTIBfczQnult2cIpS5MupT7thY3lzBRXSVMtu9CCC6e5Ge2U4RgZFXsa35+dvfZlKg+NoEcoJrBWzt9qztrdNLBBfRXTvi2HtHoIix/Z2TGx5nppvAjWa6srxX8+c3v2nbL1/O8fm3f2vbP/7x5eed4KaiKKdGmlfq/qcE9zNfLH/+OfkPYhcCrwkguq/5HHa0iMCsLTi/+lXdIn7gF5i5gluquOb8+pTgHhiTor7Q/uIX5/hyOWVM+sMfXn75fPfldOvjRYzthylb2xY/09UA7bkt4Z2LB54TfdOfmQHtXfc//mN0oBFRuvJHlojnfoTHKqsYiDZfpGeeAzqW9wPNPilpt4SxvWjRFUB7fPQk0G0JgdnnNKyjFTcT/M//294u+HF9mym6TnDrCP30Xn79uu79G3t/6bTtvbnMsvVM9p19HWenB2edkojuG44amCO3b1zk8EkIILr9TBjBPclJe2E3jxzTS5hQFTnTlaD8+ONf2r2Do21+991vXdsXPu+r6hqi60UXwa3qtC+2szKu77GCqQJrdUTzjoRTnOhawf3++9+3e3xsmwjukafjNm0juv/urmlvQxerEJhHwIrgUel5Hq9buijRteK3h9hKG7ZNBHfdk6sUa7WLLjPcUs5E/LDj7Z6CW9IqZjGiSzD4h9yKQM2ii+BudVZhdy4BO8bXPKkqQnQJxtzTl/JzCNQqugjunLOEslsSYIzv6R4uugSjDwapbQjUKLoI7jbnElbnE7BjvKT3+pS0pGypHSq6Nhg1LzfYgJBen0Btoovgrn8OYXEZAcb4IbfDRFeDod9Gav/2MwwNOWsRqEl0Edy1zhrsfJaAjvGyZVLV0zxEdDUYIrjvPt9+e2/Tz7s6r45L29yl3J8ANaRqEV0Et4az+Rx91DEewR3Ga3fR1WC8Esb02E8//d0JpWzTY3P2EdzhCVBDTg2ii+DWcCafo492jJf0Xh/RgjOM8buKrg3GFLGUGa6WU8G1eXpsyvYMwTjHv9T5vLy66CK45zsnr+rxnDE+XcFcOrbr+H+WMX430Z0TDIUo2zQw9tjU9FmCcdV/xKP7JaJ05c/RfGkfAkJgyRhf4yrmLqIrwTjywzVcBoViCPzud/5VcH/+czEu4QgEPktgruDaWW1tq5ibi64EY6+HW+faUbH/7ElFfQisQgDRXQUjRsohMFdwdYWy1lXMzUVXTg0VvqO25ZyeeFI9AUS3+lPgSgCOGtO13TOuYu4iulc6yegLBD5FANH9FD4ql0NAhC+3urhXngpvOUSmeYLoTuNEKQisQwDRXYcjVoogoMJ31LYICDOdQHRnAqM4BD5FANH9FD4qQ+DsBBDds0cQ/89FANE9V7zwFgIrE0B0VwaKOQi8JIDovsTDQQhcnQCie/UI07+yCCC6ZcUDbw4i8GybW9M+XeuSvrU3+2n8keDcx6O9vzoeCpafQHTLjxEeXokAonulaNKXxQRS0VUB9gafza29BeGVsvf28dE3Fh/v88+QQnTPECV8vA6Bf/1Xnkh1nWjSk8UEXotu2360j3sntDLLvT9ao7mLWy2h4jzR7ab4d/uVo21b960jLBVot/ySQVpWj77bfjzu5pvOu9Ijx52/8TcoX9J/c2qaFdrINL2K7xm7ZF2AwJcvXnSfyfLZBbpGFyAwncA70fW64ie7XktuFxHe+aJ7vyffOjogieiWIjzyhSCsUugZ8WzeC/qUMmov2ZbS98QtdksggOiWEAV8OJzAHNH1zvrJXXft98QCvEB0m7bRab+wcOLUmIvih0czdiAjnlkhjmt1/Vo2G0F0U5jsBwKIbkBBomYC80XX0nICPJhN2RLlpheI7qN9Pu6tLht7AesBOsHJ3mUma/T2DjW/Xi/l1ZZdx7fC5dMi7F39DvZ4WxZ475vP7fcHbcgs/nZr749H1JaUG/VRfZKt9eukJ4QlR3oDAojuBlAxeT4C/TjctjatPZG8+OYpPeK2J77Ou0h0P0KHFZZuIyztmIh6yDNFNyxfmwvsUXNj+fbagM7M/Qx2KLrmYr2ZIY+JbtS8ufBv7cZl2KueAKJb/SkAACFgNcOmPR07k3XjabKcLMf7idC5iC4TXScwTfsU8XUzOgstP6P1M2KF0wvkmKBZ4bJpK+Q+PZw9aythG/yMBdjatWlXb5Lo5vs6sBUcIVE9AUS3+lMAAELAaoak7TjerxoqKzem2jInXklcKLptKxDu93t3k1IPMP4GouKq24Aw3A7u7IS7oftyVrhs2opuvi1tw27FrtzF3PspR61dm3Y1J4juWPsDW9YV0nUTQHTrjj+9r57AYtFtZfYYlnx7MYtntJLfLyPrNU9ft1uvN+Jm861w2XQquv0Xnr6tXFTFRtPEdy1buzbt6lu/bNr12/s+qa85Z8irlwCiW2/s6TkE2rZdLroRvl50vXDapYJOXN2SdJd/t3dAS91hvhVBm7aiO95W5JzfMWKpR61dm3bHXflb638blvdxrP2BLW2QLQQQXc4BCFRNYJ7oroaqX0ZezSSGIHAGAojuGaKEjxDYjACiuxlaDEMgQwDRzUAhCwL1EDhIdOsBTE8hEBFAdCMc7ECgNgKIbm0Rp7/HEkB0j+VP6xA4mACie3AAaL4yAr/8pX/hwdevlXWc7kIAAkIA0eU8gMCeBBDdPWnTFgSKI4DoFhcSHLo0AUT30uGlcxB4RwDRfUeI4xBYkwCiuyZNbEHgdAR2FF3zAI0Ok3uIxC3zvlvFKE+C0gdd27Qed9uhXZ9t6kbl2YHAgQQQ3QPh0zQEjidwnOiOiqiBMqVM8jxlU5skBMojgOiWFxM8SgjIw4vsU69gO8kAABCNSURBVAX7tH+zT2ai0z3Br38sb2LSjdO9nZt7CqE+rVDKmqf+dU8ojN8iNDwuNnyZd/52vmR9zPQldX3l/WNEV8Q0PLf5RY8Q3RdwOHRKAojuKcNWrdMiVLraGCAMhUpWLZuHvnUuFDSJYZ1Wxnen0l40Y8FO8zL1nYjKi2zMX9ZffzzvY8auMbdFcn/RdaDsN5zuHbf6/GXZapCt6Np0RGIEmi3v0vK8Z33Gc/feXMk3kfYvMOi+NVkfXi2BR76wA4E3BBDdN4A4XBSBrIilY66MmSJ+us31IK3jXvPmBT3bRqcLOg5nVzSlvURLxmwF31IfM37l3F8xb2fR7ZcX4qWDuEfh7T0D4TQvmQ9VRqCldbu3HUm1yP5AdL1hK8CmSGiVBAQWEUB0F2Gj0kEEsiKWjLlSphsk3Wwymnqq30kd82pVqZPXA1vHpjub0m66Ypr1txP4rI8Zu+ryRtvdRdf128GKv6GIyPl1fr915VLhDN96LI0RaC/qThHdcI2hC5RtkTQEFhNAdBejo+IBBLIiFo+5kdBmy4vfUice4/US43TRzdePqIy0P+5j3JfI1kY7O4tuv/4uEHQZ2aWNuEWiqEJrRTSCMQLNlrfpiTPd8No+bT9qkx0ILCSA6C4ER7VDCGRFzI656RJvuq9e2zqa57fTRbfXj+gVr9Zc1t/UJ7s/7pc1u2b6MNH10PzPhWLoAqT7GZEVS5uOCIxAs+Vt2opuFCCxoz9f6n2QLwD5pY/ICXYgMI0AojuNE6XKIBCNkeqSGXPl+GAGmxszTR01o9tsG26gDhMzP1O2otsdN5M1Zy5n66WPL/xS/1beHii6HTQndF7wli8vJ8sOMju1QmvTVnTdxXWt27RNI6Lb+RKC6fcR3pXPvFrNIbq1Rv6c/c6JmLmpKZ4wdV18U2cIwk9y4jG2n/j48jlxzORl2n7tY8bG0MFVc3YU3VX9xhgEzkngdvMvPPj553P6j9d1EciIWD/rFMGK783xcFLBlNx34ibHdQLkt7EI5+sPViIH/r7zcdiuXvbcKtCI7lZksQuBHAEV3dwx8iAAgcsTQHQvH2I6WBQBRLeocOAMBPYmgOjuTZz26iaA6NYdf3pfPQFEt/pTAAC7EkB0d8VNYxAojQCiW1pE8OfaBBDda8eX3kHgDQFE9w0gDkNgVQKI7qo4MQaBsxHYWHSHt2vLLd76e9zwU9jut7Oab19CMAQ6tBmeHmVflqDP9tTb0G1jxqj8hut1u8NbykdMGaskITBCANEdAUM2BOogsJHo+t9peTEzv+OKHlLRi6cTvqBkud94STBGbHbP9NTq/e+2xL4+wWTEpvymKypjfA3xt3ZCJgkILCOA6C7jRi0IXITARqKrdETseiFLnwyS7odao2+dkBKxTfdOxtzzkZMfSYsYqzBrO/37HH1O1p/ETqhLAgJLCCC6S6hRBwKXIbCr6KYC6ZaaB0poXr2XxRyLbjxLthVsufxsdSCyMhNP/XGz4X5JfHDcNkkaAu8IILrvCHEcApcmsK/oJtdumyYjctESdI69FdO2dcLZNP1Dt+2sNwhmP9u2FqeL7ptlamuUNAReEUB0X9HhGAQuT2B30bVEs6IXrrHakjY9FF37rMxwTTdaFpY6w+XlbPuDme5H+2Gbz82G7XHSEHhFANF9RYdjELg8gUNFN7rOKmL2VnAlHrHoypJ19GDsThQnCWoioIM6ufAndXJFyINAlsA//uFfdvCLX2QPkwkBCFyfwL6iK4Kly79u6bdb9nVpXcJ9Bz0R3eTtFWGma9vqlrUjcZZmonZTu94PEeL+Om5+xvzOY45DwBH4+tWLrrzejz8IQKBKAvuKbnpN9+mZuxuq9Pe03dYLZO4GqIw4isBqfbM8HNkN+bFNJ6qDunEZa2cg3FWeNnR6EQFEdxE2KkHgSgQ2Ft0roaIvEPgkAUT3kwCpDoHzE0B0zx9DenAWAojuWSKFnxDYjACiuxlaDEMgIYDoJkDYhUB9BBDd+mJOj48igOgeRZ52IVAMAUS3mFDgyOUJILqXDzEdhMA7AojuO0Ich8BaBBDdtUhiBwKnJYDonjZ0OH46Aoju6UKGwxBYmwCiuzZR7EFgjACiO0aGfAhUQwDRrSbUdPRwAoju4SHAAQgcTQDRPToCtF8PAUS3nljTUwiMEEB0R8CQDYHVCfztb/7Zy7/61eqmMQgBCJyDAKJ7jjjh5RUIPJ9edL98uUJv6AMEILCAAKK7ABpV6iXwzTe/bs/yqTdK9BwC5RJAdMuNDZ4VRkDE9scf/1L8R78UFIYPdyAAgbZtEV1OAwhMIHAmwf3uu9+62fiEblEEAhDYmQCiuzNwmjsfgbMJLqJ7vnMMj+shgOjWE2t6uoDAGQUX0V0QaKpAYCcCiO5OoGnmfATOKriI7vnONTyuhwCiW0+s6ekMAmcRXLmxS3wVobUfyeMPAhAojwCiW15M8OhgAmcXXGa6B59ANA+BFwQQ3RdwOFQfgSsILqJb33lLj89DANE9T6zwdGMCVxFcRHfjEwXzEPgEAUT3E/Coeh0CIrhn+tjrt7m09IU/CECgPAKIbnkxwaMDCIhI/fTT30c/cvyvf/2v8NlToG27kpa2c0Jr86QMfxCAQHkEEN3yYoJHBxAQkZoruj/88Kd264/4hOgecELQJAQ2IoDobgQWs+cigOieK154C4GzEkB0zxo5/F6VAKK7Kk6MQQACIwQQ3REwZNdFANGtK970FgJHEUB0jyJPu0URQHSLCgfOQOCyBBDdy4aWjs0hMFd0X910tfYxbqSaE0nKQqBsAohu2fHBu50IzBXdVAj33Bdf7c+Dcmkpwx8EIFAeAUS3vJjg0QEEEN0DoNMkBCokgOhWGHS6PCRQguiKD7lPOouWMrnZrc2TMvxBAALlEUB0y4sJHh1AQETq1bVYOZ6K39r70kb6sA15dV/ajpSzAptLSxn+IACB8ggguuXFBI8OICAihegeAJ4mIVAZAUS3soDT3TwBRDfPhVwIQGBdAojuujyxdlICIrr/8i//J/uRGbAcT5d5196XNlhePukJhNsQmEgA0Z0IimLXJlDKTFf8sB+u6V77vKN39RFAdOuLOT3OEChBdEVgc590Ri2+5m6esnlShj8IQKA8AohueTHBowMIlCC6qbiO7SO6B5wgNAmBlQgguiuBxMy5CSC6544f3kPgLAQQ3bNECj83JYDobooX4xCAQEcA0eVUgEDbupuXjv6d7thycprP8jKnLATOSwDRPW/s8HxFAsx0V4SJKQhAYJQAojuKhgM1EUB0a4o2fYXAcQQQ3ePY03JBBBDdgoKBKxC4MAFE98LBpWvTCYjoHv1EqvTa7di++Gp/k5tLSxn+IACB8ggguuXFBI8OIIDoHgCdJiFQIQFEt8Kg0+UhARHdq9y9zCx3GF9yIFAKAUS3lEjgx6EEriK60o9vv727n0AdCpTGIQCBLAFEN4uFzNoIXEF0Edzazlr6e0YCiO4Zo4bPqxM4u+giuKufEhiEwCYEEN1NsGL0bATOLLoI7tnONvytmQCiW3P06XsgcHbRFf/5gwAEyieA6JYfIzzcgcBZRVf8RnB3OEFoAgIrEUB0VwKJmXMTOKPois/cqXzu8w7v6yOA6NYXc3qcIXA20UVwM0EkCwInIIDoniBIuLg9ARGxM32Y4W5/TtACBLYggOhuQRWbpycgAvz9978v5qMzWxFbBPf0pxcdqJgAoltx8Ol6nkBpgqvir8IrW/4gAIFzEkB0zxk3vIYABCAAgRMSQHRPGDRchgAEIACBcxJAdM8ZN7yeTeDZNrdbe4s+9/bxIYbkWNM+R2w+m7heM1bw49HerX0t+Gza2/3RuqZG2iAbAhCogwCiW0ec6WVOWEUMnTCOi64TXBVPR/GjfdxvbZTl8sWGirjHPaxLGCAAgdoJILq1nwHV9D8jrDIzdTPQzDHhEo5PgDSn7ARzFIEABK5JANG9Zlzp1YDAUFg/HveXM93++MBYJkPs3/LLyMnysrOry9C67Oxm3U2/BN48275cv/Td55m2nP2mbe7dMrjadLP7fml8ODvPdIMsCEBgUwKI7qZ4MV4OgU4UVezcVsVsKMjitwjc3V/0ndyN6Pqvip8VXSeu/UXh0Ibkh+vK3ldtW2z6VXBdDvfuxHX7pW0tH477znSz+sldoSAEILABAUR3A6iYLJFAXli9p/ljIlr+mu+y/oRrukZ0I1HWLwCiqJEYx/6oeL6sqwIvt4VZke7aYJa7LIbUgsDaBBDdtYlir1ACsZDFTo4c++x1Wq2fiK7OYCMfJoruaN2c6IYG/M1f/Uw6HCABAQjsTADR3Rk4zR1FYERYnTvjx8JsNbidv3vZzYqN8ElxqetE0oium9GGZWS/hO1m0xNE92Vd07bOdEP7b/oYukYCAhDYnACiuzliGiiDwLiw+t/p9jccud/yJiJmf987tlTrhFeXjGWrBa3odteKgz1tZ4rovqqrduzycnIjVXaWXEZw8AIC1RBAdKsJNR2FAAQgAIGjCSC6R0eA9iEAAQhAoBoCiG41oaajEIAABCBwNAFE9+gI0D4EIAABCFRDANGtJtR0FAIQgAAEjiaA6B4dAdqHAAQgAIFqCCC61YSajkIAAhCAwNEEEN2jI0D7EIAABCBQDQFEt5pQ01EIQAACEDiaAKJ7dARoHwIQgAAEqiGA6FYTajrqCcjjIPvX4Emee75y5m08Nj880jGLcWizlZcd6CMhzSMao0dF6mMiE5tTyljfeLxjApBdCBRMANEtODi4tiYBfdOOPGPZiG70XORePJ3wBVHMv+SgbUdsds881ur9iwfs859HbDqx1vf8Shnjq+IY8VkPs4UABMolgOiWGxs824RALGQirnammO6rC2P5/nhs070NyMxu1Yab/Zp8EWMV5lAmevGBfwuR9S+UC4kR8Q7HSUAAAiURQHRLiga+7EDgtUC6ZduBEpoXw2c9jG3Gs2RbwZazs96+zEDcExHuS2oqb0ePsoUABMoigOiWFQ+82ZyAFT7fmL0+2jRN/0o+9SVaztVMu41tOuFsmuw13f5ab2bZuHt1XzSzfSG6Ttxv3Tt7rTukIQCBYgkgusWGBse2IRALZNpGdqZpXjqflvf7sU0nhskyshNSuV4b8qXOcHk5235m5m396K8Z21zSEIBAiQQQ3RKjgk8bEogFMm0ous4qs8y3gisWEpvPJrpO7K7xNs92kqAmM9tBndRh2U/q5IqQBwEIlEEA0S0jDnixG4GhQN509unuHO6WfaO7iN85l9h0dy/rHcj+erCb6Yo4alvdT5WipWRpJmo3tev9cDNpM/tlpvsuPhyHQDkEEN1yYoEnuxAYCll0TffpnbB5t+73tl4gczcuDW262af+TjcRSLXX//Y3tulEdVA3LhP5Z+zvgpBGIACBxQQQ3cXoqAgBCEAAAhCYRwDRnceL0hCAAAQgAIHFBBDdxeioCAEIQAACEJhHANGdx4vSEIAABCAAgcUEEN3F6KgIAQhAAAIQmEcA0Z3Hi9IQgAAEIACBxQQQ3cXoqAgBCEAAAhCYRwDRnceL0hCAAAQgAIHFBBDdxeioCAEIQAACEJhHANGdx4vSEIAABCAAgcUEEN3F6KgIAQhAAAIQmEcA0Z3Hi9IQgAAEIACBxQT+PzvDTYSmFuAIAAAAAElFTkSuQmCC;" vertex="1" parent="1">
          <mxGeometry x="347.00480856502753" y="686.0043170525047" width="477" height="330" as="geometry" />
        </mxCell>
        <mxCell id="FRESr7IEZjTQvJsylfUq-23" value="" style="rounded=1;whiteSpace=wrap;html=1;arcSize=50;" parent="1" vertex="1">
          <mxGeometry x="76" y="310" width="450" height="250" as="geometry" />
        </mxCell>
        <mxCell id="FRESr7IEZjTQvJsylfUq-5" style="edgeStyle=orthogonalEdgeStyle;rounded=0;orthogonalLoop=1;jettySize=auto;html=1;entryX=0;entryY=0.5;entryDx=0;entryDy=0;" parent="1" source="FRESr7IEZjTQvJsylfUq-1" target="FRESr7IEZjTQvJsylfUq-2" edge="1">
          <mxGeometry relative="1" as="geometry" />
        </mxCell>
        <mxCell id="FRESr7IEZjTQvJsylfUq-1" value="" style="rounded=0;whiteSpace=wrap;html=1;" parent="1" vertex="1">
          <mxGeometry x="121" y="80" width="120" height="60" as="geometry" />
        </mxCell>
        <mxCell id="FRESr7IEZjTQvJsylfUq-6" style="edgeStyle=orthogonalEdgeStyle;rounded=0;orthogonalLoop=1;jettySize=auto;html=1;entryX=0;entryY=0.5;entryDx=0;entryDy=0;" parent="1" source="FRESr7IEZjTQvJsylfUq-2" target="FRESr7IEZjTQvJsylfUq-3" edge="1">
          <mxGeometry relative="1" as="geometry" />
        </mxCell>
        <mxCell id="FRESr7IEZjTQvJsylfUq-2" value="Examinar" style="rounded=0;whiteSpace=wrap;html=1;" parent="1" vertex="1">
          <mxGeometry x="281" y="80" width="120" height="60" as="geometry" />
        </mxCell>
        <mxCell id="FRESr7IEZjTQvJsylfUq-7" style="edgeStyle=orthogonalEdgeStyle;rounded=0;orthogonalLoop=1;jettySize=auto;html=1;entryX=0;entryY=0.5;entryDx=0;entryDy=0;" parent="1" source="FRESr7IEZjTQvJsylfUq-3" target="FRESr7IEZjTQvJsylfUq-4" edge="1">
          <mxGeometry relative="1" as="geometry" />
        </mxCell>
        <mxCell id="FRESr7IEZjTQvJsylfUq-3" value="Analizar" style="rounded=0;whiteSpace=wrap;html=1;" parent="1" vertex="1">
          <mxGeometry x="441" y="80" width="120" height="60" as="geometry" />
        </mxCell>
        <mxCell id="FRESr7IEZjTQvJsylfUq-4" value="Reportar" style="rounded=0;whiteSpace=wrap;html=1;" parent="1" vertex="1">
          <mxGeometry x="601" y="80" width="120" height="60" as="geometry" />
        </mxCell>
        <mxCell id="FRESr7IEZjTQvJsylfUq-9" value="" style="shape=image;verticalLabelPosition=bottom;labelBackgroundColor=#ffffff;verticalAlign=top;aspect=fixed;imageAspect=0;image=data:image/png,iVBORw0KGgoAAAANSUhEUgAAArYAAAC3CAYAAADnwB1gAAAgAElEQVR4Ae2dMY4syZGm3wn6Bn2CvsAC1AnegDegQJUnaIEcYBUCS4Baa7vK7EhUeQbuBUip1REWgwFndrAEavGx9pv+n7VHZERWZb3KrN+ApEe4m5v99puHu2VUNt+np0oZKANloAyUgTJQBspAGXgABj49QAwNoQyUgTJQBspAGSgDZaAMPLWw7SIoA2WgDJSBMlAGykAZeAgGWtg+RBobRBkoA2WgDJSBMlAGykAL266BMlAGykAZKANloAyUgYdgoIXtQ6SxQZSBMlAGykAZKANloAy0sO0aKANloAyUgTJQBspAGXgIBlrYPkQaG0QZKANloAyUgTJQBsrA4xa2//RPT0/ff98MvwcGvv326ekXv3h6+slPnp7++Mf3gKgYYOBPf3p6+tWvnp5+/vPn3JSVzxn47rtnfli3v/3t52O9KwPJQM+bZKPXZeCLMnBdYcuByIPMoUg7hYOSsbcUcPzsZ09PX3/9fFDjn/uvvnp6+uabt8fzlrG/d1/khuLg06f1ennv+B8VH1/8KN7IC5/K5wzwJYwvZHDz1vvZ50h6954Z4LxjjXDeVMpAGfjiDJw/zdjgKVIoGPc2fB5yHvhbC4czvsDCm8EpjFPYMl75cgywbsjB6ovQS1DxJatv5l/C4HNe+nysOWS9wk0L2zU/7X1eG6wRvgRVykAZ+OIMXF/tWahsbfgUGxS/vBG6pewVtfql+OnBLRtfpnW9vHZhy5es17b5ZRj6cl55Nvp8rPlvYbvmpb2fM8AZUykDZeBdMHC7wpbweGN7yz/PeOjw84NL0m/Tlxi67fgtClvz38L2ZblrYbvNn2ts6wv89syOlIEyUAbKwBdg4LaFLf/BxS3fBPnbpmsPHX5DR+HNTxV480eBTAHsn7b5Fu44Ogi+0CMu3khv+aZfu7R8sgDjZxP+pAOeGMMuNv32Lz761aXN/wCLeWKHD+ZyDz7flhMPY9qh5eM4cWWsjDHH3xde+lJwKVZ5A1Ny8HdCF/8jx8QBb5Nn4jdmbMpz4iQ2eZcPODC36XbyTPzkHX3mIskPPlMyl6v1IBZsiXv1sxltag9dcOR/uIR97WS/c223YlrxTzx8zDl8cw8PK5wZDxzPtQQG15y5kVPXNjryiy/68YVv5pBL40RP3Og5Bjf2i0l/2Jz5lld8bD1z8meLfWzNvBofcZnTIzzgG9yXZGWf2IgzZeqhw2eujYwdG64PYuNDDPRNIW45JT6uM4foy735Qm+1bvQpZ3Kh38SYfOMPzvAN1ilykDjRT5y51tAXs/HPtaIP9bQN5tTdwsz8Vbwrnid+eRFD2zJQBk4xsNglDs5n42FTyA1oTvVQ8PCZ4y+9Z4MEwzX22XTcpMRBH/by4GHTQY9+NiU2OgSfW/7Z+Jjjho0+NrGRfXLIpulhzTw2ZD5c4wMMyAof/fKMLr754EusHgj6xh662E/JWLEBJnRot+RsrJdyhS+w58G44g485APdaZO46c88Ym/axYbcEUeKPvGhyBt2pmh/Pg8UGOhnoaFuxjjtuTYmLvTANP3kfGPK+Bk3JteFc8DHB7uuEWyQe/pTX9vqYQMsiQeeWHN8uEbkLtcz/ebQmBhnHkLs0//zyHM/WJAz+ZZXfMxnTtvZGm/GxzjzwSYPxjefKeLKPKA3ddIf1+hgP7nS/vSJrdRjvutrPrcZO9yyx2DXZw6sKehP2+jIO7pH1zc8gTW5oI94kg+xT74z/sQoV/DFNaLuCjv+0MUPenBATPRPn8aWz6n4Mg55zfln9u9r1khy0OsyUAY+Y2BxQn82vn2zephX2mwYuRGudK7tw/a19t3M3AzFMA8s+tWdcbjJ5YbmQTgPldXhq25ukuJQPwsixoxZPVv684Cw3w12FkhbMdnvga2dVSv+I7G6XiaH064HevY7N3lmXKzTpgc1sStiZU4Khx+8zXWwpa/PtMG1+okRm9gmphT6t/Kl3p7OCq/zaFdrmH74wC8xp7imki/GXYOpL7fJF9cZt/lifopzs1BQN/ucI6dz7dKfedRu4ndu6mHX/tUzp99s1c/48EMOJi7XBnMQcwi+lHmfY1zLyXz24YhcGKdxr7hDj7yqi11jmZwwRjzop7CO5tolpxnf0fUtN4kHX+Qh8Ygx+RaTNrynlasza23atsBOHOSO2HLt65f+tLHC7LMzc+izpq1r14jz25aBMvAjBsZO9qPx7Q43lHzAV9o8yKuNd6V7ts9Nwo12zqd/fthY3Uzmps18i4K0udpQ0UUHDMmBh83caN3ocvNczc8YZnEJdmNOPa7pT9s5bsz2Ef8qTsa3YnVutmdidb0kr2nLa7DNw48CYvKMvlhXNid3vn1JjlY5EYe5Sf30qZ6t+rkWtD8LGdcfMe2Jceda4noWVGljb42gZ8GT/GytKfQdMyfmkYLEvvTPtWuLOFNcL8mR9lY5ZC54KSTSFvHPgiHjYd4q3/Sv8pQY5/WWPrEnJq6NO2OBP/BPvNNP3mtnxpQ6XJvL9KeOayf33q1YmOOz5PzsI0cZqzpH1zdz5cG5W+1ZjHI18Z1da+DLZ93YjnwB2sI887f1bMrNmTWyxV/7y0AZeLpwsu4w5IGUh9RKnYf2ks5q3pE+bPNZbezMp98NDj2u2VzciDhw2MxWn9yUVpu+9md86rLhruyCQRHHHj/g5XDioPKwwucU+vC3JWz8bJza2ToUxb9lJ/vVPRKr62UrV2mXaw4WuPKNzuQZHf1v2SSH+MUGn8mRmFb8m5vJqT4nXvXTlvbhmnnzA6Z5IKddbaKnkL+teNFxzsTtfPGnDXjhs5K5TliP9jGH3M8DWXszXu9TX44ST+JwPOfgfyWX8s0c+ck8rWzZt6d/5JkSP5yw35A/ONwT+dvTYWxPT78Z514srov0yTMIZv2wDjNP+ri0vvWLj0uibuJ2zgqj2Fxbs811I96MQdvYSXzqrnA4x3YP85H9W19gOLpG9N22DJSBHzGwcZr9SO/HHT6Mlx58HtbcXH5s6foev60fwQAOxY0oNzLHVi16OV8d7aR/dVebp/NsV/Md49DEFhsd/FkAgWOFhb6teCzuwemhuoXTfnHsteoeiRXfYLykS6zEzCHqlwvnJs/g2vLPPA5b1geHMyLXzFG27G7p069PbdhqPzHu2XfepdYi0vwT056II+NMffFnHrbWFPN8xlIfLHzZcoz5FGzKnj11bOUo7TtGy3rFnsW9X3hS52i+mSM/mae0Na+39M88U9iAH4tEWtf29Mf9Uf729OQ149yKBZ+ui4kH/onVdYhP9/OVjzmfe/1urcmco27idnyFcY8D59mKFx9TsJP41F3hmHNXmM/u39g4s0Ymht6XgTLwnwxEtfeffccujjz4PNxsGKuN5JiXfS0OV+yz6e7J3Pw4VOjjgDkiqw2VeasNjQMY2/knwC0fq/nqsslhx0PE/hlL9ufGbD/zmZOFB2PGNHNjv/P32jOxul6mv7RvETPz6dx5yIh12vQQtojHh1wnR66f7BPPSp8xfapnq35i1L5FmbpnWm2QR4q6tL+yc2ltW4wmZ1trCvuOWVgnp4xjx4LNYm3er3DaZ24Tj2O2YgYD61g/jh/NN/qrPGln1a70jz5T4JU3bIsfTvfWhPztcYI99SYfjGXhbVyrWBxbreuZa9cifhHv92JBzzVJ3JfkLMY9DqavvbUGttwHjC37pj3vV5iP7t/XrhF9ty0DZeBHDBzYaX4057nDTWLvoPWBX228G2ZPdbMpeKixEW2Jh3OOuyGCcQqHQm7qq02fOcaXHOxtiNjEtrKa75g+J75VLMyZG7N2tvK0Zd9+5++1Z2IVx4wn7csHGFKcmzwzLtZpc8XRyrYHLmshCxBsU0SuONXn1JeLxLhnHx+XCgJ08AMOijv0c10yvhKfiamrLQsT5674Ykz8+FaIf8ZufswDOLGZXDjfAt37Odf+bC0k0SW2KSv8q3wzz/4Vtml3S1/M04ZrQx5o83nXPnjR3RL5W81N/raKJ+z6ZSD33r3YxZ6YMu/2p57rY/X8oJ/r2/3Wv6Bojzb3WzGuYtdGzpWrmQt0kivuzZv5STszJ8ZG/1zvzMvYxJwY5Gn6mmuV8VWsE09i7XUZKAO7DNy2sOWwn4foLpwrBtmA8MFntWlicm4m9LnJsXnnxsVmOA8dD4kJb7WhYcsNGFsK/djJjc7iKTdE9dnswJ0bKPaMJTFzvbUR6oOCwDlyxpzJ2Vas4soWe0djNZ6MP21xbRzgAqN9YpoHgAc76yxF/exXl7EUDyDG5YdWG3MtaIdWISaLyZnLtK8+LfOnbo7ntYf3xJI6eW3OJ1+u+eSFea6puRb0mzkDQ8bOfPywDuQPfWzSZx7R4zrXoXPRTR/0p+S6mNjRM1c5Zp5mvuXmKPcrffsyltUzRUyTA2PZ848t+UteJn98ccH+jFH+c++AJ3GvfLtOk3cw5B4m17kOnTfXxFzf5AZ7YM0vXHO/ZczYiReBM+wRK2Mpxjp5nlwxZ28Pwm7Ghb7rH9+ubfpnbCte9ZU5WO3f166R5KDXZaAMfMbA2CU+G1vfsEGxAbjJsLlzn4eKM+lnE7i1sBm68bFxsnH7AQMYVzjQMQ71aN3EsOvm5qbsQUO82HUTTvtsqthhTH7wk4fEnI8fbcMXGIhFG1wzRzzY5Z456qGL3/SDLbCJE102XWK3j/FVrOhdkiOxYl+exb1lNzd/YuHjwQFe4gcr4qFg3IwhYNIf8fJJXe/RhWc51Q4+4db7Z6vP/4vvzDu24FKM+M21gP3kH9voHOFWv9qeeXV81aKLH2IDnzkgriliFhf64CROfKdwTz/j2uUezlPUg0NzMPXEhA5j3JvbtMW1OVqNH803seMHf3KTz9z0OfXBp3CtHeJbPVPogjt5xf+R3K/4g/PJM/fYdB1iW3/uY+DYigU+5dZcyQn5xRaxuibAkHbPrG/t4cf1he20B1b00BEPumCitU+M6K+4gpPkCj/EwnzGfA6wA3f6gwvX2Co25oJP2eKVudo1P+jKdWK4do2IoW0ZKAOfMXC+sP1s+s4NmwqbhZvEjuqrDuGXzcrP3DRXztR9bazY0/bK75E+41GXeLB5FqtYkg/s5Oavj2ta7WPzpbKKcfKgj5WuYzM+MSYH6jpGizCX9cthuhLGz8QqTuas/K98ZB9Yrpknb3t5TrvGJQ+JIa+P2EX/qF7avvYa7BmnOc34rrW9mreyPzEwD//yehaL/F3Kh1jw89oi9j0MZ2LU3h4XxrPnc8YpV7kGps419xnb2flicp62Zlz2w80eL9ppWwbKwCYDtylseZj5tnrmDdMmxA6UgS/AAAfMXmH7lpA4BHmrUykDZaAMlIEyUAZ2GbhNYcufauY30l0Y5wf/+dOnp7/95S9/n/jX3/zmiXtapPevz8f/+cd/PJ+ke57xpQtb3tr45onniT+3VspAGSgDZaAMlIFdBm5T2O66fJ3Bv/7610//8tOfPv3HH/7w96L23373u7afPj3dioe//fnPr5O4e7Hib335y8OXEH9nyE8htn4O8SVw1WcZKANloAyUgXfMwN0WtnD6r7/8Zd/UvuGb6ne8jl8XGkUthWV+bvwXiB8FwNtaClp+gtDf3P2InnaUgTJQBspAGVgxcNeF7Sqg9pWBMlAGykAZKANloAx8TAZa2H7MvDfqMlAGykAZKANloAw8HAMtbB8upQ2oDJSBMlAGykAZKAMfk4EWth8z7426DJSBMlAGykAZKAMPx0AL24dLaQMqA2WgDJSBMlAGysDHZKCF7cfMe6MuA2WgDJSBMlAGysDDMdDC9uFS2oDKQBkoA2WgDJSBMvAxGWhh+zHz3qjLQBkoA2WgDJSBMvBwDLSwfbiUNqAyUAbKQBkoA2WgDHxMBlrYfsy8N+oyUAbKQBkoA2WgDDwcAy1s91L63XfP/6wq/7Qp/8zqlH/6p/5zp5OT93R/KX/vCWuxlIEyUAbKQBkoAy9m4LrCliLvV796/nz77dPTn/70OZCf//x57PPe29+BiSJ04rnW8x//+PT0i188PX369ON4iJH+n/3sWuudd2sG9vJ3a9+1XwbKQBkoA2WgDLw5A+cKWwqFr79+evrmm6cnrikgKfC++urpibdjKRR8jL2lgINik2L7tYS3sqvCliKafgrfyvtlYCt/7xfxfSJjP6iUgTJQBspAGfjCDJwrbHkbSjGXb0S5po+CN+X779cFb+q85jWFtfgmlpf42SuMkoeX+Ojc2zGwl7/bef1YluGYZ69SBspAGSgDZeALM3CusOVN7epP7xS2s+AlMN7YrvRvETS+OGDBCJbXeoPUwugW2bq9Tb90NH+355qitoXt7XmuhzJQBspAGbjIwLnCdsuche0sJvktLmO3Ft4OU9Ai/AwBn6ufCDDGAcxPFvgpAXgpvMXvTywS76owmnZSn2ts89YYX9jkmr4UfasHJvSTw/QDl2BBH10Lt7TJODa0mWMU/owRK3oINogfjPIndvTkKe1wfQT7nMN9YsA38eFD3+iQS/ToMxYwznhXGNAj78Rv/lf5e0kMxgVPYqTlI6/oZO74a4J4XWsz19qdLfPQ9TNzkpzCHb7Aoh/G6Z+injHAGbrJc64PxrEDr9im5QMu14oYwVwpA2WgDJSBMvAFGHh51ckhxsHGwTfFoiIP/KnzGvcUfRYyHMZbePDFgc44B3oWTBQiHtB5uBvDLEy5R3/2UxzQn4c7fujDB4J9ChSLBfrkEd0U/YDXQoK5iTH1tUORMUUcmQ+KFeyBjznwg6ADPvpT/wz26Z97CyFaYsMHsSFg4ZqPxRgtOsmVGKaecRCD81f5c37alLfJ/zOyz/+XHONrlePsy9xZNIKLPMr355Y/v0MXP64bRoln5lZO4QNd5hGj/XONiivtMgc+8MdcRQzgJQawo+PzJr8Tk/PbloEyUAbKQBl4QwZeXthaLFFcrmQWRiudl/aBIQsKMWVBpg8PYg7xKRaltIr6szhY9duX87EDNooBi0aL68kZXPFJ0eaRgst52FgVGhY02EyxAJr9FD7YytjPYE8fXoshi6o5Jk/2Wwg6Z96rZ/4yDvl7rRi0Z2Gnb3nJPKm7ygXrYeZaW7baXPGhDq2cZoz0s+7mWqBQpQ//U1iPjM316/rIZ8y5ezGq07YMlIEyUAbKwBsxMKqok14pNDggZ4GWZjgoLUiy/7WufdOU9rYOaHT2DmILCd58KerPomHVv1VwaSvbWSTwlgyu+KSs/OT46hobq2LKAgibKRYu2cf1lu+j2Kc97rcwMAbvYCenKfJqDsQ7Cz5tZ/9rxyCW9AFW107yvuUbfWPIOOe18+GF6y0x7pXOXAs+G4lTu67BWfTuYRXjyp5225aBMlAGykAZeCMGRhV1wiuHKQfuLHKmCQ5WC5I59hr3FM28feVgzQ9+5wGNv72D2DHmKvbNGFb9FgCMHREKCfDzhsy3jekbGys/l2xjY1VobBVA4p5293wfwT7tcb+FgTFwiz1z6bVfoOAMvfnW1DjAprx2DPpg7Ysr28S051s74txq1SNe1jn8zcL/EqfYUNSlXYk5yDExZJ/Xxpg+HGtbBspAGSgDZeCNGYgK7oRnC7F5wK5McFBakKzGX9q3VVz7c4T5Zm3vIHYMzIp9sxBY9VsAMLYn8Iaub7vlcVVUrPzs2WYMO6tCw6Jm4hP3tLvyfQb7tMf9FgZxJ/er+fSBgbzLHzgtdo/k6SUxyNXkcIV1xZ962vF+r+X5cT3DD7G7Zph3idNcC+pOnvS/WoN7WI0xfWirbRkoA2WgDJSBN2YgKriDni1qj6hz+HJQHikCjtibOryZW/1WFj3/5ArelL2DeDVm3ywEVv0WH1M3/XPt29lZ8K+KipWfaW/eY2dVaFjUYDNlq3BZ+T6DPX14vYWBcQpVsF/6KwC66FDgYc9PvqnV32vHYI4ppC/Jyrdztjh3nHbGwz0xw1H63+N0rgW/ABDHFJ9X5qTsYTXG1XpLG70uA2WgDJSBMvAGDIwT7IJHCjEKyXxb5BT6OGBTPPSOFCo57+g1f/bNP/3mvDykE6+YVgexh37GoX724WfV73yKjykUJWK1UMBGCgXFLCpWfnLO6hobKwwWZdOveKatlW91p40V9mmP+70iTHyTa+ax9nz7Dpf4m18MVv5eOwZzvFo/mWOwrHyLUR69X7XwYMyOr2zucQpPiVXuVl8I/Z3wLHr3sIonfYi1bRkoA2WgDJSBN2bgeGFLccgbNQ4wDtL5oZ9DP4V75txKOJznwZ++LJSyAPIgBlcWvFxjb/Z72BNvyqpfGxQTyQX9FJr4Rihw0ckCAoz08UlcKz+JY3VNHNjJuM0F/eJwrm8BvbeVq4z9DHbtZOv8iQEd/ZGD/DLENTHJS+qx7vyAM2PG5oo/MRzhP7FzDQbwTX5njrd8aw/M2NgT4iE3xo2u8SR/xpN92sUHvlLUx1aKmJJ7xrfWB2NZKCfOtNvrMlAGykAZKANvxMCFkzVQZOHFYbn6zAORg3L+FCBMXn3JAe5hS5tFJEY5bClaLEBoxWFRBH6KJYoHPlyDl7kKdi0S08ZWP/PgwAJBm7RZRFgEicEYLMTRx8f0w/iqeBGvLb6MHVvYJ3/EqU9sy5O5RE/707f8HcUulmyxkbi4T77RBTuYwQQePtzPtYVe4tau87B1ixiwu8ox/rOo3vK9x3lyxTW6xk/uKEjhIv1MTvGL5DMCJ6yd5NrilhbbrFlsm3/9uyblFf0p6jAfO7nWp27vy0AZKANloAzckIHjhe1ZEBz+HIZ5mJ61cQt9Dm5wcQBTpHHP57XfNhE3dmdBljExho4intfgTFt7/vV7TXtL7ODR/go/fRSSFGQp8EYhSH6PFFf60IacHeXfHGcOtfWa7S39gJ3P0Zi34ppcbum1vwyUgTJQBsrADRm4TWHLIUeBkW+WbhjEKdMc4ha2pyZW+d0wwJtBcrgS8+uby5VO+8pAGSgDZaAMlIGHZGCjOnhhrLxJe+kboBdC2Jxu4cMb28p9MuBb2dUa48sURe9q7I6i/edPn57+9pe//B3xX3/zmyfuaZF7uP8///N/3hHbhVoGykAZKAOPwsBtCtv3zI6FD8XRa//84D3H/UjY/H0tOcwCli8t87eudxr3X3/966d/+elPn/7jD3/4e1H7b7/73V21f/vzn++U+cIuA2WgDJSBe2bgYxW2FLW8Tc4PxVDl/hggb/yHU7x5p+U/YOI/bOJnMA8i//rLX97dm9p8s/wgaWgYZaAMlIEycEcMfKzC9o4SU6hloAyUgTJQBspAGSgD5xhoYXuOr2qXgTJQBspAGSgDZaAMvFMGWti+08QUVhkoA2WgDJSBMlAGysA5BlrYnuOr2mWgDJSBMlAGykAZKAPvlIEWtu80MYVVBspAGSgDZaAMlIEycI6BFrbn+Kp2GSgDZaAMlIEyUAbKwDtloIXtO01MYZWBMlAGykAZKANloAycY6CF7Tm+ql0GykAZKANloAyUgTLwThloYftOE1NYZaAMlIEyUAbKQBkoA+cYaGG7xRf/3C7/Qpn/utWWXvs/NgPffvv8L57xL6A90L969rGT2ujLQBkoA2XgXhk4X9hS8HGY+8/Sck1fCsUg47eSP/3ph2LCf1KVfy53Cn0WprRn/vlcYkL/q6+enj6dp2lC6f2DMsAaYQ2yRs6srwelo2GVgTJQBspAGfiSDJyr2HgjRaFHkUhxyf033zz3zbdVP/vZs94to8M3BcWqqNXvd98945vFt+OXWouWS3od/7gM8CXuFoXtfKY+LsONvAyUgTJQBsrAIQbOFbZff/30xCeFopJDnUI2hUKSIpjC8lay5Tv9vfTtcQvbZLPXKwZuUdj6/Kz8ta8MlIEyUAbKQBlYMnCusOVnB7NQ5c+vFLa8PZ1CUTkL3qnzknsOf3zz2XojS3HN2+Vr5SMWti/h61qe73neLQpbbd4zL8VeBspAGSgDZeCNGThX2K7AWdiuCljfqK7mvVYfxTOF7ernCBThK1z8iZd+3j5TuNJyv/qNZBa2FHz4o4/PL37xQ9HMXMdoLQ71ReGvL+ZlIe484mAeXyAoyFdfFuSN+czLGLieXzzUz1ZMzsUX8YOLPlpF3S384GUu4+KlKMMO8WCb+5WAVbtyQ+wKnNovp9xj1ziP8JAYwcUcYsROxqrfbMEuRmOc68QidPanHa6PYGUdEyO8gY9rPrm+5Zd+MB3h2BiI3/VmXpJnbKaoC5ZVfEf4SXu9LgNloAyUgTJwQwZeXthS1HCwUgBN4SDcOhCn7rX3FDj4AMcUDmULIMfENPW5x87U56CnP8WijUIlBdtwYT+ccA8Ohb4VXv3QWrhQjGwJY9iRd3yCC397QpGHDvPFSUuf8dt/FH/OB78cwodccZ3il54s2ChqwTCLW/osyOBSnNg7ykNixAYFLTHvFbbooSPH+HOdZB/5AtOMMeM9gxVd7PGZYkGeHK0wMU9cyTE8mBPGFeLBH/mbov0Z31F+pr3el4EyUAbKQBm4EQOLk/OCJw5JDj8+FBUcehZCq6lHDvzVvDN9FmUUbYqFjPe2sxCyn7lg5dBPIc5ZYKwKBubQn8WCcyc/KwzazIIlceS1xSmFRYr+ZgGSOqvCiHFszVxp7wh+dadvi9XkxdzAQwr9YCCfKas+xs/yIMYsStNPXhMHfmfhu/oiZe5m7GnvLFZ885kCZ3ON6j85dj0T85SVPjr429PP+M7wM/33vgyUgTJQBsrAjRhYnJwXPFF8cGgitBy0FCJ56KUJDssjxVrOOXu9KtYowGdR4mG/Khjw6ZusLHwshhKTdmYRwHy5sUibxRt26ANDcmaxkX3pc17jBx8K1yu7jtsaj29V7de//Wfxa1d7thZAWXRZHM786HPmh/vJtfbP8LCFUVvZuqbkwzGxJx65u5S7M1iJefIABjhyjYnJLyXJsfizT33xzrEtnsvug5UAACAASURBVNXP+LR/hB/9ti0DZaAMlIEycGMGzhe2E5DFCMXtPHDR5bCcB+i08dJ7/4yaRSSFRxao+LDIyqIkfVv45AFuX+pxbb8x44u314q+4AXd1SfxrYoHbW21cE8BT2HDx8I88c+5vkGdReWM5yx+509/2sk1YKzgXfEy/wqwVXDp6ygPWxi1k626rKkVxuTPePZ41/ZRrMTMZ0soKMEAV2JNju1bYRJv6uNni2f105b2j/CzFUP7y0AZKANloAy8MgM7J+cJTx5yqzezHJb5G78TZk+pWtRRaPLJIldDFlngXYlxrA7wqU9MxGbMFBn59uqSr2lvVTxMnbzHH/6ZZ3G9wp9zuKawghsKbmIAp8VuFjpn8et7+tNO2jbW7Jvz8n6r4ELnDA9bGNOX1+qC/5IYzyXdM1iJmc8UckbuKGj9YqT/5HMP/0ofP1s8q5/x7dmfmHtfBspAGSgDZeCNGFicnDueKYpW4iGXByt66HNY5oG4mv8afRZnFA9cW3CmbQoB8FAYrISCb+I1tqlvbBbQtupd8qWe7ap4cGy2FtW8pU0R6yW+wQZefPqxONbeWfz6dr4tWOA014a5yjfc6q9a5mN/ylketjBOu9yDDb+rdTT1j+TuLFZ880khR/TxJS5F/8mx+LPPOSt9xrC94ln9XFfaP8KPftuWgTJQBspAGbgxA+Pk3PHmbwvzcFPdgiHfWDJmUUORdGvJQ5+ibRZq+s83u/bRWqjOotfYUtfr/G3jLDLRwRbFwoozCvDEuCoe9DNbdWlTxLryp548UWhdkjP49T1tugYSaxbNqy9Ls+C9VHClbfyLZfJg/8S4urf4Zs4UOCR/ivmY/hynVecoVmLmkyKXE9PK9h7+fHOc9vE3v6AxbhGb8e3Zn/ykj16XgTJQBspAGbghA+Pk3PG0dahapKwORA6/WSjuuHjxEBg4nGdhlIYt0LMwYdziAMwp2sw+r7WFz1Xxrk1sZAFHUTmLE4uNLB70M1v9UqRrF/8WovMLRs43j+iCwQ9YZ7F7Bv8WT/rDVgp+4W1+IeA+df3CMfnC1lketjAmLq/xK5/JC/3YyTwdyd1ZrH4By3UlF7nexENfrunEn2s610nyTNz6zHh9hrGfMaf91BdP6spp2zJQBspAGSgDN2bgeGELEA5nDj8Odg5FDlIOf4oRDrQpFCOzcJk6r3nPIcwBnAftyj7j4KYAJg4wcp8FAG+dfFOFzVnMaJd5cLIl2EcHG/CBLm3ypX90GOce/3uCDvrYBhu5wJd9jG+JRRa6zBWf9znvEv49nuCTeFaYiD9jgBNwZHFGcQQ+5vNBZ+Y2bWzxsMKYfjLevKYIxCe+zRsYEwP+5Q+dXENpi+sjWJ3jWsY2GMgDgu/kg7HMJ2vWtQN++cMO12AgdmxoU5/YyVjQx5/rasZ3hB9tty0DZaAMlIEy8AYMnCtsBcSBRtHBJws0x2nR4fD0kM2x93JtHLS3Fvl6TT6wNXPA/V48jFG8zKIGWxZBFDhTboEfH6wfbW+tpYll3l/Dw7Sxd699cL5UtJWxbuVspYt/OWNccS17n61j+rRQnWuAOdreW0Npm2txvgY/03bvy0AZKANloAycYOC6wvaSAw5F3/Zc0u342zLgG9SVVwoTvozsvXVczWvffTGwV9jeVyRFWwbKQBkoA2XgMwZuU9hycObbpM9c9uaLMuBb2VV+/DP3auyLgq7zV2Wghe2r0lljZaAMlIEy8H4YuE1h+37iK5LJgL/HpMDNApa3tfxEIX8/Ouf2/jEY8Le+R35n/BgRN4oyUAbKQBn4IAy0sP0gif4sTIpYihv+wyNa/oMjipwzv6v8zGBv7oYB3tbOz92AL9AyUAbKQBkoA/sMtLDd56ejZaAMlIEyUAbKQBkoA3fCQAvbO0lUYZaBMlAGykAZKANloAzsM9DCdp+fjpaBMlAGykAZKANloAzcCQMtbO8kUYVZBspAGSgDZaAMlIEysM9AC9t9fjpaBspAGSgDZaAMlIEycCcMtLC9k0QVZhkoA2WgDJSBMlAGysA+Ay1s9/npaBkoA2WgDJSBMlAGysCdMNDC9k4SVZhloAyUgTJQBspAGSgD+wy0sN3np6NloAyUgTJQBspAGSgDd8JAC9s7SVRhloEyUAbKQBkoA2WgDOwz8JiF7fffPz3xz8ZWnhn405+e/xlV/xnde+GFHJLLyg8M3Gsuf4jgMa/IS/9J6h/n9ttvn/+5bv757vLzY37aUwbKwKsz8PLCls1qblgUUPx79G8pv/3t09PPfvb09PXXzxsp/tlMP316br/77i3RvC9fFIfEDxd87kFYQ2Alp5UfGLjHXP6A/jGvKGp9tuZe+JgRH4+KL6fuw33ZcJy3apaBMnA1Ay+rctio2NDZuKZQkFCc3Fo46N04KW6ncOhQ7K4wTt1Hv/fwvYc4+WIC3l/84h7Qvj3Ge8rl27Pzth7Zg7766vnDfnNWmH/NvLN+vpS+z/ItC1v4g8dKGSgDH56B6wtbNpFvvtkubN3sb/2mlAKaQ54/eW0JGFrYPvMEV/cij3zYvzQHLWxfyuDrzme/u7awovDj86jyFoUt+/stC+dHzU3jKgMPyMD1VQ5v0nhDygG7VTTyxvaWf0r2jTFvZC9J3/zdX2F7KacfebyF7ZfP/mt88fIFQAvb6/PpOdDC9noOO7MMPBAD1xW2bCAWs3uFrYXvrQjzbe01RSu/hWO+P1Og5X5ujhTnxEqczOHtr2+q6dO3nFhwYCvf4PBGGTv8yZJDTP/qYzN/n6c9cIGBQ1Qc+RZcPMxnPPUn7/oCF7jBQh9zVm+8p210wbIVF/kGN/awvXXwMx87YkYXvpTJlf2r9pIt5xgLHMnTKmb1wQ4mc00/eSM2eACzuXdO4t7jQjuJhb7kVZvGh1/0wSMmcCjpG1vKKg7HaF2H2jcXuRZTz5yhT/wrzNrPZyefq1zbxKRkv7axASbXaa5952WbPFzKgbHIaWLE5uSemNGFX+fs8et8/citeM2nsbkeGE/u8EFczMeWon1zJybiPipn1uK0uVo7xDDXDj6IcfKLPbmUC2JIvb18/v73PzzL2JfnfC597h1DD2731u2Ms/dloAzcFQNxMp7AzSbBZouwUbAprYQNamtDW+mf7fPAu3TYTbviymIKHe7BO+0RH/3EzUaLED/3xs8GzWbpYUM/G2gKdrWDLznEJv3EYx/zxMnBhS0+6InPA0NMzME/+tMWY8zlk4cPPlY8ijU5Emf6w6444INDBfsr/+gijKddMKOfok3aPTlii4OeuPPA34pl+socOz9zn4coc8W9xQV4wZKHP9f0MScFP/BCPxwpYmdOiv2TM9fE1Mcv9jMXYsl8qJfrWb2cm1i8Zhy/rLMU58NHSq55xtBDzCG4kouc6/WlHBAHdrTNPHFmH7xPPfOHD59V1+/kF93kRz1x0op15owxfdEybmHNmLboSz5cA3Ndpk+vtZ8xc00ccy06x9a1mf6dmzGjb4xzDRzNg/PBtNpfjGPaP7OHGVfbMlAG7p6BcTIeiIdNho/CJsjGsiWrQ21L92w/tq+xzwbJvNzQ8c1mTT+bdYoba8bNuIftPAQ4aFZ28tBO+1xbtGbxQD92sshwnj5WY+Ja2cKeB7K2PAAybg6QqSv+mW/754Gm/WzFPQ/eea/NyflZW/iDo60crfhLHx6aFrWOuVa2OFpxIc+rMfOfftDDPlxMoZ9Pyh5nxpH69s31gN/MsXpwmbL1HKWOz85WDOnHecRFXqa/PT6cSysPK54dm+tt5mbea99na65LOVLv6DqXn2kPO45RrE7x+VyN8RzD4cxr2tiKD53VWsy5XDs/1yv9q3VpHLkGjuYBm+qu8sm43Kd9+uUoedDWat0xp1IGysDdMzBOxgvxsEHkN3TU2cj2NgnGV5vvBVeHht1E54a2N5kYnLfS81DIone1MTPXTXJ1KK18qL/iy4NiFmDYWel7wK7GjHEWbStMcuBYHgLJAXpbPo1rxYP2s8UX2OahmDpHbV6yJa+zkLHwYP6ewC864JliYYcPZQ+3BcOKJ7n18L6ED0wT+55v4xCn9ucacdxWvbkuGTf+FTfO33p2GAf/av1u9e/Z0h/tHg8WO5kz5rhOxKOvuW60Pfsnv8Z3aZ3rh3aKYyt+3adWY66zvX1XnZXfuRYnLu/n/uC+M9flKo6jecCXnK+wMi73Ky4mRmMzz8bStgyUgYdh4MKpPuJkM5jFyNYh5FTGtzYkda5tsc1ntaFt2XST3NrYVpvkamPGvrZW8Yktcai/8u0Y81K4X+mLaeWb+Sv/qz59bR2UHAz4oODis8Ij9i0s+rAVO7Y4+Dlks6BG76jNS7YcJz54nB9ionjbEvTBCZ4pjmXce7jVX9lyHjrIvJ++V7l0TuJxnr69V1d/9s9WPfKE7uozi4e0If/YmbJaS+hs9e/ZStti3uOBonwViwUrMYFjFvRimPsgttBPUZf+rXWuzgqrY1vcTX/6dt7KpjriXdmWP3QuCc8tBTTPsMXyxCWe9KX/S3nAv3i24tFW2k/cR/aw1O91GSgDd83A2Il3YuGNBpszm0t+2MQoGuibmz3mGF/177g6POSGtrXhrQy5SW5t2trMTRL7xJF92NbWyj/6fFLUX/l2bM7hfqUvppVvfK78r/rEN9++cRiQV/p9uyXGicf+LSz6yJY5HISsKXDRZoF0xuaerUs8JabV9Wo9qOdYxr2HW310pjhPbuf91F/l0jmJx3n69l5d/dk/26N6c5738o+dKcSw8r/Vv2crbYt5j4cVnrTBtYUadtB3D1xhnvxqi3l769yYVlgdW2Fd5V+fzlvZVEe8K9v0beXA+XwZxAbPLfu7Xw5XuMSTvvb868NWPFvxbNk6s4fpq20ZKAN3z8CovHbiYVNnY5kfNrKtwtY/Y+aGtuPi9BBvCvA/36qsDKnDZsccNuSVzAIPndXGTP/ehrva4NVnI56yNYadlb6x+6frtCfvzE1ZYXLcMQ8ockpfvkndwmj/1sGjD1rs68N7C4iM5YjNI7b2eEpcW9dbhyb6q7E93L7xBtMUni/4NteuU/pWYr5ybM+3WNW/ZH/qbT0v6m21W88O+hlvzt/q37OV8/d42MtB2uCa9QVvvMXFNx9sr2Tye2RtYseYaKc4tvJJPuCJPE7xz/wrm+ru8TDXonOy9ZmdLy1W63IVx57/9MP1Xj4Zl/vJ05k9bPrsfRkoA3fLwMapeSKerUMIE25Iq833hItNVQ4PN/i5qeUk/FvY0r/a8OjHHvHMQ3y1MaNvfKsDZLXBq89GPMUCbNra4tffsxHLFA8mDo+UFSbGLXKSo5XuFn77J/b07TW6/rnXPtoZ5xGbR2wZGzklv1MmR3N869BED5vT7h5uigDipCiYYjGSRS+20cdmiuuUsRR9r/jVVurbx3qZgg2/1Kg3cTAn9aYN7n12pg/zsnoW5lrQrrZWONShlYfVevQ5W/kl3uSOZ2uVq/TltevEezCkLftnbMa0wurYKt6twhI/fjmH4y05uxanHeOd2IhvrstVHGfysJdPcJ3Boq1V/meMvS8DZeAuGRgn4xUxzI06TbB5cSjeUti88cFntZFTBLDR50Zm4TcPHjfgLC7Ajh5xzk3cTXLaYc5qg1cfrFlkcc0huurf41dcs2hwo598iGnq+/Yk4/NwTC48TLMAJlb5XB3OM/f4mLmyUMv5R2wetSUfs0jhPn1OrNw7d+p5MM/+S7jhjvgtGvFB/PSxBnJd6IM5qW8eyGcKOvQlv9hDn76pv2WfoiefF2JkLjgS39RLLF5bQOVccMpr+mEO9vE1+xkTR65T/WS7lwPsywXYFPrBqO3UA4sfnjl4YzyFucnv0bUpP6svWD7fYkp/cEgc+E1BFxwre6nHNXOxkWvLuOdanHPFln6MBf/Jj7oZh37Q3csDfvfyybjPA3lJMSfZr+7kLef1ugyUgbtmYJyMJ2Jhg3DjYHNi488NElP0oXdrwa8bFhstByAfNlQ3fzbHFDZTxtRnPve5CaJvPzGy2TtOyz39zDNONm9s0s+Hazd0Dx1tiRM7kz90J795ABiLhwYt9rCDPX2qRytO2qk/+fELA1jBwQebzLWP+8lDxpu+8xqdxABe8CjTptw6nu0lW+hyiGID3PiFI/2nrdU1uszjgw04pmW+a8F5E/eKC7Dofy//2kRH/+TA3No3fUx9fJEn4zCPaZ9YsIcO9okvCxN0sTv10J962s1W3/jAP/Z5ZjMG7sHJ+OzHlpwzBsbJvf6O5IC1LSZscU1s8/lCj3F9es09+mDmQw7EnPweXZvaZS5YsDnjlTPjpBUf88gPzxC4aI/k5exaTN/MNVfg5xru5YI+7mccmbcjeTiSz9yX4A8M8uOaBR+f1PU+4+p1GSgDd8/A9YXtpdDZtNjs2aTfUti48nNpgwcn+rS3FvzACZsvuMR5CeMRXNra4zv9HNHHL3rJDfbpS1tH8E2d14z/qK2jeomVXJEzebBNnWuuz2BRN/Ow59Mc7a2FOZ+4juRVvTO28eVzRizvReSJmKaAk8KHIikxc02xxprIL2Nzvvfoy1nacdwWnaP5dY7tXhzq7LVHMa5smFfHtHVmfbwUP773/E5u9beXD+NpWwbKwN0xcJvCls2OQ2G+Abk7el4ZMBushe0rm665GzGQhe2NXNTsO2TA4pVndiU8x74ZXI23rwyUgTJQBr4IA7cpbPmz2Jlv7F8k9C/gtIXtFyD9hS5b2L6QwDudzttYitfVl3P2tq2xOw23sMtAGSgDj8LAbQrbR2HntePgkORA5G12/wz22uy+vj1yRK5axLw+t+/dIsUrv8/kk29t6WdN8Ea3UgbKQBkoA++OgRa2b5USilreZOcnD8y3wlE/xxiggMlceX1sdrUegQHWAG9ueWvPzw4oZvnM/9DyEWJtDGWgDJSBB2Gghe2DJLJhlIEyUAbKQBkoA2XgozPQwvajr4DGXwbKQBkoA2WgDJSBB2Gghe2DJLJhlIEyUAbKQBkoA2XgozPQwvajr4DGXwbKQBkoA2WgDJSBB2Gghe2DJLJhlIEyUAbKQBkoA2XgozPQwvajr4DGXwbKQBkoA2WgDJSBB2Gghe2DJLJhlIEyUAbKQBkoA2XgozPQwvajr4DGXwbKQBkoA2WgDJSBB2Gghe2DJLJhlIEyUAbKQBkoA2XgozPQwvajr4DGXwbKQBkoA2WgDJSBB2Gghe2DJPKqMPhnYv0nQ//4x6tMdFIZeDgG+CdzeTb4p3T5p7AfVb7//jlO/rlgYiXmyuMywD/hnv+MO3s+OSf/nANT0GWNnBX+KeqeJ/uswQ88vbX4zPNPg/PMv6W84b56vrD14Vi1kgRpt94kWRQePiTIjZk+izX6Vg+sOD96Sw6//vrp6dOnzze8j85L4//YDHDosG/wXNx6H/uSTLM/slcjFDfdB75kNm7rmy9o5JecK5yhq37GWRfosy7OCDaZx6fF7Zo5Of/qq/X4LXspbDn38U2O3lLecF89H5mLdrb5wEAWD4Sb5i3J2zuALHxv6f/ebZM3cslir5SBMvDMAM8Dz8UtC1uKgGveiL1GjixAjI/7b799DctrGy1y1ry8Ra+FFOfxar2xzuf5zbqg/+yLIexTNPFhTVV+zIB7yzff/HjsrXo899/Kn36M3X3H/ldurytsATc/cxG7wHn9fEvxAdwiaj6wt8Ryj7Zd4OSzUgbKwDMDb7EB8+x9qefuLeJzLXkWeN/27Rjg/GWd7X2xWBW2IJxn+lHU5JtPZZuBa7ndtnhuxHP/3KyXa7/RvnOusOXh4E/XR4VviGf/lHHUtnqXCtsvdXCI7723LvDydPtMfenN7PYRPo6HW2/A2v9Sz53+t14IvGYm3aNf02ZtHWPgSIG5Vdge81Cte2TAc/+tsb/RvnOusAUUhBwV/wRyVP8aPTfN1QadhQTXFNm8/vdPAMzxN6b86WRlY4WJzYKinbnwQYvN+Xaae/25kFZ/DlIPHfSxN21Nn9qF46NivPgRt7+1mQes/vCjLvwlp1t+nSs/YuXPWvhT+NMntif3mSs23Sl8wTKXYsM2fveEeej7mX6dC0/GLfbJj7rZmkfnYp988+E6c6quWOAq/xTss0a/sWkHTlZrBCxyLwb0Zt6wg1/swDV+wccc5YgddW3P5jPzrG/XKNi28mP+iY040KOl/5IcnQv/YFjtCZfWR/LA84ktsILz979/xso99s1T/sn3KMatWC/hgyv84l8O6VP0LzZ0XIPq0LpGtEHLHNc5sZsffHHNR064dm7azfU5nzufG7FhF/189vf4X+1fqZ/5zvWJH+XaZ9P52eJPDohpteaTD+KUAzCt4sf+Kjf4MTeJARvkQtnig3HWhnmkTbxbfGk316VrZZUP9W0nR8zNPKE344VLPvN8zNjgwrUul8RE35aQe/ZT9GjTPhjAlWuWa/OH/n/9r89zzbl+EpfPBzrwmxyZe3OADnNT5MJnBBv4TmE+MSPyy33mM/W1KW5aPrmeMv+MMYd9A7vub/DBfeYv15R66fuK63haD8w2SQQAmYCjTeLTjEHQ3krAMInS10wmRJM49EmsSQEfiaD/ElZssGBMHL7oc74PBbaxlxjgir5ciHLkPOwRUyZe3OkTPe0dWQxgJvb0wzV4ZtzGyByuEWOcGJ5Hf/hfseZcRsWKrxT7M17G9Tf1wUwcbBaKcSTXjtmKa3LPOkjB7uQJu+BI7nIO1+Y7cZlbOMt1xcaFvdwU5WHiQ4/54NS/88FJXArX8J7cy+PMmxsbLdwzzjzkjB192xrH0XziiziIEyyXnkn2GvQzniP5B9+ZueZuxnF0fTCPmOCU55PYwO1eKf+5Ls5ilPNsj+Lbig8uwZnreMWvayTz4Fojbtcq2LjnM0W7cDHFZy758RnL59z1ls8Nti7xP/1pZ+Y7Y8o58kf84DferWcz53rNuoCXxG7c2lPX9cJ6Qh9crCX7J270Mg/GQW6noDdzIH9pFxvMT7zwkHPVmfnGTq4VMDAv8ztxcc86zDjokyNx6HPaZ5y583w0NjjCPjxiw3xkPCtMrsN8RtAz99hNIUZ4wwfi2pl+Etdqz9A+rWKMckE/dvMZkR/nqGPeL+256B9dT/rCNvwQB7GbA2N3XakPXvfGxHnl9WK32bEEKBcD5EImoAkiyU4TjDHvVuJiIJlc+wHnXDhgoG+FyQUi4Vt49TfjZT4PlsnxIfEeeyY1cannokeP68ShTi5e8eGTeNKPY7Z7sa34MEYXvHb2cKjjRrTKOTj5pMhJxuu42LyntS/5on8+eDmHazejVUzqioU4U5ybm0WOc73l3/yo74OMfgr9cMPzlGLfjNfNPXk+kzd1V2vKsRVX4FnNEbMcHs0n88xpxkL/at2ai/n8gYvPnpyZu4rDviPrQ92tNbMV8xmMM1Z9nsE38ySuud7m+naNzDyQs9wHwbiXG8bwOUX7xKS4/+ReZ8zThv1b/GvTVv3JB+Nyoq4t2LNgsX/1bDqWLZzCVYpxTxxb/asvB/ADrll4GUdyiu9VDlZ8uDZpU+Z600/qEOvc87AzseQcMcw4iJn4xOG6WO1L7r9H1gy+sQsflwQ9PingXPkD14xhj/PVmj16bniOzJzMe3M0+V/tuWfXk7bnlzO4Mqeub9bE5CY5vfL6QAbDMqDmRmbQJCoXj9PoXy04x1/a+sBDDvj8gBOCp0j67J+Ez3HvSQQxrZKmju3UAdNc0OJnMa/4w5YPCxinEPcljsW8mi8fOab+PNzcQFyUE4sPFXhWQv8c2+NdbNrSPvimiDnjSB39oLelY3xumM7nHtyr9aSOsU3OjMF+bc2NxtgmP1t+XTcZixzoS2zGlXlbzVf/jB3n2Mpz+nJMLry33erfsjWfK54b+dfmVnt07sq3PB5ZH6v5icmY0ZtyFOOc91J8rkHyP8U1IV7vJ9Y5j/u93JxZ39ia/lZ7KnqX+J849/TN1ZxzFvucD99zz3c/n8/P3vO6woHd3Ae4NmfmUDyr+Ss+7MPOtKEt2hVf9hFH4sp589r1fKl+OHs+GsfkeAv7xMW9ecr1CC+ux8TM2T73jKOc6/vMuYFtim6wbIn5mONb3JxZT1u28ZX24ZDPDWSjAjnpySSvFgokr/pPuthUx/aWDx6MKVukJ+FzTt7ji89RYeGDkcXNh7lgUFgwPpiM+XA4Trvncy9+bezNlw/iV9RnbPXZemDkMOPTJq12s885qzUiNvXV5aFd4aIvNxrn2WoPHHCOz9xkHScHK/ur9aRtc5sbGLbBii/FfNG38oGdxARW9KZo59q8rebrwzyt8NG3lX/mmyPsT2Eutqds9e/Z4rnh8HBzFPO0vbo/MnflW5xH1sdqfmLRFnorOYJxztPmtfjEfOT5OsP3ni5j4J6ytz4v7anYMpbVOpy+LunL65x3DfZpg3v2DPYWnn19Tdx7fGzhYB/hWfUZ8ZyZa241f4s/8TFntYcSjzoZKzGyrpjHh1gnjtRPO5f0tDnncy9vyedWbOlzZSv7LDS1i01yCOfg4RlUcv+3Dx14StnDZRxHzg118QHn5J/9JGWVI8b3MBxdT1u20z78gC+/ACS+F14vTpkrLEqkSU4TgN87CFP3mus93yt7W6TvJTTtEA+fS8LmyyIkgRY7+pgLmgVDgk029lmMyp7PI/HvzZcPsCl7+uqs2q341F3Zdc5q7YjN+epO/hw/0rIWLULBA+fwj+gvuThiEx3yzSZivrFBDukz/+gdyVf6BOMqXu0k1hW/aSuvV/MdP2PHObbm6Eg+nSPv3tuubJEr9OGVXJq7I5jPzF35FmdyLtbZruanzpatMxjTHtdbNqce9yt89mHnkhzhWxt7uoyt/K3W55k91VhW61Bc2e7py2vqc30G+5zLPeuXdcx+RGyIcU/c9oNzygoHRRb9zLOoMY5pYzV/j4+9PRRs62RpNwAAFGpJREFU+pk4wQEuzkV88sHWlmhn4p362pr93Mtb8rkXmz5XtmYfftnvEeISp+cL8dKXZ7k2mIuvlD1cqzhy7rzWL+sLX7SuMXS34tzCcGY9bdnGr/Y9G8GWuGYcV94fqNAOWN4inU0a4ARzK9nyrT8wpP8t0iU8HwBtZOtCSZs57rUPr5sK/frIBZ3j6ujDhM97fdDmgsv+vHb+CrN85Jj6+k9be9fok28+K1mNycmKd7FpS/vgOyuTZ+79IuG3Rjck78/6YJMGM7HwwQ7rL4U+eMDXEUE314tzsM/YtXlbzdf2tfln/pl86m/m2f6VLTZE4p4HIn189uTM3JXvM+tjNT+xGTN6KWcw5jyuX4rvzPPlGpn4Jybu93LD2NH1fXRPxecl/ifOPX1zNeecwT7nsv8wn5hSfC5pU+xf8T1x8GzQx1pKMY5pY85nzoqPI3soc/WTvudc98G9vdz1PLlIu1y7Flfn1ep8XMWmzRV2x2YrPvZ4C1x05J8YwZ4vNrRxlHP15QufewKWPHO4dk/JuVtxrrgxnqPracs2uNO+b73JX2Lei+/g2IWTIKywMAEAwVNM8EygQawW3LRx7b0P/NbiB1OObZEu1tRdYTJWHpgpLAA5YOHySdEHGBSuZ1KNCX3EhYn9KRZnexyLeRWb8/WF/T39jHFi4d5NJu3RT4x7nKz41Fb6sW/aRwcbcwN1LrGbG/uwASZ5cfPI/KiL3RVGx334t/yrl8XDzDs6cJ8CvhWeuUacm/GknZm31Xz1X5J/OV1xZe70Y0t84J6iLfPDuLoz/8xf2UibZ+aufJ9ZH6v5R7CcwZj2uH4NfOZo8ov9fL5cI6s8z7W2lxvGsigwJu0njpUdeYa3FPtz7eT4vFZ/FY+czDngmX7R2Xu2tKG/Od+5E7f9zJsycag7beytrYlDfGmD60t7KNj0kzhXOV7p5RzX82pu7sdnz8dVbPq9hEk9Wvd8eMmiz7MOW3xWMnOGzh6uo+cGNlZrePrbinOFgfiYn2sBvNpgTor92ef1tK9tcrw6D513sl2cJhsWcMoDzicBSPgqgSxM9G8pErNKJjghLBPCPUmaMgmf494bL3FlQunn27fc6AcOFB9AxhR4y4eCfmJJnnmIuc956Il5FkPatt3C7IMJHxmLdvHJXGXGaH+25gOsWeQZ++QeHfrSFxyiT9/UT/tyjX9iWa1BsTEPTDmHTTpjZ0yf2FPoZ25y5JituFgD4OBDXuif8xjD78w79+gr+EVvFZf+0vaZvLHGMnZ90p6xk/O4PptP5sAtWKaIIzkRd675XMeZ32nvzFzXRvo+sz5W8xOPz0PuD4yfwZj2uH4NfK6r+azM52trT1ntEb5pzb1E7I7l8+a5Mden6yQ5k0fGUi7xn7pcn123Z5/N6c/5xCgv9Bkj6yDFdZHPu+PYyD3C2PM8wod7G+OKOHI+Y9rI9c/1XBfqJS5j0ActGDPH9KE3/eYcsLk+MufypE9yR2zYS3H/yL2CcTFnbM4DD1iPSK6Z5JS5+MTO9M3YGc4Th9j2zg1ihgvXVPrLeFc5QlfOcv3J15H1hI0t24xpK7HkMww3ryAHM/j/PUEW5BIgwPhAIsBWgNCdSXgF0H83waLCtg+rDzc+/dDHh2Sh72KjD/LpR3hofICM53lk/b8kR33s8MFnLqbcSNRx0aV/bTEfPokJ22kLFNzTjy30WHhgpV1xP5HjR66ww4e48Sue3HjE5Rh+V7imH+7Bx7yciz375pypDya4SmzmSvvGgg64aPd4IP/GIH/My5ixDc/61S6+pt6MgXsPH+LUhjHnRgFO8swYttGlTR3iBa/zWbvEgOS6B2Nu+kfyNudzr+1nD88bELbxDw65m+tS/WyP5vOaZxLu5AV8XBO/z/bkI3Ednbu3HxxZH3M+2HL9gon7XMPoIEcxPmv/+H+vwUf+Ex/5S2xwunq+VmsNvblG4CPXOvYVbOjLfPKsuYYyn9hV1zWZPNLH/RH+9Z+tPl3zxII9Wvu45+MapP/os5m+uCZO5vPBB5/cJ7U7n1fiQy7hwC58gZW9xfjoM+erOCZ/6CKX9tC95xnf+uXaeFnve7Jaz6wJeEpBz/WDfeLFH2362IsNvs2Hayl9rK7lL32gZ27nubGVs4kLLOim4INcmFc4NMbUY679cAEvni17OZoYzDu20+/WelrZ1i829uy7PsA6487YDl6fK2w1SgA45zMTqg4LjQSg+6hCjHCwFyPj6ClyN3nTVuo6J1vnY/caYd6ZuUdxTSzEN2N305i63BvXHpdznrGcmaOfSxwc1ROTG9m0yz2bDLHPnMsROnNMu9e21+Zt+rvWjvydyc30vXcvLnXk8oi/l8zVn/HNfDt+pN3D/FKMr4GP2Phc4lSse3riWa1zecDOEQFT6u7ZPmIvdbS1F0vqv/Ta2NOffL7UtrEk55O7a3xoF1tnhTl8Mt4jNvSZeV/NU+8abCt777HPNUOMmdvEekQn9Y9cy236BMOlnByx/co61xW2l0AQKFX9/LZyaV7HH5uBvcL2niPngSc2vkGvhG+jjL/DDWAFt31loAyUgTJQBu6VgdsUthzkHPaVMpAMPGphyzdYYuPPKCvhzzhbYyv99pWBMlAGysC7Y+CfP316+ttf/vJ3XH/9zW+euKdFev9KfPzDP7w477cpbF8MqwYejgHfalIA5p8yHiVQfktEbBSxGR+/K+KnCH1b+yiZbhxloAx8UAb++utfP/3LT3/69B9/+MPfi9p/+93v2n769PRaPPz7f//vT//7v/yXp3///e9ftMJa2L6Ivk4+xAC/w+Etfn4e8TdQ/PSGH+7zkwQKXVoK2/714tAyqVIZKANl4L0z8K+//GXf1N7wTfX//V//6+nf/9t/e9EyaGH7Ivo6uQyUgTJQBspAGSgDZeC9MNDC9r1kojjKQBkoA2WgDJSBMlAGXsRAC9sX0dfJZaAMlIEyUAbKQBkoA++FgRa27yUTxVEGykAZKANloAyUgTLwIgZa2L6Ivk4uA2WgDJSBMlAGykAZeC8MtLB9L5kojjJQBspAGSgDZaAMlIEXMdDC9kX0dXIZKANloAyUgTJQBsrAe2Gghe17yURxlIEyUAbKQBkoA2WgDLyIgRa2L6Kvk8tAGSgDZaAMlIEyUAbeCwMtbN9LJoqjDJSBMlAGykAZKANl4EUMfLzCln/K9fvvX0Taocn44J+Q/fnPn/9p1UOTqlQGXsjAH//4vO74p335Z30vCf/cL3PeSs744/nxnyZ+S4xvxUX9lIEyUAbKwKszcF1hS9H2298+H6AcPlxnsUgxR/8thQMSHz/5yQ8f7vl4GDKWhzu4Pn16euLQv7XAB0X0V189+7y1v9ovAzDAc8HzyDpn/e8JuujxeYvC8aw/np+vv37Gx3WlDJSBMlAGysAFBs4XthyAHDYUiRxUFm/ffPN5cUvxiM6thcKVg3lVSHPA5+GODrpZ7N4aH/7xea/yFgVPuXl9BlhzufZXHvjyxRcvPjzLt5Zr/Pn8vGVhC8634OPWfNd+GSgDZeADMnCu4mLDp6idB6ZviGgVD7HvvrPnNq3F6qqwxeMsrt/6wPJgvk30t7VqDm/r5T6tv3dujhS2ME8cfN5Kzvrz+XnLwpa9ZGs/eSue6qcMlIEyUAauYuBcYfvtt89vH2exymHF2BSKylv/2f9SYfvWhezkwIN59t/DvdzeA9a3xvjeuTla2L41b2f9+fy8VWHLXsYb7Ba2ZzNV/TJQBsrAu2DgXGHrIXP0DY9vcm8ZqgXGpYOIwhv889DKfgp2/vROMU5hYHGw+nM8/nx7zc8wpl1jljPvOaDpYy5+4JIvAMzHH/34ox8f2Z9vxLVHix4YsEvLJwuBszHiR67kgPv0L0/6BTc/8dhbG4kDW2BkHjHmF5BL8cAXeMCGDfIGDu75yGtyxLWY8cl8WnSTK/TSPrjADUZ8HOFGPHIDJmwmN0e52IpB21u845MYt4S4iF3e1IMLuTGfc33OL7bOnc8E2OhDtvw5lzbni8H1P3NkLvd4yDzCvXlxncyc4FM+XCOTQ23QL0ZyWSkDZaAMlIF3wcC5wtYDAegcFBzyHEYcMivhMGLOPJRWutf24R8fHqBph4MrZUvXfg415nAIE5+/352Hm/15oFEkgGNywVz6U+TFwxN/CPbQpT8LLvQ94NXVHngZS78rLGdjxD5YJnb68YXP5Jc+dPG9J4kDHuEHW8Z1NB5zQM6wSb74MB8c9KfI+cQnV7NYM2+02CcnaXOLG+xMHsxrrhewXeIi8XN9hncwgH1P4Mt1lXpy5fp0bfG8Y5c5zE2Rd3UZk1vj3vKHLtxiN+dzLc9gUuhH98j6M4/YBwcYWGv2k4MUczL70TF+WmUrt463LQNloAyUgTdlYFRcF3x7qLGx54FPfx4yaYaxPJRy7DWuPYjwjx8/9M+DnTHwzEPL/qkPvtXBzyHJoZ8ijmnbAzR1uZbLWSBgl7FZaFnI5aEqbsZSVsWVukdjFCNYphjTxA4v6GdxMueKYxaY6Dl2JB75Xq07OUyutrBR5IB5K58WZTMO5qy4MU8W6hnX5N54V1xMf9yf4R1s09+ezTnG/FUBa7EKdsU4Zi4sQHMtG4NzaS0O57PDmPrpz74j6891Mm1bNE+OtvTxBR+soxT65Sr7e10GykAZKANfhIFF1bKBIzfweYB50MzDA1Ns+lvFwYarU90eRGDg2g8H8Dy0PIAnzq1+gBhbgoKLLFwYgxNinbZX89FHd+Lb8kc/dqd9i6gsHNC1sE37Z2MUIz5TXAfzgEfH4jGLkJzL9R6OM/Gs+NCXdmgRi9cZi/oWwlmQa38rFmxt2Us7+KDARjfzQf8eF2KzPcv7yp+2sj27Ple8yPeR53zlb2/dqG8ezvKwwmv8K47Up03xmXJNOSaerbWgXtsyUAbKQBl4EwZG1XLBJ5s3HzbzFN9+zLde6KA/D4mc+9LrrYMIu7MA3yoktvqx4cG6wslhx0FnEb2KdWs+uoxN2dJfxakuhQHX85OH8DUxgpFPinZ4ezX9eT8Lu9X81ZpgPv6OxLPiQz+OYQ8Rs/fq2eoXPUUb2ecY7YqbHIcDbLA2fMs5/YsLvUui7lHewTf9rXwY+xzbmr/iRRtbXKVtdbNvj0v1tX2WhxVefa9iVH/mxH72ODDNDzme+6J+2paBMlAGysCbMTCqlgt+9w6grTH680/CF1ycHvbAmQcRhuZbVQ/FqbvVjw0P1gRGPBQYHGYWcVs4VvOxtTpUt/zRv7KvbQ/9xDivz8bI/FVOtYPva8T5MwfYOhPPig/xOCZGfXqvnu3KrzaYu5IVN+ixHih+KM59k77l3/4VF9OnulsxTP2t9TX1jH32b81f8aKNLa7StrrZt8UlOupr+ywPK7z6XsWo/szJVr+22paBMlAGysC7YOBcYeufbFfQV4eTf6bzUFrNe2nfmQPHQ3EeWlv9YPNgFad/1p5vp7dwzPnaWR2qK3/qr+z7JvDIn4DPxKjPVU4p3OinsL9G9nCciWfFh3jm2CXMqz+FawO8K1lxg57PSH6pMmbWQor9+Lokl2KY87fW19Q7uz5XvJi3I3Gs/LGWwLviWn3HzvKwwisHK47Un7H4O2BirZSBMlAGysC7ZeBcYetv6ThcUjxs5qbvwT31c+5Lr7cOopVd8cxDa6sfGx6s2lOX/pQtHHO+c1aHKmNb+iv7HrYTC3YorG7xUwRs7xUi+Myiznht5W/mgPEz8az40IeFFr6UVcHJmF++ZqGu/bShLVryx2fKqt+YZ57sX3Ex7XJ/hvet9TXtbq23rfkrXswbXxCmzHW48me+VjysvnSc4WGFV4yrGNWfWNzj8L36yUHufYyT25WevtuWgTJQBsrATRhYnMw7fjik2NhzE0fdg2kWARx46N9Stg6ilU//A5B5aG31Y2MexBZCHIoW7PR5AGcxyXz7E482ZqGT/uahuIoTHQ/5/LmHeDIfZ2IUq8WgcdovFmJLnGBYxeQ82j0cZ+IRw/RnATL79Tvzox3Wagp65Dg5zPEtbsx32vM/LGQsRUxgOCJivcQ7PK6KtpUP8ebY3nwxJC/oy0fGTT/2U3flz5yxllOX9UQcMw9iuMQDMe3lccWRPucehy3WFHPmb/e5zxy6H0695LjXZaAMlIEycBMGzhW2QOAQ4hBj82Yzp+WeQ3oKB8GtNneKbGxb2NGCJQ/GxMOB6+GLrri2+rHvAcVhlge0h58HI3FapNDHvP/xP9bzwefhri6+9vxxOIudNosz8uGByxjXxAdG5ZoYmcs8MGIPu3l4c02/HOibYmZLJo5Vvo7Eg33841v/3MMLmGhXOOCEcfyi7/oBV4r92CYu7slPyhY34JcX8uy6yT7WwBEu0p/Xl3jfWl/Ot91ab3vzJy/J2ypvcOe+sOVPPOjJEfP4YN+1DY+5pi/xgN0tvHsxZpGOT/ybe8awyboAq89aPo/4dd8AY6UMlIEyUAbelIHzha3wOMg4IGhXQj8HgIfCSuee+zjkiD/jk5MvERc4wMPnNUW7q0IRP/pMHl7Dv3634qFoYH3RXtKdeMzT1tqd+lv3+l1xA+60v6e7ZX+v/1a87/k8MmacGfuReeoYl/eXWvXx+5oy85e2ffbRWeXe8ZzT6zJQBspAGXgTBq4vbPfgcajNNyx7+h0rA2cZyML27Nzql4EyUAbKQBkoAw/JwG0KW9+iPSRlDepdMNDC9l2koSDKQBkoA2WgDLwnBm5T2L6nCIvlMRnwt460lTJQBspAGSgDZaAM8H9aVBbKwN0xwNva+Xnt31jeHSkFXAbKQBkoA2WgDLSw7RooA2WgDJSBMlAGykAZeAgGWtg+RBobRBkoA2WgDJSBMlAGykAL266BMlAGykAZKANloAyUgYdgoIXtQ6SxQZSBMlAGykAZKANloAy0sO0aKANloAyUgTJQBspAGXgIBlrYPkQaG0QZKANloAyUgTJQBsrA/wNXjvNw7pJghQAAAABJRU5ErkJggg==;" parent="1" vertex="1">
          <mxGeometry x="412" y="176" width="448" height="118.13" as="geometry" />
        </mxCell>
        <mxCell id="FRESr7IEZjTQvJsylfUq-13" value="Switch" style="ellipse;whiteSpace=wrap;html=1;aspect=fixed;" parent="1" vertex="1">
          <mxGeometry x="281" y="415" width="40" height="40" as="geometry" />
        </mxCell>
        <mxCell id="FRESr7IEZjTQvJsylfUq-20" style="edgeStyle=orthogonalEdgeStyle;rounded=0;orthogonalLoop=1;jettySize=auto;html=1;entryX=0;entryY=0.5;entryDx=0;entryDy=0;" parent="1" source="FRESr7IEZjTQvJsylfUq-14" target="FRESr7IEZjTQvJsylfUq-13" edge="1">
          <mxGeometry relative="1" as="geometry" />
        </mxCell>
        <mxCell id="FRESr7IEZjTQvJsylfUq-14" value="Host&lt;br&gt;NIDS &amp;amp; Wireshark" style="rounded=0;whiteSpace=wrap;html=1;" parent="1" vertex="1">
          <mxGeometry x="130" y="415" width="111" height="40" as="geometry" />
        </mxCell>
        <mxCell id="FRESr7IEZjTQvJsylfUq-21" style="edgeStyle=orthogonalEdgeStyle;rounded=0;orthogonalLoop=1;jettySize=auto;html=1;entryX=0.5;entryY=0;entryDx=0;entryDy=0;" parent="1" source="FRESr7IEZjTQvJsylfUq-15" target="FRESr7IEZjTQvJsylfUq-13" edge="1">
          <mxGeometry relative="1" as="geometry" />
        </mxCell>
        <mxCell id="FRESr7IEZjTQvJsylfUq-15" value="Maestro" style="rounded=0;whiteSpace=wrap;html=1;" parent="1" vertex="1">
          <mxGeometry x="261.5" y="335" width="79" height="40" as="geometry" />
        </mxCell>
        <mxCell id="FRESr7IEZjTQvJsylfUq-18" style="edgeStyle=orthogonalEdgeStyle;rounded=0;orthogonalLoop=1;jettySize=auto;html=1;entryX=0.5;entryY=1;entryDx=0;entryDy=0;" parent="1" source="FRESr7IEZjTQvJsylfUq-16" target="FRESr7IEZjTQvJsylfUq-13" edge="1">
          <mxGeometry relative="1" as="geometry" />
        </mxCell>
        <mxCell id="FRESr7IEZjTQvJsylfUq-16" value="Esclavo" style="rounded=0;whiteSpace=wrap;html=1;" parent="1" vertex="1">
          <mxGeometry x="261.5" y="495" width="79" height="40" as="geometry" />
        </mxCell>
        <mxCell id="FRESr7IEZjTQvJsylfUq-19" style="edgeStyle=orthogonalEdgeStyle;rounded=0;orthogonalLoop=1;jettySize=auto;html=1;entryX=1;entryY=0.5;entryDx=0;entryDy=0;" parent="1" source="FRESr7IEZjTQvJsylfUq-17" target="FRESr7IEZjTQvJsylfUq-13" edge="1">
          <mxGeometry relative="1" as="geometry" />
        </mxCell>
        <mxCell id="FRESr7IEZjTQvJsylfUq-17" value="Host Atacante&lt;br&gt;Kali Linux" style="rounded=0;whiteSpace=wrap;html=1;" parent="1" vertex="1">
          <mxGeometry x="362" y="415" width="79" height="40" as="geometry" />
        </mxCell>
        <mxCell id="FRESr7IEZjTQvJsylfUq-24" value="Red LAN" style="text;html=1;strokeColor=none;fillColor=none;align=center;verticalAlign=middle;whiteSpace=wrap;rounded=0;" parent="1" vertex="1">
          <mxGeometry x="380" y="345" width="70" height="20" as="geometry" />
        </mxCell>
        <mxCell id="FRESr7IEZjTQvJsylfUq-26" value="" style="endArrow=classic;startArrow=classic;html=1;" parent="1" edge="1">
          <mxGeometry width="50" height="50" relative="1" as="geometry">
            <mxPoint x="288" y="407" as="sourcePoint" />
            <mxPoint x="288" y="383" as="targetPoint" />
          </mxGeometry>
        </mxCell>
        <mxCell id="FRESr7IEZjTQvJsylfUq-27" value="" style="endArrow=classic;startArrow=classic;html=1;" parent="1" edge="1">
          <mxGeometry width="50" height="50" relative="1" as="geometry">
            <mxPoint x="312" y="486" as="sourcePoint" />
            <mxPoint x="312" y="462" as="targetPoint" />
          </mxGeometry>
        </mxCell>
        <mxCell id="FRESr7IEZjTQvJsylfUq-28" value="" style="endArrow=classic;html=1;" parent="1" edge="1">
          <mxGeometry width="50" height="50" relative="1" as="geometry">
            <mxPoint x="273" y="448" as="sourcePoint" />
            <mxPoint x="253" y="448" as="targetPoint" />
          </mxGeometry>
        </mxCell>
        <mxCell id="FRESr7IEZjTQvJsylfUq-30" value="" style="endArrow=classic;startArrow=none;html=1;endFill=1;startFill=0;" parent="1" edge="1">
          <mxGeometry width="50" height="50" relative="1" as="geometry">
            <mxPoint x="352" y="420" as="sourcePoint" />
            <mxPoint x="325" y="420" as="targetPoint" />
          </mxGeometry>
        </mxCell>
        <mxCell id="FRESr7IEZjTQvJsylfUq-31" value="Tráfico Industrial" style="text;html=1;strokeColor=none;fillColor=none;align=center;verticalAlign=middle;whiteSpace=wrap;rounded=0;" parent="1" vertex="1">
          <mxGeometry x="174" y="385" width="104" height="20" as="geometry" />
        </mxCell>
        <mxCell id="FRESr7IEZjTQvJsylfUq-32" value="Tráfico Industrial" style="text;html=1;strokeColor=none;fillColor=none;align=center;verticalAlign=middle;whiteSpace=wrap;rounded=0;" parent="1" vertex="1">
          <mxGeometry x="321" y="463" width="104" height="20" as="geometry" />
        </mxCell>
        <mxCell id="FRESr7IEZjTQvJsylfUq-34" value="Inyección de tráfico malicioso" style="text;html=1;strokeColor=none;fillColor=none;align=center;verticalAlign=middle;whiteSpace=wrap;rounded=0;" parent="1" vertex="1">
          <mxGeometry x="330.5" y="388" width="169" height="20" as="geometry" />
        </mxCell>
        <mxCell id="FRESr7IEZjTQvJsylfUq-35" value="Port mirror" style="text;html=1;strokeColor=none;fillColor=none;align=center;verticalAlign=middle;whiteSpace=wrap;rounded=0;" parent="1" vertex="1">
          <mxGeometry x="174" y="459" width="110" height="20" as="geometry" />
        </mxCell>
        <mxCell id="DI_JXkwp6Ofp84gg86-r-4" style="edgeStyle=orthogonalEdgeStyle;rounded=0;orthogonalLoop=1;jettySize=auto;html=1;exitX=1;exitY=0.5;exitDx=0;exitDy=0;" parent="1" source="DI_JXkwp6Ofp84gg86-r-1" target="DI_JXkwp6Ofp84gg86-r-3" edge="1">
          <mxGeometry relative="1" as="geometry" />
        </mxCell>
        <mxCell id="DI_JXkwp6Ofp84gg86-r-1" value="Entorno Virtualizado" style="rounded=0;whiteSpace=wrap;html=1;" parent="1" vertex="1">
          <mxGeometry x="115" y="1157" width="120" height="60" as="geometry" />
        </mxCell>
        <mxCell id="DI_JXkwp6Ofp84gg86-r-5" style="edgeStyle=orthogonalEdgeStyle;rounded=0;orthogonalLoop=1;jettySize=auto;html=1;entryX=0.025;entryY=0.638;entryDx=0;entryDy=0;entryPerimeter=0;" parent="1" source="DI_JXkwp6Ofp84gg86-r-2" target="DI_JXkwp6Ofp84gg86-r-3" edge="1">
          <mxGeometry relative="1" as="geometry" />
        </mxCell>
        <mxCell id="DI_JXkwp6Ofp84gg86-r-2" value="Red industrial física EIE" style="rounded=0;whiteSpace=wrap;html=1;" parent="1" vertex="1">
          <mxGeometry x="115" y="1262" width="120" height="60" as="geometry" />
        </mxCell>
        <mxCell id="DI_JXkwp6Ofp84gg86-r-7" style="edgeStyle=orthogonalEdgeStyle;rounded=0;orthogonalLoop=1;jettySize=auto;html=1;exitX=1;exitY=0.5;exitDx=0;exitDy=0;entryX=0;entryY=0.5;entryDx=0;entryDy=0;" parent="1" source="DI_JXkwp6Ofp84gg86-r-3" target="DI_JXkwp6Ofp84gg86-r-6" edge="1">
          <mxGeometry relative="1" as="geometry" />
        </mxCell>
        <mxCell id="DI_JXkwp6Ofp84gg86-r-3" value="&lt;font style=&quot;font-size: 34px&quot;&gt;+&lt;/font&gt;" style="ellipse;whiteSpace=wrap;html=1;aspect=fixed;" parent="1" vertex="1">
          <mxGeometry x="296" y="1199" width="80" height="80" as="geometry" />
        </mxCell>
        <mxCell id="DI_JXkwp6Ofp84gg86-r-6" value="Banco de pruebas&amp;nbsp;" style="rounded=0;whiteSpace=wrap;html=1;" parent="1" vertex="1">
          <mxGeometry x="437" y="1209" width="120" height="60" as="geometry" />
        </mxCell>
        <mxCell id="b3pnO662u0tpKJPlmEd1-1" value="" style="shape=image;verticalLabelPosition=bottom;labelBackgroundColor=#ffffff;verticalAlign=top;aspect=fixed;imageAspect=0;image=data:image/png,iVBORw0KGgoAAAANSUhEUgAAAYAAAAEeCAYAAACDq8KMAAAgAElEQVR4Aey9eVBXS373P5Wq1CTPJJVJqlLPVCrJH7/K1OR5MpOZ5JkkM8msd+7i9V6d6+71um+gyCLghguLIu4iggKu7CIqICKCiOCGuO/7vu/7isv7V6/Gw0VEZRW+0F3V33O+53T36f70Oe/3pz+9fUfWWQlYCVgJWAm0SAl8p0WW2hbaSsBKwErASkCWAOxLYCVgJWAl0EIlYAmghVa8LbaVgJWAlYAlAPsOWAlYCVgJtFAJWAJooRVvi20lYCVgJWAJwL4DVgJWAlYCLVQClgBaaMU3l2I/fPhQR48e1ZUrV/Ty5UuVlpbqwIEDys3N1b59+/TkyRM9ffpUu3fvVl5enrn37Nmz14rP/RMnTuj8+fMmDe4fO3bMpLF9+3bdv3/fhD906JBJY+fOnSZdJxGee+nSJa1du1ZFRUW6evWqc+u147Vr13TmzBk9f/78tev2j5VAY0nAEkBjSd4+t14ksH79evXp00dZWVkCuAH6mTNnKjo6WrNnz1ZxcbEKCws1ZcoUzZkzR5GRkSaM83DAe//+/XJ3d9fChQtNGkeOHNGsWbM0b948RUREGGDfs2ePiUua+A0bNjhJGPJZvHixSZ94S5Ys0Y0bN8rvcwJRhYWFadKkSeYZr920f6wEGkkClgAaSfD2sfUjAcDbw8NDaWlpBmQB3wULFpjEly9fLoB5zZo1KikpMdp9fHy8kpOTyx8OAVy4cEEjR47U3LlzTRqEnzFjhm7fvq0dO3Zo48aNhgyI+/jxY+Xn5xticBIhD6Ghobp3754OHz6s6dOn6+DBg85t89xdu3apY8eOGjNmjCWAcsnYk8aWgCWAxq4B+/w6SwCQz8zMNKYaQD82NlZ3795VVFSUIQOAGXfnzh2j5QPwlV12drYhiwcPHmjdunXy8/MzoJ+YmGjAPCcnx2j+q1ev1qJFi8RzHAfY08LAVIQ5ilYDROA4zD4QU0xMjMkPrQHrrASaggQsATSFWrB5qLUE0OAx1WRkZBi7PNo4ZhjA1tvb2wA+YR49eqRVq1YZ4L5+/fobzyM+wA44Y8vHJLRp0yYD3EuXLjUmn2nTppmWwdSpU01fgJOIQwAQDeYjTEQccdj7ly1bZsxHEBVxK5uHnHTs0UrgQ0vAEsCHlrh9Xr1KAHAH7FesWGEI4Ny5cwacsf3TD4DZBsCncxYtn5ZBVY749AGgxaPtY8bBYesHuPFJSUmiI5cOZp7pOEgH2z6dyadOnVJ4eHh5C4BrmJzGjx+vfv36qWfPnuXk4MS3RyuBxpKAJYDGkrx9br1IAAKgYxctG+0d+zz/t23bVk4MaPejR48W5pu9e/fq5s2bhhQqkgF9CJiOMAFh86fDdvPmzQb4uZeenm76CGgVYBaCDIhPP8Hx48eNCYgOacLRAqDTGLKAABiJBLGkpKSYvgLiWGcl0BQkYAmgKdSCzUOtJQABoKUz+odRQAzBxN6OuYbj2bNnBTDTSYtWDzlgp8dsQ2vBccQH3BlGCkDTp4C5Ji4uzmj19B9ABNj6ucawU4Cf4aJ0DG/ZssWYh0ifjuOTJ0+Kjl8IxXGYhWiJQArWWQk0BQlYAmgKtWDzUCcJYGevOLYejRs7O3Z/HMSAts41tH9HKwfsHVc5DcIQFgCHZHCkxzVnXoCTDvdevHihW7dumeeQFs8kPNcdxznXnfSc6/ZoJdBYErAE0FiSt8+1ErASsBJoZAlYAmjkCrCPtxKwErASaCwJWAJoLMnb51oJWAlYCTSyBCwBNHIF2MdbCVgJWAk0lgQsATSW5O1zrQSauAToxL58+bJZJI8hrRU7tN+VdTrB6SB3wtPpzf+KHfVOfMJUDEsneWVHZ33FDvvK9/lPPCd9jsz9YIkP0nbuUxb829IiL04a5JkOf0aKVZy5zSgzFv5zBhhUzAuDA1hQkBFjlR3PJB7xnWdw5LrzLPLLiLKKjnsNOXDAEkBFadtzKwErASMBQI/lLiZMmFA+fJbVVavjGHpbUFBg5kEQHkBkQT5WXK3sAD2W5gA8ATuG0DIpzxlpRXgm9bEqa1XOmbfBhD+G7wKWDOllEiDDfhl2ywxt4rO+E7PEmd/hEANpAubEIQ2W7cCxlAdrSjHsd+XKleXzPRjmS7pMBnSWGCH8xYsXzTBhhg4zR4RyOQ6QZ6gyEwSdYcLcg2CYt8IQYp5F/kjXmZ9CHvnPvBRk0xDOEkBDSNWmWWMJ8OExeaqiBgSQsLQzY+orflBO4sRhLD7LNAMuVWmPTliOaHhogHzQAARLQ6CV4XgGY/orO55LHhha+i5HvgER0iE/Fcf/Ew9Ao3w8vzqOvL6vPNVJp7ZhkEtQUJABLOZHsD4SE+WYYEfecACuA1b8B7CIx1IarMjqyBMZAm6AcUUHMDI7m8X8mDOBY9Z0p06dzHVH5iz1kZCQYIik4vtBeECURfy6dOlitG+ez0Q8lvUgzwAuzyUNCI26B8CdpTpIA4Jizkjnzp1N+SC/+fPnm/ISF3AGwCk/E/2cxQKRCw55sBot6TLnBKBn0p9DMrybkydPNhMRuY4saClAbMQhPPmFDJiAyMKFOOJ98cUX5pq50AA/lgAaQKg2yZpLANAAlCtqVXxMfBisxcPCbnzsjgNg+dCZlQto8GE7gOGEqXwEmNHQ+JBZ7gFQ4ANkUhezhUNCQsoJgbgAMMtDAGaOGYD8VQR3NDP+A/yADeky6awy2PGxBwQEGBIgXYAT74Ap1wAi0ucaE9UgKAfwABMnD+QN8wGaK9ecNCqXty7/0WgBKjR38sAcCrRnZlMD3IB6amqq0XqRH/mm7NQhy15MnDjRTMIjD4Ay9ecAppMvCB6gRb7UMWYbZwIedeSEp465j0x4bkVtGDmgBIwbN86YawBN6hiyJRzvCOBN/eAwZTFJ0CEcriE/yku90QKB2IhHi4CWDO8hkwcBaloGmHEoJ/tL4JAHskDzx/EuUS6n7mg50ZKgrpxZ4+wpARlQLtJGQSAdZIHGz3/S8fT0NPkwCTfAjyWABhCqTbLmEkCrYhVNNGSADc81PiQ+LtbRAeQd+ykAyz4AaIYABJrZuwiA9PjYABZnMTY+ZD5ygAvg6datm9EEHaBl2Qi0UwCD+IAI8Xkm+QRg+LhJA4CDQCAyHx8foz072j7PAwDc3NxMK4GWAlol5ELrgrQxS6DJkj5AB8AMHDjQAAbkABAzE5k8QxxozsgGGTn5rbnU3x4DoKQFQFkAQwB21KhR5Vo2ecVTbsqP1gpAolmzbhJxHXPK2wgAgCccy3ig+W7dutXUA0BK/SJnbPAQPO8AE+2QVWUHYLMWE8/jWcgQ8EQ2LAhIPeIAWECb9JBjRUe65N/ZAIj8UHZmfeMBftJEk6cueVcBbiddysB7iONdRHFx3kfqmHeI94C6hUgpH/Xn5I13ifIjO9aTggSQL/+pd+e9Nw+oxx9LAPUoTJtU7SVAc93X19d8vAA1TfKxY8eaj4APGY2SDwdtkw+eDyMwMNA0vflAAXC0ZD4kPrTTp08bjdL5cAA0Piia2RUdmhgtAYCB9BzTBYAAUKDNAkh8xHzgAC82aj5KwA4gJ7/c8/LyMhoj+XTIAPBG+wdQAA5ADzAHTAA4wBXQ4UiaAAMfP88MDg42mimy4T6kQLkhkGHDhhnQA4R4Rn075EyeAXjIyekPQINFZqyWCngDbOQLTZkWEI7F8YiHNo4DlJE9AOc46oXyUg6ew34MEDHgSRkhOVobAD/1W3H5bScN50h9834AnMgCeTqb/7AGFHXHe4Fs0boxv1R2tGBoDRKXlhjlgtho3VG35I0j7xnvCuXDHIaDWChLxRYA5O6YgJAH6fHe8s5AHqRDGEgNR52SPmUgHOXhfWRZct6Diq1fE6GefiwB1JMgbTJ1kwAgN3ToUPNhAYx8fHy8fMiALh5A5kMkLAQBKACkAAStAz5+PjpMJwA3YMKHjUPjIy2a8zia/GjOmAoAceKTPmkC8IRDk8S2i3bHx8pzSN8hE8KjxaHV8YHyYfNs8k9+WTEUwiF90iE9Ovwc7Q6TEECKrRwSAUAxV5BnNGqeCbiheQ8YMMCAAjIhb5AM5oqGcoAkWjWgicNMAtBTZggAQoLMMKWQH84BUIAbWUKADgEga4iV1hHEitzJu0O2lNfpCEWGyAtQJR6gOmjQIFPfyL4qcxf1AVgCnpiRkDVAThlID6CGdKkPWnGkAwFxhBhw5BsigqQAYMrHu0YY6pP3jPxS17TsSJc6Jj9o+hAV7wJlQ0YoFU5HNgQAoJMf5IVs8MiMuOSP5yFX/iMjh6woO/VvCcBUk/1prhJAyweg0b6cjxJg4UMCkPnY0Or5kBiZgsbERwlw0twG7J0PGrMBHxrhuYbDHktYNFEAg/ikC8hCKMSHdLBL83HT+kDzJV9oZmiOhOXjBADIK/EBdTRMPm7yBfhxjY8ekkLDJT4fNwDEc4gLGOL5uAEu8uyMFCEN8kQ65BWbNqAIqHEPsMRcQRkaylFGZEXrxXEQFzICmJEvcidfkCjl5z8yomUAeRAOB3gBnoA0YSgXRIb8nNYL9QTRAoxo0479HLMOWjD3AG/y5bwfTr5IH3kgQzRq6gqCJG+O7AF38kX+0eBplQDmjpkGsKa8lAvyAfzJM6QHsNN/xDVIGu2ftDHfYBqCpKlf3hveV8AcwiEOz6EOKTfpc48WDnXK++n0ZdF6JAzlrGie4pkQWuUyO2Wv69G2AOoqQRu/XiSApszHhibmOMwKfBQ0l/kQ0K74ePjQ+NAhBTR2NDQ+EudjduJXPmIuQUvlOZAB2zMOHjzYAAHmBtJBG4VYsPUCLAAxmj9aOs8CUAhHeMCJ/4ABaQJUgDr/MZUQh+Y7oOL0HzCsj/QoF0fMQmh7EA15ghxIE+ClrMQjPlol2jD5AXCRAceGcgAwxFRR8wSkyQ+gBUhCQIAg5zjIk/JBVIAbZIkD5CFJZEad0UoChAHzig7CIBwdvY7pjvsAO0DKdfJTGQzJF60N3g8cgIxMeRZxyS8tDp6PR+MmHfLo5J088h/tHwchQLQQLiDPM7nGO0kayIb3DXlwnXToD+I9hAzIC/l1wJyyUccoNbRSkBXvGs+FKMgr6UIcTh7IB/GrIj2TyXr4sQRQD0K0SdRdAmiQfPwVQZxrfBx8mHwwNLc5x47KOdf4AAF2rlcEjapyxMcGIPChAbaQDho5mi3xHXs6YIMGz0fPR0weiMt1tFbiO7Zb4jkfr2N2IDwtGUABkAaAAAnS5IOGGHguaRGH/wAUeYJ8KDdxKCfAQVkJBwkCHgAH6XJunZVAXSRgCaAu0rNxXVYCADoOkK4JkALGlTXQyv+rIxTSwVd0EFjla7VJu2Ka9txK4F0SsATwLunYe1YCVgJWAs1YApYAmnHl2qJZCVgJWAm8SwKWAN4lHXuvWUmgtPSp6SC8du2qrl+/1qD+zp2ydWmalQBtYZqdBCwBNLsqtQWqSgKMSMnPz1No6HgFBo5RSEhgg/igoHEm/fnzY94Y5VJVvuw1K4HGlIAlgMaUvn32B5NASclWeXi4qU2bVvryy8/Upk3D+D/+8XN9+unv1K9fLx0+fOiDlc8+yEqgNhKwBFAbqdk4LiUBRtKsWpWlfv16yt29rwYPHiB393717t3c+sjHx0N+fp4aPXqEGT7qUoKymW1xErAE0OKqvGUWOCcnW126dJCX12DNmsW68PXrIyJmasqUSfL19ZKfn4dCQsZZAmiZr5pLldoSgEtVl81sbSWQlbVS7du3VUxMtJnEdfv2LdWvv20mjUVGzpKbW18FBY02M0hrm18bz0rgQ0jAEsCHkLJ9RqNLICsrUx07ttOSJWVrtjdEhliSYPHiBca0FBgYYAmgIYRs06xXCVgCqFdx2sSaqgTKCOArJSbGN1gWWe6B0T/0L1gCaDAx24TrUQKWAOpRmDappisBSwBNt25szhpPApYAGk/29skfUAKWAD6gsO2jXEYClgBcpqpsRusiAUsAdZGejdtcJWAJoLnWrC3XaxKwBPCaOOwfKwEjAUsA9kVoERKwBNAiqtkWsoYSsARQQ4HZ4K4pAUsArllvNtcNKwFLAA0rX5t6E5GAJYAmUhE2G01KApYAmlR12Mw0lAQsATSUZG26riwBSwCuXHs279WWgCWAaovKBmxBErAE0IIquyUXdeXKsqUgkpMbbimIx48fa+HC+XYmcEt+0Vys7JYAXKzCbHZrJ4GyxeD+qAUL5unu3bu6e/eO7typD3/bpPXw4UNdu3ZNsbFzNWiQXQqidrVkY31oCVgC+NASt89rFAmwHHTnzmXLQUdGRqjMzxKrd9bVh4fP0LRpkxUcHCg3t/7y9HTX+PGBOnTocKOU1T7USqC6ErAEUF1J2XAuLYG8vFwNHNjn1YYwbAbTt148m8t8800n/epX/6mf/OT/6De/+W8NGNBL48YF2P0AXPqNaRmZtwTQMuq5RZfy3r17WrFimSGAdu2+VLt2X6h9+y/rxXfo0FZffvmpfvObX6p160/Url0bs+XkkCHudjnoFv3WuUbhLQG4Rj3ZXNZSAizRvH59gWbPDpePz2C1b99GX30FAbSpJ/+lWrf+2KQ5apS/PDwGqGPHtgoLC9WlS5dqmWsbzUrgw0jAEsCHkbN9SiNIgM7e/Py1mjp1skaO9NewYZ4KDByu4OCRCgqqqx+hkJAAjRo1VF5e7mYP4GHDfNS9exdNnjzRaP8vXrxohFLbR1oJVF8ClgCqLysb0oUk8ODBAxUU5GvmzGlmH2A0/h49usjNrbfYvJ3+gNp6d/c+Jo3+/XsY8A8OHqvhw33VtWt7BQWNsaYfF3pPWnpWLQG09DegGZYfm39BwTqFh0/X6NHD5eHRXwMH9qqXTt9Bg/qaYZ69e3+tr7/uKD8/H7MRPOQyYUKQDh48IKv5N8OXqpkWyRJAM63YllqsBw/uKy9vjRmWCfhj9gkJGaUpU4IUFjbO+EmTxsnxZdfGKizs/X7SpLEm3tixw+TrO0Rjx46Un5+Xevb82gz7PHzYDvtsqe+dq5bbEoCr1pzN9xsSYHLX2rW5mjt3ttH8u3fvJDe3Xho61F0+PmXez89Dw4Z5afhwbw0f7iU/vyHy8XGrtvf2dpOvr4cCA0fJ399b3bp1Mpq/Bf83qsNecAEJWAJwgUqyWXy/BND8V6/O0pw5s5Wbm6VZs6YZG7+Hh5vwDMvEY7b55JPf6bPPPjK+c+d28vAYaCZvDR7sprf7gRo8eKB8fND8R8nPz1udO3+loKCxOnLk0PszaENYCTRBCVgCaIKVYrNUMwlg80fzj42do+zsTG3dulFr167WypXLlZm53ByzstKVkbFMc+ZEKCBgmIYMGShG7cycOUXp6WkmHuGr8qRB/DVrVikhYZEB/65dOygkZJwOHNivly/taJ+a1ZgN3VQkYAmgqdSEzUetJPDo0UMz1HPhwlitXZut7duLtWXLBpWUbNKOHcXG79pVIvzq1ZnKzFym9evztGpVulasSDUewtizZ3t5eCeec9y5c6t2796uvLwcBQUF6JtvOhvN//DhQxb8a1VrNlJTkYAlgKZSEzYfNZYAQz2zs7M0ZcokpaYmKT8/R7m5q5STk6U1a771XMvLy1Zc3AJNnBikCRPoDB6vsLAQzZs3Rzk5K8194lWOy3/SpQVAywGzT3DwOB08eLDG+bURrASamgQsATS1GrH5qZYEbt++bcDf3b2/3Nz6KSBguIYP9zPj8RmT/zbfp093s3QDyzZ069bRdOQyg3f48KEaMcLXeM6d+FzjfMCA3mbmMOCP5m+dlUBzkIAlgOZQiy2wDPv27dXEiSFm6QWWX2BxNyZ4vW2RN+4NGtTfhMf+jyceSze7ufWVO/eGuGnwq7ScdAYP7q9evbqpVas/aNSo4WacfwsUty1yM5WAJYBmWrHNvVjXr19TdvYqhYdP04wZk01nLh267/dTFR5e5mfOnGrCh8+artCgsfLt21Nj/XzK0gsvu0eYyZNDNXPmdO3du0fPnz9v7qK15WtBErAE0IIqu7kVlYXezp49qzNnTuvs2TPV8IQ7bcKXxSmLd/7CeW3JWa3Z/fspa84cnTp5XGfPnX2V3mmdPn1aV69etR2+ze0FsuWRJQD7ElgJSDq/Z48SPT21LXWpZLV8+060EAlYAmghFW2L+W4JnNq+XXFDhqg4NVWlT568O7C9ayXQTCRgCaCZVKQtRt0kAAEkeHtr24oVelZaWrfEbGwrAReRgCUAF6kom82GlcBJSwANK2CbepOUgCWAJlktNlM1lQBLMM+fP19nzpypaVQTHgKIty2AWsnORnJdCVgCcN26e2/OC44VqPh0cXm487fPK3V3avn/t50s37tca46s0bpj694W5J3XL9+7LL9MPw3NGCr3pe5af3y9Cb/x5Eb1T+mvWUWz9ORZmZ1994XdGrxssNzT3JV1MOud6b7r5o4dO/S9731PYWFh7wr21nvHt25VnJeXtqWnWxPQW6VkbzQ3CVgCaG41WqE8UZui9L/H/m89Ln1srn4a/ak6x3U25y/10gB8ydmS8hhbz2wVJDFm9RgF5wZrzuY5AqBP3zxtwpy9ddYcSe/CnQvmfOf5nco/lq/S59/azR+VPtL2c9vVdn5bLdu7TBBC0YkiTVs/TVtOb1HKrhRBMrj5W+draPpQ8eygNUHKO5Jnrtf0Z9CgQfrOd76jH//4x3r06FFNo+vYli2K8/DQdtsHUGPZ2QiuKwFLAK5bd+/NOeD6UdRHKjxRKID66/iv5Z3urRcvX2jxtsXyy/DT8KzhBpyLzxRrxMoRmpA3Qd8kfKMFWxeo46KOClsbpglrJ2jbuW3yXO5pnnng8gENWzlM60+s1+js0SaNyI2Ruvfk3mt58kn30dX7V821fkv66e7ju+X3n78om1C1sGSh4rfHm+uT101W8q7k8jDVPdm3b5/+4i/+whDAd7/7XS1YsKC6UcvDGQLw9NSOjAw9t53A5XKxJ81bApYAmnH9xmyJUcSGCKNZA+wzi2YaQH/24pl6JfUyJb9y70oZEawcrhPXT+jGgxvqndxbtB48lnuYMItLFmt83niNWjXK/D9145SGrxyuI9eOyDfD12j5O87v0ONnZS0NR6RDlg/RmVtlNvleyb1eayU4YdL2pOlXEb9Sz6Seml44XeSnpq53794G/GkB4H/961/r5s2bNUrm6JYtSvTx0Z7sbL149qxGcW1gKwFXlYAlAFetuWrke+7muQbIY7fEavr66Ua7Hrd6nN5HAJADGj22eRytBQgAu77z32OZh45dO6Zzt88Z233ijsQ3CIAwp2+VmY8w72DmwdES2HdpnzmP2x5nWh0nb5wUpqOaum3btumv/uqvXiMASCA+vqxVUd30yglg9Wq9sBPBqis2G87FJWAJwMUr8F3ZR/vPOpCljac2GgJAu8Ys8z4TUNf4rppXPE/tF7Y3LQb6A9DwE3YkGM1/cNpg+Wf6q+hkkQKyA4wJKGpj1BsmoEFpg3Ty5kmTxduPbmtS/iQNSRti0thwcoO5vqBkgSCo2rinT5/qm2++0fe//335+vrql7/8pdzd3fXDH/5Q//zP/6xbt25VO1lLANUWlQ3YjCRgCaAZVWblolx/cN1o2/ef3te1+9eMCcbpvH1XJ/C9x/dMxy0aOZ3AmHxwdPQWHC/Qg6cPym37EAOdwM+ev2k2oUP56fOn5dmij4BO3oNXvl1L/+bDmyKftXEM+Zw4caKOHDmiJ0+eqGPHjjp27JjOnz+v0NBQrVtX/VFMR4qKzESwPbYFUJuqsHFcVAKWAFy04my2Jcb+O479Ab766ivt37/fuaRnNbDlH1y3TvGentprCaBcfvak+UvAEkDzr+MWUUI6fWkBVCSAmhT8QH6+Ery8tG/NGtsHUBPB2bAuLQFLAC5dfTbzjgTqSgD78/PNKKCDBQV6+fKlk6w9Wgk0awlYAmjW1dtyCldnAli7VolDh+rQ+vWWAFrOa9PiS2oJoMW/As1DANeuXVO7du1qbQIyLQBLAM3jZbClqLYELAFUW1Q2YFOWwKVLl9S+fXsdPny4Vtncb1sAtZKbjeTaErAE4Nr1Z3P/SgIXL15U586dzZDQmgoFm//uVauU4ONjTUA1FZ4N79ISsATg0tVnM+9IoE4E8OKFdq5caeYBHC4qsn0AjlDtsdlLwBJAs6/illHA+iCARF9fsypoy5CYLaWVgOym8PYlaB4SYPZvhw4damcCogWQmakkPz+d2Fq2XlHzkIothZXAuyVgWwDvlo+96yISOHXqlJkIdvz48Rrn+KULEYCdo1Dj6rUR3iEBSwDvEI695ToSgAC6du2qEydO1DjTgGpDtQDOnj2rzMxMpaen69ChQ+/N28mTJ8WQVha6q7jUhRPx+fPnoqyEq8pxn3WR3kcUpaWlZsQULSfSu3v3270anHTJB3l+/Pj1Zb6d+/bo+hKwBOD6dWhLIBkQqy0BALTbli83E8Hq0wR09OhRJScna/ny5Vq2bJni4uK0Z8+eKoGdSgS0T58+bUhs1apV5typXNY1Ip8Qw5IlS5SYmGjOKwM9gE3ce/fKNufhPnErh7tz544iIiJUWFj4GgFAIM4aSlu3bjVhnL0VuFc5HSd/9uiaErAE4Jr1ZnNdSQJ1aQE8f/ZMxampShg6VCdKvt0is9Ijavw3KSlJixYt0v379w14s04R4Lxx40YBwID0hg0bzBaWaOCbN2/W+vXrtWbNGvXq1UupqWX7N0MKCQkJhkTQ2NPS0jR27Fiz50F2dnb5stcAN8/r1q2bmRAH2UA+CxcuNCujVtTkef60adPMs9hRDdNZQUGBIRaexUqr5Gf69Om6fv26+Q8hPHz4sMZysBGargQsATTdurE5q4EEMP106tTpraaRdyUFcBanpCjJ11end+9+V9Aa3SNPgCmgDBBjtsHPmTNHu3btMn7UqFHavXu38VFRUQoKCl0UCsEAACAASURBVDIAHxAQYAAZIKblgAmJNAD/2bNny9PTU4A/WjxHtHM84fz9/Y1WP3XqVEMUmKBmzpxpSACiefDggW7cuKG5c+eaNEk/KytL3t7eJm+ck2eW046JidHevXtNq6O4uFiYjqxrPhKwBNB86rJFl4QZwEwEQ1uuqXMIIMXfX2f37q1p9HeGR2NHk4+OjtbixYuN3Z3/GRkZ5j8b2KChL1261HhAmRYA1yALwDs2tmzDHMAX4pgxY4bZ95h8Y2LCHOQAMyDNs1gem3j8p0+AfZKnTJkiSCYyMlIHDx40z4BUyBcmKrR9WgKXL182JAMBjB49WmFhYYZkquqTeGfh7c0mLwFLAE2+imwGqyMBbN+YPuh0ralrKAKAlPCYgNC8U1JSjGcbS8wvaOjY88PDw42GvnPnTgPaaOCAOJvboN0D5Nj+Mb9ghkGbx7yExs8R7xAAJqVZs2aZPZGJV1RUZExNaPKQCuYewP/ChQtG2wf40fZpWUAOtDggLc5zc3NNS2P+/PmmpUB+LAnU9O1q2uEtATTt+rG5q6YEmiIBkCf2JgbQAXI0bUCeTtWQkBCj3QPcK1asMNo3mjctgLVr1xqiwAYPoaHlA9C0EgBsgB3Qh7ggFUjEIYADBw4Y8sD8REshMDDQxIM0SM9x9AEA8jybPHLENEVfyrlz58w5BICJ6cqVK9q+fbshCloltiPYkaLrHy0BuH4d2hJIZrhirVsApaXajCbt51evJiCAEhLARAP4Y+vHoc1jysFMg7t69arRzGkpcJ1ZzYAwmjqOc0AesxFgDLhzD23caWXQGsBh7oEEAGqIAnMPZEFLoGInMOHID1o9aXHkv9M5zTnmNI6QC8+CBBjZ5DzLPND+uLQELAG4dPXZzDsSAPQYBgpY1tSVPnmiDYsWmWGg5+q5D6Cmeamv8AA2ph0IxTorgbdJwBLA2yRjr7uUBNBUv/76a2PbrmnGSx8/VtGCBaYFcLEak7Vqmn5jhIcAaCkwhNM6K4G3ScASwNskY6+7lAQggB49eoh9AWrqDAEsXKjkYcN0+ejRmka34a0EXFYClgBctupsxitKoD4IIMUSQEWR2vMWIAFLAC2gkltCES0BtIRa/nBlpOMb8xkT5hzHENlNmzaZjnenI5zOc67R6Y7ZraJjlBYjvujkd0ZO0UJlbgbDcemIxzEklzToYHeuOencunXLjBxj6LCzvIdzj8ECJSUl2rJli+nroQO/ps4SQE0lZsM3SQkwvPKbb76plQno6ZMnpg/AmICOHWuS5bOZ+nASALgZ8cSsbIbd4hjNxYgqJsUxzwKFA8/kOa4xO5ulNxygJw4gP2nSJM2bN8+QA/MrmIvB/A/mgbDsBwTCfa4xVBciYJQYjlFiDP2dPHmy8eSFkWI4yIZRXsOGDTNDdUm3NgMgLAEYcdofV5cAmhAzgRlLX1P35OFD5UdHm07gy/VEAI8ePTLr8aDd4RiCiRbHLGAmc3Efz/BMPnIIzBnL7+Sf/8zMZWw+jv8sy0B4wAONEMBx0mWcf8WhnoAEcZlNvHr16jfIkfj5+fkG5BhOituxY4f5zzOYCewMVXU6lZmX4Gi/JkIz/IEAGFU2btw4A9gUkXpjNjVaNvM0GFrL2knInGv8Z6hvxTpEo3fAG/kRj3keDK+lzvLy8kzdMOmPemMuBpPunMX3WDsKUmAkFy2M0NBQM1GP/EASzPNgiDGtFCYa1qZeLAE0wxe4JRaJZnX37t3NUso1Lf+TBw+UN3u2kvz9dbkW+wlUfh4fIuDZs2dPs6wDoOCsrAlIMOGK/4RBg0QDBBjQKB1HGvxnzR8mauHQKNFCWbuH8AAQmirnaIOky0xgRwuFfAAt0mfSF+sSOSYNAATAYaIXs4QJw3wANFmABUBj8poDRiwNPXjwYHO9Isg5+W1uR+TPukrIDAfQ4gFqNHHkBfBDFnjkBWly7jjSAPRpMTjnLOJHPVEvtCpYjZU6pfXAu8F8D8AcxzXqB/CnHiZOnFi+1AmEQstj0KBBJi+QSWUTkZOPdx0tAbxLOvZek5YAHwgra+LQjPv162c+UD4ONGRsr9VxDgGkDB+uq7XYT6DyM3g+Wh6LsgEifJjM5uWjB5wBCmbw8tGicWP3BdQdcwPpEY5JX6zfA7gDICtXrjQAjR2ZeNh+afoDGrQmmHEMGRAWR6sCDRTTA1okGiRDQ3FOeLRUtHwIgnQAJ2THNRaNw5EeLYVPPvnElKElEABlZPa1Q74QLWAMWHt4eJjZ1siGegLkqV+ntWeEJhkyyMnJMQTAO8EaT6z9xDsB+RKHliuEC7gzO5zZ104/AO80hEwrEALGnEQ/hPNc6gmShvRJA4XCIX8nD+87WgJ4n4Ts/SYrATSoH/3oR3JzczNakLOEcqtWrdS6detye+n7ClDfBOA8D8AHlNHoAFe0Rs4dbdzR2LDrov0BJJUdAAI5oFnysWPzxSxA2keOHDGAgQmBuJAB4OKAAC0IwtKRSFjIxDEnEcYBGgiFVgDaKCTh5+dn4vE88gZIYQIB/JiNXNHMVDm/zeU/BABRI3scMoKw8VyDGGhFQcK0Erhf2VFn1B9rPUGimOEgWBzvLuAOEfBeQLgszMfkPaczl/qj9YDZjXeFunEWO4RQMHc6dU0a1BHXa+IsAdREWjZsk5IALzsa1Xe+8x396Z/+qf7+7//enPOfj6G6riEIgA8TbRz7O0DLx8zHzwfu6+trtD/yDyEAqhCFY26pmG9n1VDCEmbo0KFGs6c1AGCg/QHyaKdogWjqjnMIALMPNv6KBOCEQWtF00V7ROPHlEZrgSPgAylQDjzxOTomCieN5niEACBt6guHuQ3Qx3aPvJA9/TeAMnWMfKk/wNsBcAgA0KdeOKe1ivxIA6KGSCAIFALMb/zHo+UD+KQJSRCGzmHMhbTgIHTeKfKAx5wIydB6cAihunViCaC6krLhmqQEaCb/4Ac/KAd+wP/jjz82Jo7qZvhDEADNeMAAbRptGxDBxANgo2k7oFE5zwCF07kI0AAgOAAasHC0fgABoMBc5GiBmIAYbYJ2iakHmzH2ZMdhVuDZABnx0VJpKQBWxIEA2MAG4Bs/frzpZKd10BJmFyMLZAzB4tDCsfMzWgdSQBOn7pALcqLzlo5jRvVQ1zjqATMl9Y5MAW4InTRQBgB9zJSAONeoS/p5qAPSgZAhHtKHROhwZugnncPUF/Gpb+6h8FTX5Gky9+rHEkBFadhzl5SA0wpwWgKAa03c4/v3lTtrlpkJXB99ADwbTQytnCY+HzImGv4DGmh1aPN8+Jh0OKLh0aRHIwcoHEdZaN4DSNh80cLR9AAc0qYlAClwjXCYLQAJtFFABGAhHGSBlgjA8BxMO5iRsDtDAhATwwgJB5iQJ2zOkAj55x52ap7lDEV08thcj7QC8I5DK0cOTksNEIZE6WPBBIScnNFdxOEdAPgxFTmaOUt6U8fEc4iaaxAMpMs1TGykhSMuigJ1Slq8B8jfSY93hfSc8E5eq3u0BFBdSdlwTVYC2FP/8i//0rQCPvroI/PR1CSzD+/eVfa0aVoyYoSuvRpyWZP4bwuLxoa2xkcLQNDJCyCj1fNBO4AOMAPoaOlokXzQjiM+4IzjY0ebJA3szqRBy4F06ewFuAEL0kHTBzzQYiEcgBvw5zppEo98oD3yfFoZgBtx0Sq5Rv4ANMfR8YxGWxEUnXv26JoSaHACcBjNYcbGPMKseJjUYVDXrDab68oSYGQGLQCa2DV1D+/cUfaUKVo6erRu1GJDmbc9D+DHO453H4B29tV1zAJcw6zCu0kYgNtxxCec49A6CV/RDo/2R/Pf0cxJh3A44tMHAHnwzgPePIPvknO0WeISxnkOmij5qQj0xOU+3n47Tm24/rFBCYAXbdcuJpYsVWpqipYubRyfmrpEy5enKSUlSeHhM5SXl6tHj+zm1q7/+n5bArRtVgN1RtZ8e+f9Z4YApk7V0jFjdKMWy0m//wk2hJVA05RAgxEA4F9UVKjY2LlKSlqs5OR4c+T8Q/rExMVaujRJqamJCg4eo48//q3CwkJfs7M2zaqxuaqJBNCaHQ24JvEIW04A9dwCqGk+bHgrgQ8tgQYhAJqJBQX5iowMV0ZGmrZt26ytWzequLjoA/sN2rGj2Pj4+IUaPHiAvvqqtWbOnG4J4EO/aU34eYYApk2rdxNQEy6yzZqVgJFAvRPAw4ePtGFDkebOjVRm5jID+Bs3FmjDhnUf3G/atF5btmzQwoWxcnPrpz59uqlnzy6aPTvcEoD9AMolAAGswgQUEFCvfQDlD7AnzUYCL148N301Tn9iQx5LS78dPdRQAqxXAsDss379OkVFRWjlyhXasqVIjQH+RUX55rm0OuLiFsjdHfD/Rp6eboYAIiLKZkc2lFBtuq4lgQeMzw4NVdqYMbp5/rxrZd7m9oNJ4P79e8rNzdHs2bMUGTlbUVGRDeJnz45QRES4cnKya9WnVROB1BsBAP4bN25QdHSU0tOXNQr4A/yOLy7eIFoAY8aMVNeu7TRkyAD5+AxS9+5dZAmgJq9I8w/74MYNpQcFafnYsbpdxZT+5i8BW8L3SQDNnz7NgQP7qHXrT9WmTasG8p/ryy8/00cf/VoBASN16dLF92WtTvfrhQCw+SMczD5ZWenavn2LAV+0f0AYz3lDeucZmJoc8KcPAs2/f/+e8vJyl5eXmyWAOr0uTTvyi5cvzPBGhjhW17+U9OD2LeVFRSl3dqTusHnHq1mcpPHypcx/rr3PIx0GfT4uLdXTZ8/04sVLvXj58p15efb8uZ48LVWpHV7ZpF+uJ08ea9GiBerVq5sGDeqngQN7a+DAXvXu3dx6y89viHlGYOAYM8msIQVTZwJgrPDWrcWaNy9a2dkZ2rlz66sO3w3miBkGX1KyyXQG0yFc3560neeUkU+h5syZpd69u6lv328M8GP+sQTQkK9S46Z94fotFR86pg37jmjj/iPayPHV+aaDx7TpwDFt3H+07B73X3mub9hzUJm5BVq5pkCFuw6YsJv2H9Wmg8e14QD+6Dv9RtI+dFz5u/aroHibdhw+psJ9R5S/66AK9x5W0d7Dr/LF81/5fUdUuPeQthw6ruOXr+r6nXuCDKxrmhJglBkE0KFDG/n4DFFQ0GgFBgZo3Lj684GBozVihL+GDvXQ8OHemjJloi5caFiTZJ0JYPv2Eg0bNlRBQWMUHR1pgDcycqaiosI1d26E8YBxdDSzEWeb+/yvL89z8E56sbFRmjp1otzd+74G/pYAmuaHVR+5On/thuLXbtSI2CUaFp2s4TEp5nzk/DQNj02VT2S8/KISNDw6xdzjfkU/IjZFI+cvNb7s+hITf8jMWHX1CVD7AUPU3s3rrb6Du7c6uPvoow7d1Ktvf+Vv2qKsrbs0bFqUBobM0IiYZI2cl/rtM6NT5D83RaMXpGnG0iwtL9igU5eu6HkNV3KsD9nZNKonAQiAIe1ffPGpkpOTdOzYUR0/fkxHjx6pN3/ixHGjTEMEAwb0dA0CyMrKlL+/t8LCJhgfGhpiMh4QMFy9eqF9D9KoUcNM0+nTTz8SvlWrP9SL/+wz0vu9unXrpGHDvBUQMMw87+uvOxjtH7OPpyfezXjbAqjey+5KoS7euKVFa4rkMWuxek2KVZ+p89UzLEbdQiLVNSRCXwfPUpsho9TBP1h9ps5T3+kL1Xfagje9ub5QfabMU5/J80y8L/t7qs/AQfLx8ZW38UPl7VPRl133GeovT29f9enXX2GhoWZdl1t37yuNpRbmLVZUeq6GRiWqR+hc9QqLVo/QaA2csVjBi9PkNX6q/CdM04GTp11J7C0urxBATMwc/fGPrY25u6EEwAzsqVPDjOl68uTQpt0CYEo44/2zsjK0f/8e7dq1XTt3btPhwweVkbFCPj4eioiYphUrlsjHZ7Dat2+jAQN6yc2tj+lMoUOlLr5fvx4G8MPDpyk5ebGWL19iWgM9e3Y1AvT2HlQO/rYF0FCvbOOle+nmbSWs2yyPyAQD/l0DZ6rTmKkaMHW+uo+dqt927KkBw8dq2pxY9Q8IUftRYeoweoo6jp78Vt8teJb6TIlV7wmzFRoeqT27d+ra1au6fOWyWUSNhdQcf+XyFV25ctWsoXPh7FnduHZVD9izlY4D+hYe3Ne1mze1pmSv/OYkGfDvNSlGg8IXa2JihsaGz9Wvvuig3j4jdejU2cYTpH3yeyXgEEDbtq21fn3Be8PXNsDly5cE8Pfr190cm7QJCAIoKlqvtWvX6OzZUzpxgmbREV28eE7r1q01mv+CBdHKzc1SQIC/RowYqgUL5mrhwhjNnz+3zj4mhuGmzDXYoNWrM5STk6n4+Pmm0xf7v7f3t9q/JYDavpJNM975aze1OG+D+k+JVoeRE9UzeIbaDvTRpx27ad7SDOVtKdHChYtUuC5fuTmr1al7b/38o1b6z49b6xeffPGG/6+PW+u/P/tSbQd4q3fYHA0OX6yIFWuUWrhVKetL3vSFJUrdsEMLstYqIna+dm/fZnD/4dNS3X34SHtPnNWSghItWF1kzD99J8eqZ1i0Af/JKZkKnBWtjzt8o//v57/SgOHjdORMw9p6m2Ytuk6uKhJAQUHNd96qbkkZ9eNSBFBYWKCcnCwdO3ZYBw/u04EDe3Xq1HGtWZOtESP8FBPDyKDlGj7cR35+XoqNjdS8eVGKiZldZz9nzkzTumDkDzOOMzPTBOHQMrAEUN1XzvXCGc1/7SZ5RiaorV+QfvpxG3mPDVFGdo6yV67UJWc1zZcv9PL5cx3cv0+pKclKSUxUanLymz4lRalJSYpbvFhBEbHqNzlGfSbHqt/U+eozKVa9wmJe95Ni1HvSPPWaMk+fDfRVf29/5awrVFbxbs3NzFf0ynwFL16hvpPnGa2/twmP5h+nScmZGjcrWp917aV/+fWn+uf/+VgDRwRZAmjir6ElgCoqiBZARQI4dGi/IYHTp0+UEwCAv2rVCvn7e8nbe7DmzKFzeJaiougorpuPiJiipUsTVVi41oA/rYGFCy0BVFFVzebShes3tTh3gzxnx6v35Fh9HThTrQb6amJsvI6du2iGYJYN2JQePHmqkxev6fDZizp+4bJOXLxSyV/VycvXdPzSVR07f0kFOw8qcPEyA9o9J85VD3xoFT4sRp3HTNNHfTz1+54ecps4W8Hx6fIIX6SeE6PVxwB+rHpPwkMWMfIA/JO+Bf9//f3n+snvW+v//voTSwAu8HZaAqiikqpDAIwEWrlyuaZPn6RZs6Zr2bJkLV+eYo6c19SnpSUrLS3p1QJvCcrLY1PkdUpPX2rMQZYAqqioZnLp8s07isvbKPeZC9U7LFr9pszXwBmL5B6RIK+oJAUtXqH0TTt08PR57Tt1VllbdmlCfIbGLFymoLh0BVf28RkaMTdRXhNnKXJpluJyN2vW8jUKT8tReBrHN/2sZbmKSM9TSPRi9ejvpsEjx6pf4BR95T/BmHj6mk7kWHHEA/6Dw+MUlpih4Nmx+qRTd/3kt630s4/b6Gcff6n/YwnAJd5OSwBVVNP7CGDkSH/TKcuaQKtXZ2rDBiaGFWrjxsLyCWLORLH3HTduZDIZa/sUvZpX4Mwt2KKCglxjCqpuCyByTqTuvdpxp4pi2UtNUALnr91SfN5GDZq1WH2mLTSjaDDTdA+NUvewueoaHK7P3Yers3+whs5Jkk9UotxnLDQaefeJc4U3Gv2rY89JMeoSFK6PerjLzdNHu/bs1Z0Hj3Xv0WM9ePSkSv/w8VPdf/REdx880s3bt3XpwnldPH9OGZmZmrUgQQtWF5phqH2nlBGA0+GL2Sc4IlafduphAB/g//dP2+qnf/jCEkATfNeqypIlgCqk8j4CYFIDY/RpAWCjB6A5pqenmSPn1fdLX8VdqmXLUlTWEkg2yzynpiaYVgWmpne3ANzVo0cXTZsUqpMH9puFv66dPi0868DfuXzZzAS9c+WK6tPfv3FDj+7dq19/964e3b2rp48f63lpab37F01oUtLlW7fLwH/mInUJDFen0VP1ddBMfRM4XR9366//+rydBo0O0cTZMeo3bpI6B0fq6/FR+mZClAF9zDkVvSEChmOOj1DA5JnatrXYzNx9/LRUj5481eMnpa/7V9dv3bqtRw9f30eCGbwsQ33j9h3l7zwg/7nJr0xAMXKfuUhhSRka+8rm/+PffqafvgL/ygRw9FzDTvmv4vO1l2oggWcvXih2XrQYBWQ7gV8JriYEUAbaSeXA7QB4dY9lpqMlmjZtohjeOXToEOMZasrEL+4zEuhdBMCooF59vpFXt65aPHSolo4cqZThw41nJciMCRO0MixMmRMn1toTv7JfPX268ufOrZuPjta6Cj6f85gYbYyPV3FKSu38kiUqXrJEW/Gpqd/6JUtUsnSpdq9apb1r1tTe5+ZqHz4v71ufm6sD69bp2ObNOl5c/E5/bu9eHT91Rgn5m+U1O8Fo9P3GTNRHf+ykdr0GaNbCBMUnJisyYpaKCgu149AxTU/N1tDIRA2bm2z88LnJquzNZLHoFPlGJRq7fNLazUpcu1nxuRur9Al5m7Qwu0CzF8Rpx/ZtevDosW7ff6RDZy4qrbBECWs3m36J0fOXmo5fbP/Y/MNedfi2+rq3fvI7zD5lmj/g7xBAWR9AoHbs2qsrR4/pwv79usC2kNY3GRlcOnRIp/fu1tTQEEsAFUnTIQBG/DAE9MiRgzp8+IAZEpqbu9pMay5rASwzGjq2/9r69PRU4UeM8DUjfBhSysiiwMBRmj9/jpkD8L4WgLdPGQEM7dVdSQGjlBEcrOUsAhYUpBVBQUofP14Z+JCQmvvx400aEEnqqFGv+aWjRpmVJlltsrae/WoThw59wyf5+irZz6923t9fyf7+ivf21qJBg97wcR4eWjxkSK18HPE8PLRgwADN69u33Mf26aP5/fube3FeXorz9HzDxw8ZotSRI5W9KE7zMtbIIyJOPSfGaNyiZUpZmaOE+DhlZ2aUjfZhrZ3npXr54oWu3bmvvSfOadexM9pz/Ix2v8UzRLPk0AmFL1+jAdOcyV+xZuQPZqWqPJ3Bo8NjtHbDZq3asksxK9dpQkKmBk5bYOz8fSbHqHdYmXfG+QdHztdnXXrqX6sAf4cAGAXUb9hYrUxZqszQCVoybJgpO+W3vmnIIG3UKCWPGCGvTu3Vpm1rFRYVNNi2mC43DJR5AOvXr9WFC2d15sxJMQLoypWLZm4Aw0DriwAyMpYa8nDmEyxcyDyCKKWlJSovb1W1O4ExAc2cPlUXTp/Wg5s3hXnG8feuX1dd/N1r13TrwgXdOn/+Nc8Sw3X1V06e1Ln9+3V+3z6d57h/v/l/bt8+1cnv3asTJSU6smHDm76oSIdr6Y8UFelQYaH25ORoR2amdq5c+a3PzNSOjIwq/U7Cpmdo7dIVikhcJrfwRWYkDp2pXhHxmpaarbW7DurUpeu6evuuHpWW6uKN2zp6/rKOX7ii05eu6eyV6zpzuWp/9vJ1nbt6Q4W7D2nMgrSyUT4To00HLuP03+aZwctSEyHx6Ro0Y1GZeSl0bnl47uPp8DU2/9nzjM0fDb+y5g/4/9snbfUvv22lf/19a42eEqHNBYXampKiovnzVbRwofVNSAabFsepYMECBQwaqLZtP9f6QksA5Q2B1atXacqUMMXFLdTixfM1f36M0tKWmP1/R48eYdbowfZfW83fiecQwKhRfmbZB8CfIaYpKXFmAhitA+YbvMsE5CwFERk1W3eZsWldg0vArKD58uXrK2nyvwrvzKC9cue+EtaXyGN2glnWod+UeWbED6YVhll6RiQoYF6aZqblaMXG7Zq+JFujYpZozPw0A+oA+9v9Mo1dsEzes+ONps9YfUYTVcezRESPiWVzAjhnlI8Tj/kCA6cv1KTkDDOXoJUZ5/+J6eh1TD7O8d8+baOf/O5z/fSjLzR49Hht339Ijx4/1rOnpXr25IlKrW9SMnhRWqqH9+9r7pzZDb4UxLVrV81SEC4xExj0YMkHLy8PjRkzSmPHBhizD4SwePECjR070iwGV18EAMhDACzJyto/vr6emj49TFlZK8w8gOoSgN0PoMFxv1YPeP7ypW7df6itR09qbtY6TU5eqWlLso1dH9s+2v+0Jas0JSVLk5K4t0oRy9eYI/8nJ2dpUnV8UpZJg/RIt7q+7PlVh5/B0NFlORoTHq3P32LzNwTwSRv9+Let9B+ffSXvoInadeiIXQSuVm/Lh41EZ39MbLTZAyA3d40ePnxgPMt91NXfv09aD8VIowsXLpi11Pr27eEaS0Hk56/VsmWp2rGjRCUlW1RcvEn79u1RdvZKOcNA64MAWE9o+fJUM5GMZVjxEAxr/q9alW5GCLk6AaAVt2T3tPSZdh07rfkr8zQ1YZlmJKUrPDnjDT8zOUP46Unpmpqw3IRzrtXkWFXatbk2Mynd5HlJ7np94+ErM9rnD1+Yjl5H6+eI2ecnv/tM//5xG3kFhmrXoaMtubpdquyA84KF89Tmy88UGjpeKSlJxicnJ6juPlGJiQlKTIw3O415eQ2Wh8cAM7jFJdYCWrcu13T8njx5zHQGsxZQXl6OWQqivvoAnAljkAmjfejwLfMZZngppiJXJQB2UyspKTF7jTbWV3Hr1i2Th8Z6Ps999vyFCnYe0JBJUerkF6KuIyfo65GhTdp3HRmqzsNC5DEpSrHLVqnbIB/T6ftvn7R5jQAA/x//9nP99A+tNWTsBO04cFgvWjbfN+arVuNns+9JQkKcWGiybHVhdw0Z4lZnz2rFrJDwzTed9Zvf/Lf+4z/+zew4hrm6ye8H4IwCWr06S0ePHqpiLSBnHkDd+wCcvgBaApiC6BPA879siGiKVq2qXh9AUzIBZWZm6ve//718fX31vBHH3j948ECdOnVSu3bttGnTphp/IPUR4dmLlyrYdUBuoRH6YsgYEb7GugAAIABJREFUtfUZpz8ODWzSvq1PoL70HKN+wTMVvXSlegzx009/31qvEQBmn9+1MnZ/jzEh2nP4WH2Iy6bxASVw9+4dxcUtUo8eXdW1awd17dqx3ny3bp31xRef6Re/+H/63e9+pc8//8RsC8l2tk2+BfDutYDqnwCclkDlIwThKgTw5MkT5ebmqk2bNvrzP/9z/a//9b905syZD/g6V/2odevW6Tvf+Y6+//3vq2fPntq2bVvVARvoKgRQuOugBodF6o8+49TeL1gd/EOatG/vH2IIamDoLMWkZal7ZQIwZp9W+vmnf9SQMeO14+Bh0ddhnetI4M6d22bZ+4iIGerfv5datfrYbAxTf/sCf6Y//OE3at++rVkwkz7OL774ROHh03XjxvUGFVSddgRzWgDOaqBvLgZX/wTgtASqOjZ1AqCjJyMjw2jZf/Inf2LAFsDt0KGDAdvNmzersfyWLVtUWFioX/7yl+X5+t73vqc+ffoIYvgQrZPmRgDG5v/bVvr3T9rKc9xE7Th4xJp9GhTO6j/xu3fviX7O6dOnmA2n/P09NXKkj0aNqpsnjYAAvK98fNzNHsPMcfLz81SfPt2M+efw4UNiv/WGdHUmAGc/AOYAVNwPoL77AKoC/MrXmjoBLF++XH/zN39TDrCAP/6jjz5St27d1LFjx0b1PXr00M9//vM38vejH/3og/QPNCcCYLG3H//uc/3soy/kMWa8SvYdNENhG/JjtmnXrwTu37+ntWvzNGPGFHl6DlKXLh00cGBPsdMgNnpPz4G19sQv269kgNkEPiRknNlZsUePzpowIVjHjx+v38K8JbU6EwAmIMCeCWDHjx82+wIwKazpEkBnNVYfwL1797RhwwZjXvnrv/7rcqBt27at6IS9efNmo3mef+LECf3sZz8rz9c//MM/yMfHR3v37jXD1N7yDtXb5eZAAGV9AJ/rX377mRnuOXh0iHba0T719o58qITu3bur/Pw8MyZ/5Ehf9e3bXd27dzY7Dfbu/bV69Xrdc606nnjsVUJ6Xbq0U6dO7TRy5DANG+ZjtrYNCxuvo0c/3OiwOhEAlbF8eZr69+8jb+8h8vHx1ODB7ho3boyZEDZu3Kh6mwdQWduv6n/1WgCdNGPGNN28eeNDvUtVPgci6Nu3r/7sz/7MAC7ml8Z28+bNM3n527/9W/n7+2vfvn0fNEsuTwDLstTd00//91ef6Gd/+ELuI4O0/cAha/P/oG9R3R92584do8Bi9hk9ergw+wQHj1RY2DiFho55zU+cWPH/aIWGvs+XhR892ldDhw4We6cPHeqlrl3ba8KEIB05crjuBahBCnUmAMau/vKX/6n/+q+f63/+5xf693//qb788nNjMwsOHqPo6LJtG6sC7Pq+9i4CcJpsAwf2Nr35MHxTcMXFxaZPADJgrHFjOVoArVq10uDBg3Xo0KFGyYbLE0Balrq4eZoZvp5jQ7Xz4BEL/o3yJtX+oXfv3tXatblmfpG/v3f5zoIjRnhr+HAv4wMC/DRmjH+5HzmSdcm8NGJEdTzpeBpSGTdupLH5d+/eRaGhITp06OAH6WurKJ06E0BOTrZmzpymlJSyCRHx8YuUmbnCLAcBu82ZM6t8nH59A37l9N5GAI7NrnfvbzR48ACznGtjgm3FCnDO0bYxATWWu3jxog4f/rDaR+WyOgTgPnG22niN1VdDA9XON6hJ+698g9TGe6wGjA9XZHK6ug7yMXv8btmz39r8K1dwE/+PUsjSNosWzTOrFrPuGEM03dz6yc2tj9zc+mrAgN7q3Pkr/fGPn+urr1qbpSEYw8+9gQP7vNcPGNDHzB1gEquv7xBjVho/PlBHjx5psAXm3iX2OhEAo4DoBC4sXKfLly/o/PkzOnfutK5du6z8/Nx6nQhWGeyr+l8VAQD+dLZgc2NoFZW1Zs3qRtW231UhLfne8xcvtW7nAQ0YP0ufDw7Ql15j1cZ73AfxbYcG6Y9Dg9S2Fs9rPWS0eo6dqsglGQpfnKwtu/dZzd/FXmQ0/6ysTDHUk1GNmzcXmiVmUlIStWRJotl3ZNmyJeaIZWPAgF5mb5FBgwaY3Q5TU51dCsvCpqa+fiSNpUuTzYoFCxbEimXsu3XrqAkTQgz4N5a46kwAdAKvWbNKx48fMUtBMxSUEUH1vRx0VYBf+VpVBMDeAWwS36bNZ2rX7gvNmROh8+fPNQrbNlYlu8pzWQpi68Hjmpm6UuNiEhU0L1lB81Ia3s9PUfCCJQpZsETB82v+vMDYJE2KX6bVW3fqzJWrKm3ECX2uUtdNKZ+s5UOHb2zsHOXn52jHjmKz6yDHPXu2a9eukvJjTs5KrV272oRjMyuWp8nOztDOnVu1e3dZWMJX9rt3b9PevTvN7oWYfjp0aPPK5n+kUUVRLwTQNOcBfGM6WQD/tm1bqUuX9oqNjdbVq1caVeD24W+XwNNnz3T11h2dunxNJy9dNf7ExatqSH/qynUdO3tBa1dma3Vqmg4cPSGu1eSZ5PXU5ati5zIWDbPOdSTAOP+srJWKjMRUvcJsO8sWs+vWrTGeczxL3nNtwYJozZgx2Zi2o6IiFB4+TUlJca/C5JmjE8c5slTOxo0FysxcbuYSYEJi2OeBA/v14sWLRhVWsyUATD4+PoPUsWNbder0lWJj5+rKFQv+jfq2vefhZjG8Rpgl+/ThA+VHRWnZ2LG60QRmZL9HTPZ2PUmAGb6APyMY6fCdPHm8QkMDNWFC1X7ixGCNGxdgOobbtfvSaPGYgjAJhYYGvzVeaGiQueflNUhff1022gebf2ODP2KsJwJ40wTELmHf7glcf2sBVTb7VPzvmICYrg0BMKOudeuPNXXqZF2+fLmeXhubTHOTwNMHD5QXEWF2R7t64kRzK54tTxUSYGZ7UVGh6accPLi/Bg2io/fdHbl0BA8a1F/u7oTrbTqE3d37mbhv6wAmDul369bJYFFg4GgdO9Z01oKqFwJYty7PdACX7Qh20nQC0zHMKKDY2CizYxcrd7JaZ0P57OwVWrs2W4mJi9S/f0/Dzp9//gcze2/9+vVVvAL2kpVAmQSeQACzZ5u9oS0BtIy3Au2b4c6YccaOHWXG+7OBVXU8I3hoCeBZsO19cQjj6+ulsLBQY/ZpShKuEwFQkNzcHMXEzDE956tWZSo9fblYHZRrsCN79rIk9KxZUxUe3nB+1qxpZtIZzThMPp988lvDuizheu3ataYkc5uXJiYBQwCRkUoeNkxXbAugidVOw2UHkyN78O7evUu7du0wR87f73dq927Hvz/8rl07tWfPLrOy54sXzxuuQLVIuc4EsHVrsVlaITIywkxpZiU7mkiYYZg6zfTo/v17iC3OGspj7uncuZ0Zk8vY3FatPjLDPZcsSRKz+qyzEniXBJ4+eqSC2FhDAJcbsHl+48YNs+PTu/Ji71kJfEgJ1JkAWOGSkTVbt27V+PHBZsx9UNAIhYSMMlOmQ0ICzDn/G8KPH0/6AWK4Z4cObc0EDSZ8xcUt1u3btz+kLO2zXFQCpY8fm03YU4YN0+UGXIfFw8NDo0ePdlEp2Ww3RwnUmQAcoVy4cFHMCdi6dYN27dpqxtIyNtbxjKmtyjv3OXLf+V9V2LddI862bVvMLD62p2RyGksbNEV3+Orrs22v3ruqS3cvvTOrR64e0akbp3ThzoV3hnvXzf2X92vJriXKPpSt5XuX61HpIxN8y+ktit8Wr8t3yzrJz98+r7Q9aUrcmaiLdy6+K8lmc+9DEAAL7bG89j/+4z/q7NmzzUZ2tiCuLYF6IwAzhM+1ZfFBcv/J3E80d8tc86wr967oP2f+pwFlLjx9/lQvXn47LvjZi2dmwppfpp/G545X/PZ4ce1djvulz0vfCLLp1CZ5LPPQryJ+pfCicN1/cl/5x/I1LmecglYHmfSv37+uyI2R6ri4oybkTTDXTlxv/qNiSp88UdGiRUr289PFBloHiVVVneW/o6Ki3qgfe8FKoDEkUG0COHfunNg0ZOPGjWZJY4YyAfqsX/M2OztaD9sLssZMVRsb3L9/X9u3bzfmI6ejlvSuX7/ebGfq/mHOH9QlvotuPbqlDSc36K8D/lqA85YzW9QlrotGZI3QzYc3TavAbambojZFadjKYYrYEKGxq8fKf6W/IYIzt85o2vpp5p3ZeX6nYrfE6uytsxqdPVqD0gaZtCuSCQHP3T6nUatGmTjbzm7TyFUj9eTZE/OfuLQKZhbO1MaTG8214SuHK+dQjjlvzj/PSku1KSnJEMC5BlgBddeuXfq7v/u7cgL4yU9+IpYGt85KoLElUC0CYOE0lgrGfhkZGanp06dr/vz5ZhjVihUr3thDFhBn85PwcEb/zDLH1NTU12zy9B2wLSL3p02bpsTERJ0/f16nT58269J/iB2oGkP4ADzAPbNopqasm6Lp66ebc4D57uO7KjhWoJDcEAPkaN/p+9LVfmF7RW+OVpv5bXT70W0TnzQAaFzRiSJDDpn7Mw3Abz2zVck7k/X02euri+67tE++Gb4mzupDqxWcG/yGCGgB9E7urRmFMxS0JkhHr324tcnfyMwHuoByUpySohR/f53du7den8p7PGDAgHLwt62AehXvG4kxvBOZV2WR4J4z+Yrjo0ePyv+/kVAVF9gYvqZxeA7xKueHd4606rooJWWtC1ZWiwBYKAkwB+wvXbpkgJqtC+fMmSM/Pz8VFBSUi4uCsrb9uHHjxPh7QB0tn/9sLehUAJuhL1q0yIA9K1GuWbNG+fn5Zm9cZ8YuoyZ27NhRThy0Emh5FBUV6ciRI2ZmL+vqs3uO08K4evWq2cAE4eL4TwuElsupU6fMNVosLMNMfni2k6fyQjTgCQSANg+AA/6zimZpSsGUcjDfd3Gf0cwB6hsPyvYs8M/0N2SxoGSByRngHLo21JAEF7IPZhtTDuafFftWmDTpN6jsKhLAumPrFJAdUB6ElsDzF88VtTFKtDxitsTozM3G36e4PIMNePL82TNtTUkxE8HqmwD4Ttj+87vf/a7+6Z/+ST/4wQ8MGfzwhz+0kxMboE7BjlWrmJj6+o5ajx8/Vk5Ojvbv32+eyqYr4A3gXF1H2uyT7WBNdeKBneAmz3VIgGeiIGdnZxuFt2I6YNyDBw8qXnrnOe8XlpnaEkm1CADAjI2NfW1bwJMnT2rKlCkaMmSIyYCTS7R/iIG9bys6BI7wHIFDGhAA4AxIM2KH56xcudJ4hJ2enq4ZM2YIsuB+dHS02aiEFgitBo4zZ840rQgEjPBoadBKWbt2rRD+1KlTNWrUKJNXykA+yBvpEi4lJcWYnCrmtSHPuyd2N8Dune6tg5cPGk179sbZmrRukgFvNP1FJYs0d/Ncpe5O1aT8Sfos+jPN2jBL/z3rv7XmyBoD/nToYqenU7ft/LbGdET43CO5xkTEPce845Rn14VdGpg60PzlXsL2BM3ZPEcr9qwwz6FPYmrBVKXvTXeitIijIYDUVCX6+urUjh31VmaAwtvb2+z5jBI0cuRI867yPrPzGu9jXbS3estoM0rozJkzBiPmzp1bLluAl1GKbHkK6KMcUgcQBWZoHASBsgoWAcAAKlYKlEPqkXPw6cKFC3ry5Ik5R3kkPOkTDvwBFzk6YE+6ycnJBus4x+3cudNgF+8EuMZ1cBNsAtfALnCSfJKOkxfyQTgUWee5SUlJBsMchdc8oAY/1SIABELGJk2apNWrVxtGo1B5eXmmZUCGHQdwA64IuqJDQGTeeeEpIFo4oE7rIisrS2j8S5cuFYXiOGLECEMmgYGBZrN0zEULFiwwAoBkiIcgME8RH0IB7AH2oKAgQ1jkGQaGaOh8o+IhiZiYGGO6okVB5X4ot/LASvOovKN5piO25GyJsOczEgiTDpq349DyMe9sPr1ZjNbB1o/pqPB42e5hR68eVfCaYAHs3MdhVsKE5LQenLQ4AvBrDq+peMmQhX+Gv3ad32WuF58u1oHLB14L09z/8JFtT083BHCiuLjeisuHvWfPnvL0AgICzLvKBYCnokJUHsie1EkCjLAKCQmRl5eXDhwoe4+xWoBf/fr1M9YK5I4JG+yBBOjfBMvAFzzXS0pKDG5QT5AKSiMkgqWCe6QHBuHZMhVQBleIu3jxYvNsx7JAXyiYxMxj0uPZ4BAWCPpIly1bZhTV2bNnmz3BUQwIiwIM+JM+51g9yAfYtXDhQtOqACfT0tIMWdRGcNUiAAASbX/MmDFKSEgwBSDzTmEQnuPo3AKQyZij7XMP1gPwnWsAN+vzAPowKaAPUCMMCoRg2ZYQoqHAmIIQHAIjP+SDZhSOuAgGsCeP9CcQh2dSIQcPHjTDQiEAmoE8F4GSHuYq2yHn1F7LPL588UI7MzOV5OenE1u3NpgQfH19hWZqXcNJACBGxoApgIxWj7WB/xEREUYxpVMe8wvKJKZplEfiYEoB1yBqLBEomGjo4AdxuQY4gx30hwLMPAO82717t8EWCAUMAqAdrENzX7JkicE3gB3yAJu4hgdbSZ/Ww+TJk80gG1oHKNIoEZi8sXSgTKBsk9/g4GCTfzAQ3GzQFgBCgBnJCKzmMBtHzDAID5sbhaOJhF0KASEw2I9MI1TA24mLwAB7CkXTJy4uzoA44A24Eyc+Pt7Y7ml1kD554Dr5oSIgB7Q3gBxBAO5co1+Ac55N/qhwCAchQhRo/RAKJDV27FjDrA33StqUm7oEHAJIbGACQCtFMbGu4SQAiKI80v+IRQCQR+ZgAngCLgDyXJ84caIYngt2EIYBKIA1GjwEAWmgHII93AfcAXvwCOzAkR5KJthGPJ7p7u5uMJG0HMfzSYM8APrgJEfwCvwCW7GOEAa8giAgBVoAtFjAWI6EJ++Y3lFoIaMGJwBMQLAOAF/RAb4w4LBhw4z2HRoaakCdSViwLgVAK4fJaDpVZCnOAXNs9MSjINjYEAQVBPNRibAl5iS0fppNEAb5YQQRYXGkTeuCOFQIzS2aazyDyoUIIA3KgBAhKNid/EEImKZc2V24fUGDlw3WoSuv148rl+mD5v3lS+1etUoJPj46smFDuf22PvPAt0ILAICwruEkAFiDKeABphqsCAAzZiBAFLxCkeQegI+CCBADppiMAN8JEyYYsAcjGJIOpjgtBcAexRarA3UKpnANBRYgxyriWCAq4h2WDgiFQTPkEXIgDoQAYYFxgD1hwC4UVBRWsBSFGBzFMsKz6GMA9FGCeRZkVFszdrVMQGjtdKgCsJUdGURwaPR4wNbR8mE5BPq2mY+kB6nQgQv44wB3xyRDoWB0R5DkgXOYkjCExVU+53lO84t0ESxxOCc+HnsaTTgqzJUdE7qGLBsihowOWT5EzOS1ruYS2J+XZwjgUEFBgxEAHz9gZF3DSQB7PjIGU/i2IVz22+bbR3vG5Augo2mjzQO+KJMooJAA5hj6HlE0AVmuoaBCFGj5gDBp0EKAADgHgFEq0cwhARRLgBmgruhQeAFz8gUmQSQQCPEBfdJD+cWkDoZBDuSRPlDyC15BGlwjX5SHMKRbFTZXfPbbzqtFAG+LbK83vgQY+jln0xwxkogZvvce2wlGtamV/fn5Shw6VIfWr7cEUBsBNpE4jNABeB2NGM0bsEUpRZsHfFEYIQXMLPQRoMQ6iixADNjTl4DVAFs8SiqDW4hHeiii3MNxTroolYA2LQsGnNDPyLWKjvhYGwB68uM8lzQdRZR8E5cWAkcUaEzklAmlFqUaK4aTJ/pPITfSrI2zBFAbqTWhOEwMi9sWZ2YRMxHsxsOyuQNNKIsukZUDEICPjw6uWyf6BOrb8cHTB2BbAPUt2fpNDyCmbxKgbQnOEoCL17Jfhp+2ndtmStFxUUczjt/Fi9Qo2T9cWKgEb2/tycnRiwbY1B0T5KBBg0wTvlEKaB9aLQmgSaO5V+zArVZEFw1kCcBFK87J9vrj683yD6wXxLyBJbuXOLfssQYSOLp5s2kB7Fm9ukEIAEDx9PQ0dtsaZMsGtRJoUAlYAmhQ8X6YxJnExdIO957c06mbZctdfJgnN5+nHN2ypcEJABMQI06ssxJoKhKwBNBUasLmo1ElcGzLFmMC2pWVJZaGqG9HC8ASQH1L1aZXVwlYAqirBGsQ/+r9q2IDmMelZcNpGcFz7f41s2wDK4E6m7Rgh2TZhgdPq78oVHWzwbBR8sERx5LRVe0fUN30mku4EyUlivf2NktCsDx0fTtGcAwePLjaLQDqhXeA98VxvCvXH1w3q8Y+fPrt8iWEc+rTCVsfR94/3hXeTcexYCDvbXNwfGf0zTjD1ikT/yHryqNq+E84PCONKsep+J9zZ+h5U5dTnQgAoTD+tHLh6USpLMB3CYI0ELrjSK/yNeceRyoAAVflSIe4NXl+VenU5zUANudwjvov6a8eiT00NmesMdWwBn//1P5m+eVfhv9S2PMJy7DOLovK9gaoz+WY2Q+gdWxr9UzqafoNmDOAZ5+Blu5Obt9uWgDbVqxQQxAA72v//v3LZ5C+S953Ht3RvOJ55l3hfYktLtvrwT3NXX1S+ugX4b8wazpBEvOL56vL4i5ixdjKu8296xnvuwepsPw47wr9S6xXhWMZ8YrrVb0vnaZ8n6GcTMBy5imBG4zDZ4hlZfzgHhNPmcTlzCugbBAGk15ZXcBx4BNzo1h9oKm7ahMA42BZK4PxsQiH4VJMfmBiA0JDmIxnRaBMVmDShDO21RECY2CZocckLBxjXhlny4QGplkz1pXJXcRlggMTNpzxtoRH2AiayRgM1eLcIQ7yxGw/JlYwS4/nUBFNwfEx9UjqUZ6VvZf2ikXXHAcRDEgdYP6yAYyzYNzBKwcNKXDj8JXDGp45XIk7Ek049g3Yfm67WRF0TPYYFZ4oWyCOmxtObdDuC7vNSqPs+MXeALg9F/bIJ93HnNNnEJgTaFof7BT2Ui+16uAqc+/uk7tafXi1OWfFUNKvanlpE6CZ/EAAtAAggOcN0ALgXXRzczMTjt4nsrwjeQZ0nXD8dwD42oNr6rukr7kFSbB9J+7YtWNae7RsUcaTN06ahQUXliw09wqOF2jH+R2auHaixqweY1aMNTckbT612bwrLFEeuCZQcdvjzC3qm4mFuOIzxfLJKHtveB7p8P7QEqDVyoq0OFaoHbNqjFh23BUcQz1Ze4f5ACitrCgAFjG2HlxhUhlkwDh7xvszMxe8Ip4zxp+WHfMGIAGHNLjG/AKwi3AQAbgJHpIu8wHAMjxpO3MVkBnKL/G49yFctQmA2WaspsfSCRTUWU4BsGXKNLPXECDnXGO6NWvwV3QImnUyWCgJxyQHwiN0ZrZBAsysY3YexMLRmXFHeCZGMCOO+Ezr5r4zXheGZmln0oM8mI3HzLmm4JwWANoUq4BWbFKTPzZmYVVQ5NorqdcbWT5+/bjR2FfsXWGWhQbQOy/urNGrR5vtG+dumquJ+RPLScBzhachHHYGG5k1UjHFMWZpabR9WiEsQ52wI8Fs/8g2kEMzhhpTULeEbubZZ2+flcdyDy3bu8zEB2jYg+Di3ea7RzDLQMd5eak4NVXPGkBxgAAYBspyJu9ztABYDhylgBVgK7qK9cz7xDaiFZ2z6xvvCsoEBM4S5GjxX8d/bSYLsmIsy4bj2BWu0+JO8lrhZZQDliJn61FMTbQ2eFdYZjwsP8yEZ4Mizgn/6NkjY8KkZcJ19rpgOXPeldM3T1fMVpM8BzsAdTR78IsOepRIQBgNnjkbLCuDIsqyEWAUa/owcxiFGFeRAJxCotiCY7QUwCTigYcoxyi/KKlMHgP4mYGMd5auYQYy4T6U8lptAkAALJ7E2jpkDg0cTR9HAQBlSMHR7gFwiKAik1Fo1rpAsDAhQgeoIQJaEcxwY+q2M1KClgDhHS2ftGFbiIBz1uxAyDgIgMpxmnOkA6E0JccSzazTz0cHqOPQtNiYBZtu6bPSKgkA7Y39A3AsD41Gzsd25/EdQx7/f3tn+lxVsbVxy3/gVvlZ/4LXqvvl/fBa5b3ee33L14sKOFxEFIEAgQQicwYyACZhMMyIDDKKEEYJ8xQmAUEBGRVIAIUwKSDKDALrrV9jx8MhwEk4wz4nT1ftnHP27t3d++md9ay1uns1vmHi+qOBkdhdDOtg5o6Zbt/frce22pDKIYZg+fuYvzsSKFtf5jQ4Qkh4AvBWyPmr590/OBoem9XwD4+G6TUcV0mK/flx1y4XCmLLrFnGJvHRTvUhAF83hJ21IMtt8IPSwAyvvGV5blc4LDYIIHzPB6zGzHmZrgjeAd4FDsYS2HMCS4KFgwh6Uv9V/d07hQCv2Fdh+07tc5Yh41T/+Pgf7l2BdLzf3xMA79/N2zedBYClwHVWohevLnbvdDK8K8gRQj8Q5yc7O9uFfwAThDphbQjRQOwgQkEg9JEpyCxiDXmXD7IJEiFumU+s8CVOD4Ke8B/IQe5DaUVWIsMIMY1VQKwzrAfCTiBTyYuiHOpW9+XG4jNiAkCQw2Y8AMKWOBYIfdw2EAMPzHkSrh7iVYSaRb7xAEk5AMd1ovEBKNo8RACQaPGADTkQec+DAeicgzn5ToAkQrWGJsw3yIcAdJ4cQq8n4jvTMzGt+adiEA2NfPTG0a4p+N/5pyJxDe3r852fOyuBGP+Y2pAFBIAQ4J8UEmGjeCwLPhHi/POhqZGcP/jMAbdPMDuE4QIYsnaI2xO42xd3icRl/IOACCSHP5nNYmhryZoSe3fGu05LpG62mGSvYVxZqZrYC5hw0LEiAP430tPTI7IAUAoW7Fng3hf6Bbfd/jP7HRHwbpAgAAh/6jdT3XuBsGec6cSvJ1xsKN4V9n5gbwi0/8vXL7s+xD3D/tGeALAidxzfYTN3znRWIZYoW4GiVPBehCdcQJQJqbAKnT2ksSAqD1W6YIRYLFyDvIKecM0g+CEAlE5cy5xD3hDSAW8D2juzt/B8oLjiCUGbJ+YZyRMAyqdPuHiQX8gu7selg8WATKQOzmFV+au3AAAZ9ElEQVR94GJCwaVOFFoiKPsAl76sWH9GTAAMYqHxYwHw0AyG8JvgRwhxyAAtB+EMcyLo8ZuFJ7RybxnAiuyShNnDPYCG+QNAlA04gOhTKAFQfzgB0HEAS/lBIgAENSY3JjWCla0g0cZJaGNrq9f6R3T/2JBAiykt3GDx6d9OO2JgXKDF1Bbun5NN4xHomP/EAOKfHuEPWZA4d/TcUSM0BBYD/5SMHTCjg7pDE+MPaPkk8rEf8PivxruNZyg3Z3GO0zQZH/CzlELvT5XvjgB69nSbw8fCAsAX3KZNm4gIAOE9adskwyXH+zJ311zX13O+nVM7NuNxhwR4LxC6J3896Ygcwe9chMvyjXcFa48ZPQzeHj532L0X3m/Pue9Pf+/eT+7j++Rtk937iasoPPGOlX9bbrw3vM+8K2xvinsQJaH1jNZOoYnFDLbwtjzub2QFm8fgaUB24epBDuE6Juom8ghLAIUUAoAQkGto8MgfEtYCCiyyDB8/BwIdYY/7GoUVJRnPBGVCABAIiitjqmxcRewgBD/1oGAjQ+OV6kUACHkegIcmQBEPzYOg/aN1w4oAhZ/TD94ilL0Gz0NhOeCjpwzAxMcG+FgDgEY5jAnAopQP6OQlUSeCnY6j3nAXEIASPdRbINwfpAQRhPtsH9Q+8qHlhSZ3roFBn0LLedh32hia0EAjbXPofcn2/fj+/TajRw/bOG2a3QgL4hWNZ4EA0tLSnJCJtDxwjwT7ut4LztF3sUzh7wpun0jaG8s21ads/P14HogcSmICCho+Si4HsgkSQGBjIaDs4uZG3uESJyHbENxE7ETAI6+4F2uBcQAihCLQ8Uyg1HIOBRXl1rufcP9AFpAKn4ylepnnKonhn3oRAA9AY2kcJg/gIWQBioZDDoRSxW+GQEdQc4QyGn4xQqViRTCi7tkV8CAPOgBfGSQC4JwDPIQ6HUY+WJq2UC9sTR1cB1jvZwNgfGlKQiASBE4ePOg2hd+IJRuDLUIZGGQaKEqPUjAQwC2HH56ZOD7RT5xDi2dgFnmFaxrhjIKLfx//Pfl8QjHFesC7QX7ugyCQSWj+eE+oi+8oxsgx5CPyj3tx/2AlkPCaUFfgCACmQ+umwSQ0dF5mBkB4aIABKAQwghltHtOGh0OA+wSIlOO0hRs3nPmFmcS4AETBgzMgjJkFk2JS0SEAyj2UCQNDDpTFQA6+ftgbwLEeKA+TKnQA2tevTyFQFwKnq6psdna2iQDqQqfxnkuGwezH6Z2ILYC6KgEcNPlQkCAKziF8+c610Ot1lePzhl7jnL8vvAyucfjk6+E3ealfSQjUB4HThw5ZeXa2bZg82a7/sdFQfe5/VF5ZAI9CSNcTgcBjEUAiGqw6hUAsEDhdXW1zcnNt7fjxdu1i9DfVwUJlEDho41KxwFJlJg8CIoDk6Su1NIYI/HT0qM0rKLC148bZ1Tpmrz1u1bgy33//fTcI+Lhl6X4hEC0ERADRQlLlJDUCP//wg80vKrLK8eNjQgCMmbVt29ZNnkhqoNT4lEJABJBS3amHaSgCngDWjB1rV0JmhTS0vPD7RADhiOh3EBAQAQShF9SGhCNw9tgxW9C/v60aNcounz8f9faIAKIOqQqMAgIigCiAqCKSH4FfTp60CmK+RJEAmPvt54vzvVWrVm7aM2gxU41xASUhkEgERACJRF91BwaBC6dO2aKBA6NKACxQJAIoCyNZ6MMYAIuEONq1a+fWzwQGADWkUSIgAmiU3a6HDkfgwsmTtqi01JYPG2YXz54Nv9zg3wQbe+KJJ+yFF16w5557zpo0aWJ/+ctf7Nlnn3ULFxtcsG4UAlFAQAQQBRBVRPIj8OuZM7ZkyBBbWlZmF/9Ylh+Np2IV+1NPPeVI4Mknn3SfEAJhS5SEQKIREAEkugdUfyAQuHT2rNP+o00APBwRbxH6/njppZfuCZAYCADUiEaJgAigUXa7HjocgVoC+Ogj++2P3Z7C8zT0N9sKPvPMM7UEQLRHJSEQBAREAEHoBbUh4Qh4AmAgmPGAaKdu3bo5AmAMwO8nG+06VJ4QqC8CIoD6Iqb8KYnAlQsX3AygiuJiO18T/d2siIr79NNPu1DmKQmgHiopERABJGW3qdHRRoAAcKwCrigpiQkBEOYc149fFxDt9qs8IdAQBEQADUFN96QcAp4AFhYX27njx1Pu+fRAQqAuBEQAdaGic40OAU8AC4qK7OejRxvd8+uBGycCIoDG2e966jAEbl69ausmTrT5hYX205EjYVf1UwikJgIigNTsVz1VPRG4ef26rZ80SQRQT9yUPbkREAEkd/+p9VFCwBHA5Mk2Nz/fzlRXR6lUFSMEgo2ACCDY/aPWxQmBWzdu2IYpU2xOTo6dOnAgTrWqGiGQWAREAInFX7UHCIGtM2fa3Nxc+1kWQIB6RU2JJQIigFiiq7IDh8CtW7fs0qXLLhY/8fg52LCdY+2UKTa9Vy87vOtbu3rt2j15fN7IPy/a1atXFPMncG+AGhSKgAggFA19T2kEEPIbN26wESOG2dChH9nw4WXu4DdHdueOlvHWG1Zc1NdGjhpee93ni/Rz2LAyKysbbLNmzbRz586lNKZ6uORGQASQ3P2n1tcDgR07tlvPnt3ttdf+bc2aNfnzaN7EmjVvYs1ff8WaN3/Ffef3PXlC8z/ke3PKaf6Kvfzyi5aZmW5HNKW0Hj2krPFGQAQQb8RVX0IQuHPnji1Zssg6dGhjnTq1c0fHjm0s9EjnfOe0e86FXo/ke3p6W+vRo6s7cnJ6W1VVVUKeV5UKgUgQEAFEgpLypAQCS5cusZYt33Ka+aBBxTZw4IdWWhq9Y+DAYhswoNB69Miy3r0/cN+rqg6lBHZ6iNREQASQmv2qp6oDgYqKhda8+as2btxYq6mpsZqa43b8+LGoHSdO1NjBgwdsxIihhiVQVJRn1dWyAOroCp0KCAIigIB0hJoRewQqKr6w119/zebOLY9ZZcT6nzz5U0cAhYW5IoCYIa2Co4GACCAaKKqMpEAACwACmDlzRszae/HiRZs4cbylp7ezwkJZADEDWgVHBQERQFRgVCHJgIAIIBl6SW2MJwIigHiirboSioAIIKHwq/IAIiACCGCnqEmxQUAEEBtcVWryIiACSN6+U8vriYAIoJ6AKXvKIyACSPku1gN6BEQAHgl9CoG7CIgA9CY0GgREAI2mq/WgESIgAogQKGVLfgREAMnfh3qC6CIgAoguniotwAiIAALcOWpaQhAQASQEdlWaCAREAIlAXXUGGQERQJB7R22LKgKeAGbPnhXVckMLu3Llik2aNFGhIEJB0ffAIiACCGzXqGHRRgACaNbsVZs2bYoRs4cdu/xuYI/7ieC/efOmnT9/ziZM+ETB4KLdeSovJgiIAGICqwoNIgJLly62N99sZr16dXMkABFMnTo5CsckFwAOzX/06BHWvXtXF3Ka0NCKBhrEN0Ft8giIADwS+kx5BFasWG4dO7a1zMwOlpXV2bp06fjYR9eu6fbBB52sTZt37Pnn/8f++tf/sn/962/WqVOa9etXYNXV2g8g5V+sJH5AEUASd56aHjkCN25cN1xAHTq0tTfeeM3efLOpvfUWR7PHPJpaixbNrWnTl+255/7b/vnP5+2VV/7PXn31JevatbNVV1dH3kjlFAJxRkAEEGfAVV38EcA/v3nzJvvkkzHWrVum2+u3adN/u81h2CDm8Y67+wizB3DTpk2sd+9uLhQ0+wmXlAywM2dOx/+BVaMQiBABEUCEQClbciLAQO+XX260ESOGWd++faxPnyzr27enFRT0tvz8xz8KC/tY795ZlpHR3nJze1tOTk9r37612w5yz57dduvWreQETq1uFAiIABpFNzfOh7yr+X9po0cPt549s6xFi9etTZuW1qVLhz+O9talS/2PzMz2xtG1awfLyGhn3bpl2IABBZab28veeedN69+/0Pbt29M4QddTJxUCIoCk6i41NlIErl+/Zps2bbRRo4Zafn4f69SprbVt28rat3/faehpae9Z+/ahR2t3Hu390cd71rHj+9aq1X/c+AGzihD+b7/9huXl9bG9eyX8I+0n5UssAiKAxOKv2mOAAJr/xo0bbNSo4VZUlGu9enW1fv2ybdCgIhs4sNBKSwvdJ9//PAqstJTj7vUHffr7cf10755peXm9nd+/deuW1q9fvuH2+f3332PwVCpSCEQfARFA9DFViQlE4MqVy7ZhwzobN26s8/mj9Xft2tGysz+wPn26uiMnp5vl5XW3vLye7pPfXOvdmyProQdjCOTp1SvL7fmbnd3TTQFl/180/9u3byfw6VW1EKgfAiKA+uGl3AFGAM1/3bq1NmHCWFu0aIENHlzs3D4M0DL33x/46Zs0+V83VZPpmi1bvukGcTMzO1rnzh0ecrS3zp3TLCurkxUU5FqfPt3tvffedpr/7t3f2p07dwKMjpomBO5HQARwPyY6k4QIIPwrK9fYmDEjbenShbZt2yZbvXqZVVTMs4UL57oDUqiomG8jRw61Dz7IcL7+rKwMKysbZAsXzrPFi79wn3y//5jrylq+fLGVl3/mZvywlgCf/5498vkn4SujJpuZCECvQdIjwCKvLVs225Qpn9rKlUtt585tjgC2b//Kdu36xh27d29357m+bFmFbdhQaYsXL3CCHmIg7549O2rz+/tCP/fu3Wnr1q220tL+brZPfn6O7dq1U26fpH+DGu8DiAAab9+nxJNfuXLVVq1aYaNGjbD588tt/frVtmbNcqf98+mPysoVtnr1cpsxY6oNHlxiZWUDbdiwIe5z0qQJ7lpl5cra/P4+XxaCf/nyRda/f19r2fIN5wLat2+v5vmnxFvUeB9CBNB4+z7pn/zy5Uu2bl2lde/exbp0Sbf+/fOtX7++VliYW+dRVNTXCgpyLC2ttQvd0Lx5E+fDZ/EWM3gefF+eFRXluVXE7777Hzf4++238vkn/QukB5ALSO9AciLAgOvu3bvcilsGeVnc1blzOzffnzn/dR/t3GAvef2AMJ8ZGWnWqRP31n0/i76YTfTii3+zPn16aJ5/cr4yanUdCMgCqAMUnUoOBE6fPmVs7lJc3M8RAeGXIznIX1LS3/nyS0oefe+HHxY6y4Gyv/76a7t9W7N9kuMNUSsfhYAI4FEI6XpgEcAKuHDhFzt8uNqqqqpc7H3i7z/8qHYROonSefjw4dqD33cP7ufan9cpu6rqkJ06ddJt+hJYQNQwIVBPBEQA9QRM2YWAEBACqYKACCBVelLPERECR44csZqaGjd3//PPP7fp06fbvHnzbN++fXbt2jVXBqEcvvrqK3dt2bJl9vPPP0dUtjIJgWRDQASQbD2m9jYYAVxG5eXltmTJEvv444+tuLjYCf/Zs2dbbm6uLV682K5fv24bN260KVOm2IIFC+yzzz4zrp85c6bB9epGIRBUBEQAQe0ZtSvqCEAAs2bNsoqKCvv0009t06ZNtXWsWLHCPvnkE2cZjBs3zrZt2+ZCO/z666+2detWZzXUZtYXIZAiCIgAUqQj9RiPRgACQJtH0588ebJt2LCh9qbLly87UkD7Z6bPtGnTbObMmbZu3Tqn/Wtjl1qo9CWFEBABpFBn6lEejkBdBMA5Ev7/iRMn2pYtW1w4ZywAxgdwBUEY58+ff3jhuioEkhABEUASdpqa3DAEwl1Amzdvri0ITZ9xge+++8527dplp0/f3csX3/+oUaMsNG/tTfoiBJIcARFAknegml8/BHABLV261PDzDx8+3FatWmXM9Onbt68b9MUSqKysdC6g1atX2xdffGFz5syxU6dO1a8i5RYCSYCACCAJOklNjB4CLOo6duyYEcsHHz9TQZnts3PnTrt48aKriNDSDBBzDXLw1kD0WqGShEAwEBABBKMf1IoEIMDA7o0bNx4Y0fPmzZsK9ZyAflGV8UNABBA/rFWTEBACQiBQCIgAAtUdaowQEAJCIH4IiADih7VqEgJCQAgECgERQKC6Q40RAkJACMQPARFA/LBWTfVEgHn7zMBh0/Xvv//eDh06ZHv37rWDBw/aL7/84uL2UOTt27eNlbwEcQtN3H/u3Dnbv3+/K4NywmP68Hv37t128uTJ2luJB0TQOPJTn18ExhRR3wY+aRPXCRZHXQwaX7p0qbYc2nT16lV3rfakvgiBACEgAghQZ6gp9yKAYP/yyy9t4MCB1qtXL+vSpYt9+OGHNn78eBfSgRg9pN9++81N5Qyfq4/AnjBhguXn59uQIUNs0KBBNmnSpNo5/cuXL7fRo0fb4MGDbeTIkW7F79mzZx0h9OjRw9XFPUwHhUguXLjgQkj069fPMjMzXZuGDh3q4gbRjgMHDrg1A56IiDnEdFKFkbi3X/UrOAiIAILTF2pJGAJo1T/99JPTshH6hYWFLjAbmje/58+f7+4gpk9eXp5b4OWFLxeY119SUuKif2I1sMp35cqVTqAT8wdSYJ4/gnvNmjUuOigrgslTUFDgVgRz36JFi9yagRMnTtjRo0dt/fr1buEYbeBeLAS0feILEVUUi4O2Qy6EmsYyUBICQURABBDEXlGb7kNg7dq1TnvHpYJlMGPGDFu4cKGhsSOIWdnLwS5fPkEAhHFAiPuEAC8rK3MCHKHvhTNlIvinTp3qooWOGDHCfvzxR+cyYjUw0UO9KwhrgDppk08sLOMe4gmxchhrAesDKyCUlHx+fQqBICAgAghCL6gNj0QA4YyAx92D0IYA0MyJ24PWjbaNq4cwDj7hjy8tLXVCGSsBgT137lzn6mEvAAK+haYdO3Y4oY3Ab9u2rbMIcD+lpaU5S8HnZVxizJgxLowE51hMRogJrAbiCXEP20pCGiIAj5o+g4iACCCIvaI23YdAOAHglydKJy4cXEP48BkfYAMX73OHAPDX5+TkuOvE/mEzGEgE7ZwyQxMkQfRPhDbjAriasBgIGUG53EfyBECsIBIWAYSAu4k6IB12FMOaYJxBSQgEFQERQFB7Ru26BwECuOHOYYMWLAAEMsIWQc52jiSENUSwfft29xsXEH5+rARcPLhi8M2TcNkgqBkLwLfPHgAM+EIKCG3KZhCZhAsJi4F7SAw2Dxs2zNhEhgQRYJ3QNhIDvwh/CAFLhXYRf4gZR97l5DLqjxBIMAIigAR3gKqPDAFm/OCaYbAVDR9XDz53Pr1QRcDz2wtmxgtwzTClMzwh3LEGENxo7+wGRvlMB/3mm2+cH98TAP58AsZBEhAIYwEM7kI0EAsWA+4jn7iOdcIMIUiGdkJMlO9JwufVpxBIJAIigESir7ojRgBtHlcLAhchjFA+fvz4fQIVNw0DwyTyMkcfIqgrcR3tnE1gmNfPbxJ1cZ//zTnWHVAu5yAa2oKLibaE10EeSACtH+sDdxB1MAuJNQZKQiAoCIgAgtITaocQEAJCIM4IiADiDLiqEwJCQAgEBQERQFB6Qu0QAkJACMQZARFAnAFXdUJACAiBoCAgAghKT6gdQkAICIE4IyACiDPgqk4ICAEhEBQERABB6Qm145EIMOWSefTE6GGqJokpnszPJ4jbDz/84KZpMkWUdQOcY14/9/nEdzZ9Jy/5SMz3J/QzsYGYDso6A8plnj/rCogvFFoG11lbsGrVKjfNk7UJPpGPhWJEMSX0BNNFlYRAUBEQAQS1Z9Su+xBAUBOqgVDNzKlHECOEWWTFKmFW33KeBV4swmKBF/mJKOoTi8ZYVZyenu5iAVHG5s2b3cpfFoUR5I0Y/0T8pFxiDLHamPUCPhEBlLzE/SEPROPn97NWgNW/rBTmWnl5eS3R+Pv1KQSCgoAIICg9oXY8EgEWYLHCllj8O3fudKuCEfSQAIuuEN5ECEXAszK3pqbGBWZjMZZPCHw0ewgAwY0lMW3aNBfKGcHOql5CORAKgnJZAAYB+Lg/aPiEioBwEPasCA6NFIp1QhsIH8FCNUJIEBhOSQgEEQERQBB7RW16IALE00G7RsAjvIn1w0pbtHyicBIGAqIgkReCID5/aOI61gFxgFjNCwEQSZR4/hAMApuNYwgChysJbR83E4lVvtTBdRIkwX3e1QPBcJCwGmgfpKAkBIKIgAggiL2iNj0QAYQ68fzR4gnDTDRQBDDaf0ZGRm2MfrRzQj8joMNDQSCg0eAhAK4h4NlxjGigEANjAZSL9k6AOEikqqrKtQkCIGAcWj+J77iZ/F4BvuFo/9OnT3d10E4lIRBEBEQAQewVtemBCBCKGa0aAkCQ497B54/m/tFHH7lBW7RxzjGAGzpA6wvFAiBAGwKfQWWEOUHjcO8wjsBOY5AC5EF9XGdMgAQBQA4QDglrgOveAuAc7ijKYCDYB6pzmfVHCAQMARFAwDpEzXk4AszqIcImLhm0d/YFYGMY3EBo7wh9NG/cQfjycefg5iFgmx+ohQCwIhgD4NqsWbOcwGdcgYFdfPzeBUQ9lEtZkAkHZMAYATOH0P6pj1lFzC7CQiE/ByTFbCFZAA/vU11NHAIigMRhr5obgABTNxnkxb+OBcBeAMzUwSpAcEMQ3qfPOTR6BoMR7gzokrwbhw1f+I7wRouHWBjUxX2E4B47dqw7x8AwlgJlMNZAOYR2ZgMa7qMcDgaRqYv7BgwY4NoEuSgEdAM6WrfEBQERQFxgViXRQgCBzXRQP9BLuWj3CF7v62dwGCLAFYMLB82fc6HuGM6F/kaokx+LwCeIAF++dyNRhtfm/VoCfP+4jqibfLQLgc8mMwz+QhihbfVl61MIBAEBEUAQekFtEAJCQAgkAAERQAJAV5VCQAgIgSAgIAIIQi+oDUJACAiBBCAgAkgA6KpSCAgBIRAEBEQAQegFtUEICAEhkAAERAAJAF1VCgEhIASCgIAIIAi9oDYIASEgBBKAwP8DktAyLGlEeY8AAAAASUVORK5CYII=;" parent="1" vertex="1">
          <mxGeometry x="254.00266299977034" y="1544.9968773696005" width="384" height="286" as="geometry" />
        </mxCell>
        <mxCell id="BRSpTZAeTSUbDM5Jt1Pd-1" value="&lt;span style=&quot;color: rgb(0, 0, 0); font-family: helvetica; font-size: 12px; font-style: normal; font-weight: 400; letter-spacing: normal; text-align: center; text-indent: 0px; text-transform: none; word-spacing: 0px; background-color: rgb(248, 249, 250); display: inline; float: none;&quot;&gt;Recolectar&lt;/span&gt;" style="text;whiteSpace=wrap;html=1;" parent="1" vertex="1">
          <mxGeometry x="147.00197308708633" y="84.00324426987599" width="77" height="28" as="geometry" />
        </mxCell>
        <mxCell id="BRSpTZAeTSUbDM5Jt1Pd-2" value="" style="endArrow=none;html=1;rounded=0;exitX=0;exitY=0.5;exitDx=0;exitDy=0;entryX=1;entryY=0.5;entryDx=0;entryDy=0;" parent="1" source="FRESr7IEZjTQvJsylfUq-1" target="FRESr7IEZjTQvJsylfUq-1" edge="1">
          <mxGeometry width="50" height="50" relative="1" as="geometry">
            <mxPoint x="191" y="159" as="sourcePoint" />
            <mxPoint x="241" y="109" as="targetPoint" />
          </mxGeometry>
        </mxCell>
        <mxCell id="BRSpTZAeTSUbDM5Jt1Pd-3" value="Preservación" style="text;html=1;strokeColor=none;fillColor=none;align=center;verticalAlign=middle;whiteSpace=wrap;rounded=0;" parent="1" vertex="1">
          <mxGeometry x="151" y="112" width="60" height="30" as="geometry" />
        </mxCell>
        <mxCell id="BRSpTZAeTSUbDM5Jt1Pd-10" value="" style="group" parent="1" vertex="1" connectable="0">
          <mxGeometry x="560" y="537" width="151" height="200" as="geometry" />
        </mxCell>
        <mxCell id="BRSpTZAeTSUbDM5Jt1Pd-4" value="" style="shape=image;verticalLabelPosition=bottom;labelBackgroundColor=#ffffff;verticalAlign=top;aspect=fixed;imageAspect=0;image=data:image/png,iVBORw0KGgoAAAANSUhEUgAAAakAAAFPCAYAAAD3MTHEAAAgAElEQVR4Aey9B1hV25m4f5L8Z5LJ/JNMZiY3k8lkMpNMbsrN7V71qrfYe1ewYMNeQESsFKVYwAI2vFgBewcVEVQQFQQLIPZrQQEFlA4q/f09ex9QEEXQA5zy+TzLc87eq3zr/ba8rr332WiQP0JACAgBISAE9JSARk/jkrCEgBAQAkJACCCSkoNACAgBISAE9JaASEpvUyOBCQEhIASEgEhKjgEhIASEgBDQWwIiKb1NjQQmBISAEBACIik5BoSAEBACQkBvCYik9DY1EpgQEAJCQAiIpOQYMHIC+ZzfspAR/fvTv39/zLyOkVZc25SL+D54NeMq6g903c21fKX+Q0LdDhJ3L4ey2pq/YV9RSijOAweosQyYMA+/q7UG84beZLcQMH4CIinjz7EJz/ApV7auxmmADS7e3nh7ezPLuiPdl+7gVs6rsBRzN2QrC3tPwqmivrNtdzq7riUm9TwrP5jD7ugHlL6qaR22PUk/z+aB45jhvFqNZaXzeLpZWeIV/cpg6tCjVBECxk9AJGX8OTbhGd7Gd44j85ddfMHgcTQhsdfILnmx6cW7VIJWuDFtxvEXm/IuEXYxlgcFsaxu6UzAhdS3lFQpaRc3MbKHN4nPe8/matxxzj0oer5F3ggBIVCdgEiqOg/5ZFQEMglbOJrP3rfAO+ohJSUllKvzyyPM3YzvIpJQ9ZB5lQMrLFh/7SHXt8/my//piXPQbbX+i1N7cSxvNr+mpJ4mEbDYnObNm9N8gC3r43LVEdLC5zGyW3Pt9pat8Tz1kMzEA4z6Uyv6LgjhcUkJ1TyZdJx54zrRunVrWg/3JPJhIeW3dzPQZhyD2vegt+sy/F1GE1BhuIJ4X1Z4zSI4BbgfyDSLttq2EzZwJesZ+Zd96Tl+BP2/6c3YPTeNKqsyGdMiIJIyrXyb3GyLHt8ncv1ken39Nz755BM+7OtM6L3HPAiaQfP5oWRRTHbcARzazOFkQSllealc2jWfoR3+rNb/qKMNWy5lUsZVVnzxkqSKUznh70x7Gx+iYmI4sdGaya5zOBUZhq2tLdPWBRETcwy3nv+B7Y4rFJQW8DAmCGeL3/PBJ5/wcbOeWG2/QfHT8zgvd2Pi6v0cO3aMPUvGMGFDCJcDF/J/74/FK/QCcXdi2bNyEl18bgMFRC91x37cFtJyzmDrvpDZ6wPVtlsXWWLlf5L4Hfb81/tT2HD6IlfTnphc3mXCxkNAJGU8uZSZvJZAAWn3bnD9+nWOLOvBl7PXEHvnNIs7LiEqKZnroR7YbblfscpSOikmM/mmWv/Ud0NobT2f0MTzbGjjVm0lVfzgDKunf8rUI3nakbNCsV66HDuX6cxbtZ6wNO3miyua4XIwAfX+C6X3zFvcuH6dy0GejJg2komuMxjd8T1+/1FLWrVqRYuP/4//s/HlXKAHzS2+I/aZtp87x7czu88WHjy5wt5NK/jufCllMXPo8Nlv+L9PvlTbNv/wT3w8dycX9rrw6cgtVU4tavuQv4WAoREQSRlaxiTeuhMozic1NY2squfVkjcwYswKTn2fyt39s5m/M5p9rnYcegSUPuVxeirpT6sMkbsPq0kL2Hv+GGu+9eDoVe3pPLXG47M1JGXjuRJL6z54fLeK8wXafk67fIbz/nhSM1K5n1n1br7b7Fy1iNFmvRk71YxV4Wnk5OaS8/A2sYlppB535yNLHy5kaa9ZlafGEurvysINwezxXkoskBsyiSGWI/A794jc3FyyUr4n7l4Ktw858/fxW7hdqD3BWWVG8lYIGBQBkZRBpUuCrReBB+G4zhrPcI89nD17Vi1bF3XH+rsAUgqgJHUXw61GM2PSfrKUjrMv4eM6gX5OW57X3+85CCvPDSRkXmHlx+NYtOEQZ9S+zhH//XWObXWhg40PkWfPcmyDcrrPnpOnQ7GbboPtusOcPRuCS5s/Mtf/Imd2u9Bl4hL2R2pjCdvhht38yRw6E4nn6IkMnLWFc7GxnN48l96e+4je68Jfh64mOrPyxopsYk8voF2XMXivuaBeTyvPCMOu91hGLdxLbGwsIetm0m9VIGd3zOVPIzZyUyRVr0NGKusfAZGU/uVEItIZgXLKUk6ycFInWrRooS0z/LiSXTFA8RW8unzBzCNJFRvKKcuMZ/3sXi/qj/fk5ENldxK7RvXnm8p+WrTHfPlZnhU95PCSwdr6A6ezPk576i//oic2QzrTpYsb00f8Ddew2zwrKiLOf8qLvrtbsuBUunbse6E4WLbV7huylJPJTyi+vgsL1/1cz3ux+sq+vJuls8ex7eqLWzrKbuzDetBX2rZjviP+cQFZF/wYsvAIycWykqpIrrwYKAGRlIEmTsJ+NwKl6ZfZvt6RCe3Xc63oxQ/8d+u1onXOXc6EHmDv3r3s2fMdLhPnEHglnReq0cko0okQMAkCIimTSLNM8mUCRZe2MWy4Be4nH7y8650/lyeG4GLVn+7du9O9ew/s912l6mWudx5AOhACJkRAJGVCyZapCgEhIAQMjYBIytAyJvEKASEgBEyIgEjKhJItUxUCQkAIGBoBkZShZUziFQJCQAiYEAGRlAklW6YqBISAEDA0AiIpQ8uYxCsEhIAQMCECIikTSrZM9d0JlJeXU1ZW1qjl3aOWHoSA4RIQSRlu7iTyRiZQWFiIk5MNY8cMYPKkIY1SJow3Z9bMCRQXy1eBGzndMpyeEBBJ6UkiJAz9JlBQkM/8ebb4+i7jSJA/hw75Nlw5qO376NFtbNzowagRPXn2TL4OrN9HiETXUAREUg1FVvo1GgJZWZnMnzdNFVRs7HEuXjzGhQuhDVYuXQrnypVTHD++h9GWPXFxHktJiaykjOaAkonUi4BIql64pLIpEcjJyebqlUsscJuJr+9S4uJOEBMTTHT0kQYrigRDQ3dxYP8mxo3tw6SJXVm6xFokZUoHnsy1GgGRVDUc8kEIaAlkZDzC09MFs4Ft2bF9NfHxYQ0qqLNng9QxlNXTxIkD6NWzBdNtBzBnthke7lNEUnJgmiwBkZTJpl4m/joCiqA83B1Y4+1CQkIE584dbbCVk7IqUwSlnOI7dmw3EyYMYNLE7jg5DsV+7hBmzhggknpdomS7SRAQSZlEmmWSdSWQkfEYDw8n1qxx5vLlU8TENNypveeCSjjJsVCtoCZO6MY8p2GqoERSdc2a1DNmAiIpY86uzK1eBHJycvBe487mzUu4m3iRhISTJFyOaNBy40YUIaE7mThhABPGVxeUSKpe6ZPKRkpAJGWkiZVp1Y9AZuYj5s2zpXu3Fnh6OuLqYoOr67SGLS42LFkyF9tpFkwY35X584Y/X0EpghJJ1S+HUts4CYikjDOvMqt6EoiPO0+3rp+zwM2KuXNHY98IZd68CYwY3pVB5l/h4jyyhqBEUvVMolQ3SgIiKaNMq0yqvgTiYi8wbmwvIqN2c/LktkYpMef247l8FuZmX1W7DlW5ihJJ1TeLUt8YCYikjDGrMqd6E4iPu8Boyx4cP+5HcPDGRinhJ7fhvtiWQeZfi6TqnTFpYCoERFKmkmmZZ60ERFK14pGdQqDJCIikmgy9DKxPBERS+pQNiUUIvCAgknrBQt6ZMAGRlAknX6au1wREUnqdHgmusQiIpBqLtIwjBOpHQCRVP15S20gJiKSMNLEyLYMnIJIy+BTKBHRBQCSlC4rShxDQPQGRlO6ZSo8GSEAkZYBJk5BNgoBIyiTSLJN8EwHly7xjx/TizJldhIdva5QSHbOP5cvky7xvyo3sN20CIinTzr/MvoLA5YQ4zAZ+y5Il03F3t22Usnz5TKymmDN0SFv5Mq8ciULgNQREUq8BI5tNi8DVK/H07vUlNjZDmDp1cKMUW1sLhll0ZZhFe5GUaR1uMtt6EBBJ1QOWVDVeApWn+yIjd6E8rqhaCd9GVNQeYmL2o5yiq09R20TvIyJiu/YUYpW+o2P2y+k+4z2kZGY6IiCS0hFI6cawCdR240RoqK96GnDaNAum2w7DbnrdyvTpw1BWS/b2YwkI8CYkZHO1ZwLKs/sM+5iR6BuHgEiqcTjLKHpOoDZJHT/uzzCLLky1HsyiRTa4uVnVXlytcHOdotZxdZlC716t2bZtKceOVX94rUhKzw8KCU8vCIik9CINEkRTE6hNUopcRlv2ws9vsXraT7kD8HUlMlL7qz7Cwraop/iUX/thOaoHW7cuEUk1dZJlfIMkIJIyyLRJ0LomUBdJbdjgpp6ys7IyZ7RlT8aO6VOjDB3Skf37fYmPP05QkI96em/kiO4iKV0nTPozGQIiKZNJtUy0NgJ1kdT69a7q75tat86FNWsc8fZ2qlFWrpxLYOB6Tp7cSXDwBpFUbdBlnxCoAwGRVB0gSRXjJ1AXSVWupKZMMWfsmL6MH9+/Rhk1sidrVjuinO47enSTSMr4Dx2ZYQMTEEk1MGDp3jAI1EVSmzYuIDx8KwcOfMeVK+e4cSOe69djq5VrVy+SnHyLixePEhKyUb0ONWqkXJMyjKNAotRHAiIpfcyKxNToBN4kqeHDurB4sQ07dy5j+/al7Nmzir17VqmvyvvKsnfvKnbvXqleg9qyxR1//8WYDWwr16QaPaMyoLEQEEkZSyZlHu9EoDZJKd+TcnSYxLix5kyZPJTJk4cyaeLgWsvkSUPUupMmDkF5v2/fapR+goM3Pi9yC/o7pUwamwgBkZSJJFqmWTuB2iQVFLSe69djSE7+nnv3rtWr3L9/HaWcOLENpR+RVO15kL1C4GUCIqmXichnkyRQ7bFIr3wK+lb1epRyTertSs0nq8tT0E3yUJNJ15OASKqewKS6cRJ4/hR0j+ksXjytZllkw+J3Ka/oc9myGUyZLE9BN84jSmalKwIiKV2RlH4MmsDzp6BPHaI+/kh5BFJDF9tpylPQu8hT0A36yJHgG5qASKqhCUv/BkGg6uk+5VFGjVHkKegGcWhIkE1MQCTVxAmQ4fWDQG03TlS92UGX7+XuPv3IvUSh3wREUvqdH4mukQiIpBoJtAwjBOpJQCRVT2BS3TgJiKSMM68yK8MnIJIy/BzKDHRAQCSlA4jShRBoAAIiqQaAKl0aHgGRlOHlTCI2DQIiKdPIs8zyDQT0WVJLPKwoKSl+wwxktxAwTgIiKePMq8yqngT0WVIuzmNEUvXMp1Q3HgIiKePJpczkHQjoo6Qc7IcyYXxXZtiNoaio6B1mJ02FgOESEEkZbu4kch0S0CdJOTpY4ORowYTxXZhuO4rs7GwdzlS6EgKGRUAkZVj5kmgbiIC+SGqe0zCmTO7OyBFtsZtuSWZmZgPNWLoVAoZBQCRlGHmSKBuYgD5IShHUxAldmGYznNmzJpOZldHAs5buhYD+ExBJ6X+OJMJGINDUknJzHcX4cZ2YamXB/fuJjTBjGUIIGAYBkZRh5EmibGACTSmpYRbtmDSxCzbWw0hMvNPAM5XuhYBhERBJGVa+JNoGInDhfDRmA78iONiHwMA171ZO+BEYtZvA4PW19hN6bBMu8yfQsvnvmD59BHfv3mqg2Um3QsBwCYikDDd3ErkOCTxKTyPk6AHu379KYuLldyueriT260zi4Z219pOUfJ0LFyLw3exNYuJtHc5GuhICxkNAJGU8uZSZ6AuBCZNAo4HAQ/oSkcQhBAyWgEjKYFMngestAWvrCkkF6m2IEpgQMBQCIilDyZTEaTgERFKGkyuJVO8JiKT0PkUSoMEREEkZXMokYP0lIJLS39xIZIZKQCRlqJmTuPWQgEhKD5MiIRk4AZGUgSdQwtcnAiIpfcqGxGIcBERSxpFHmYVeEBBJ6UUaJAijIiCSMqp0ymSaloBIqmn5y+jGSEAkZYxZlTk1EQGRVBOBl2GNmIBIyoiTK1NrbAIiqcYmLuMZPwGRlPHnWGbYaAREUo2GWgYyGQIiKZNJtUy04QmIpBqesYxgagREUqaWcZlvAxIQSTUgXOnaRAmIpEw08TLthiAgkmoIqtKnaRMQSZl2/mX2OiUgktIpTulMCAAiKTkMhIDOCIikdIZSOhICFQREUnIoCAGdERBJ6QyldCQEKgiIpORQEAI6IyCS0hlK6UgIVBAQScmhIAR0RkAkpTOU0pEQqCAgkpJDQQjojIBISmcopSMhUEFAJCWHghDQGQGRlM5QSkdCoILA+PGg0cD+/YJECAiBdyQgknpHgNLceAiUA8+AwleUovJyigqLXrmvsr66v7ycwrXeFLZrS2FMzPP6RaWlFBUXP/9c2UZ5LVJKYeEr96n7S0oofE1bZX8x8OjRI549U6KXP0LAuAiIpIwrnzKbtySgCCo/L4+M4+FknjxVpZwm60gIabfvcC87i8dnY8gMO/lif8RpskKOkxF9jvt5eTy8foPMU5FknrtA5ulIMsNPkX30GA9TUrj/6BGZp86QGR6hba+0PRrK4wsXuZefR1rCFTJPVI5/msywCLJCj5OSmkpSaiqZJ0+r/T2PL+I0mYeDeZKWzraAAG7euPGWs5dmQkB/CYik9Dc3ElkjEVAElff0KflrfKBjb+gxUFt6DoRvu1I81ooHN78n/fQZygaNhC59Xuzv2Au69Scz4BDJyck8mzsflG29zEBp37YbhTMd1H2ZAQeht7laX93XoSflvc15dOw4KYmJFNnMgg49tX13HwBtu/N0/kKSHjwge9tOULZ1718xthl82wWm2HFrwyZWLV3C3fv3G4mYDCMEGo+ASKrxWMtIekog71kh+d7roGtfGDhMW8yGq5+LrOxISbpPetRZygaP1Eqmsk4vc8r7DyUzKJiUO3cospoObTpBt37Qpa8qq6fz3NQVVMbBIOg7GPoNAbNhqsAU4T0Kj1BXXyVjJsNXVdp27s0T9+Xcz8wke/turfD6D30RW+c+MNOROwEHcf30U+Z07kxKRoaeEpawhMDbExBJvT07aWkEBHILCylYowiqHwyweCGBrn0psppBSlIS6VHR2hVUT7MXEus9CBRBHTrCHSA1Lp6cdRvJ3rFbLbmb/MnzXkfyw4dqHfoM1kpKkV8vM8rNR/D4xEm1bfrZGHJ8Nr1ou8GP3HWbSEp/pG5TV2WK3BQ5Ku0VAc50UgW1oNWXTNFocBk6lOTHj40gIzIFIVCdgEiqOg/5ZEIEcouLyVcEpax8qq5SuvajyNqOB7dv8/hEOPQyh3Y9XpxuU1YxfYeQcfQYySkp5HutIe+7jeT4bVNL7urvSI2NUwWUdSBQu3rqM0grmN7mlJsNJ/3UGVLu3iV/+SpVSDn+lW19eHjtGncpI3vrTu3YfasISol1hgN3Dh5CEZS1RsNMjQbnIUNEUiZ07JrSVEVSppRtmetzArklJeSv9tFe46kUlLJS6dYP5RTfg++/525ZiSqTzH0BZASHkHEkhIygo2Tt2c/j42EkPXzIM3tn6NRLuxJTBNKmE4W2s9VrTJmBhylXVkDKdShlBdR7kLqCenTqtCq3ommztdeglFWc0varzjyzdyE5KYns7bvU+uoKrPL0onJNaro9dw4dxu3LlqqgZms0zBBJPc+rvDE+AiIp48upzOgNBHJLSyhQBTVAu8p5LoH+6gpKvQZ16gzPZjnyZPEyCpatpGDpCgrcl/NkiRdJj9JJevyYwtlO2psgKtt36ctTJ1d1X+bhI5QrKyBlFaYIqu9gys2H8+jUGfUmiqJps6q37dqXgsXLuJ+VRfbOvVqxVa6+lP6VmzCmzeb24SAWfNGMqRoNiqBmvbWkcohZOReLrp3o0KGDWjr3sCf01iPunNnC2JURZL2B47vsfnplP1arjpOSn83t01uZuj6G/HfpUNoaLQGRlNGmVib2KgJ5xUUUrFyrXbkoElBWUUrpMYBi5SaJu3dJj4yibNAI7V16yipHKcodfV36krV7Hyl372gFpWzvV9G+az+eOrqSlJ5O5sEgypVrVspdgsp1LuWGCbPh6k0SyffuUTx1pvYmjcqxu/ajYNFS7mdkaK9BKUJS7g7sb6GNTRHd1JncCTrCgo8/riao55IaPLiep/uS8OsylomWi9m6dy979+5lX8AZ7mU/JefhDcIuPVC/t/UqhrrYlnvCmf8y9+ZqxkOi/Wz5nzF7yNRFx9KH0REQSRldSmVCryOg/E/9yfrN6vUkzEfA0NHa0t+CEusZPEhOJv1CLOXDx2kFUblfqTtwOFnKNajMDAqdF2lXYEMsQSm9B6nbkrOyyAw9gdr3gGHavgePgkEjyTh1hgdpqZTMctKOr7RT+u89SF2tJeXlkbP/YMWNGcMrYrOEAUPBagZ3g4/i9te/YlOxelLkVFnU0331vnHiHv69FrF1V+LrcFVsL6esrISiomJKlXv1gbKSIgoLCykq0W4oq9yh7i2nohqUlVNeWkpJSbFaX21Tqu0jP8KdDyw3ciMzjQs77PnIOqBBV27aUeVvQyQgkjLErEnM9SJQXl5OTna2eh0o9WIsaTHnSVNeK0rq+YukXErgXkoKD2/cJP1sNGkX457vT798hYfR57h365Z6vSg95hxpFy5q98dfIi02nqS4OO4/eEDq5Ssod+s9b38hloexcdxLTFSvU6VHx7xoGxtH6vkLJF27xj2l7aUE0pT9VWLLuPk9t0+EseD995lWRUzPBfWDH+Daqxfuy5ZxPympHlyS2NrHkRUrwknOzCQzM5OsJ0WUl+dzPWg53VzDKSl+SMguB774ui3tekzhu2ulFN4PZOqQr2nRogXNR3kRfjuSjQNnE3CjmPK8m/g4fcvA7Yr40gld6sPK6StxXjySL5q3UNs0M3MjPCmPpzHL+btIqh75Mt2qIinTzb3JzDw1L49gCwv2vfceB377Ww787nfPy/7f/Y7DHTtwescODrz3HgG/+c3zfUq9fb/7Had8fQk2N2Pfr39NwK9/zYH/+i+1jrIveOBATm/xZ99vfkPAr37Fgf/8z2rtlT5O793D4ebNOaC0/Z22bWXfx6ZNI9zDg/1K2yqxKXEdfP99Ig4GsuCDD7B9SVDKHX0zf/hDXPv0YbmnJ4sXLeJ+vb7Mm8Y+i558+tv/44MPP+TDDz+kxcJQCp7lcXXnLP4wIZDisrv42Y7g/S4ruXj/IRl3jjDB2ZGp3x0kLCyMXYuGMHTFHg4unYTn2Wxyk08w5Zvf0tw+jJIn8exY58GyY+lkp9/k/Jkwtc266S1w2R3GnbA1fDpGVlIm84/wHSYqknoHeNLUMAgk5+ZyoHNntms07Hyp7NBo2P/++5xctw7l/cv7lTZhy5cT2KZNjfbKvsCWLQlfsaLGvqr9nNy4UZXdy/0r7YMHD+bY3Lk12it19/zoR5zw9cX+F79Q7+CrXD1VCsqtTx+8fHxw+uQT5vfvT/KjR/VIiLKScsBz+XES09NJT0/nUV4h5WW5XNppzwfWhykuuo3/4um0dY1S+80Pn02P5r/iT5+01K6kPvuI5vP2c+3KHuYuCSYuyp+x1qvZs8aZ7UHH2evtwYXSQlLCFjCqezO1zUf/+8+MW3eaxHBvkVQ9smXKVUVSppx9E5l7Sl4eAR071hCBIhJFBgf+8AciNmxgl0bD7peKUid85UoOtmxZo70imYNffMHJ1atVub3ctvJzxObN7P/Nb2pIUJWUmRnHnZxqtFdi2ffTnxK2ZQtOv/rVc0lVCsq1d29VUPNbtWK6RoNDnz7qky3qntL7bOntxkbfy+oDap+3K88lvqqkltrRdsEZdXfmCTuGjRqOX5zyWFsg5y4X7qaRkRXPihHzWOUxFsfdpzm+bTK9Jqxlu3cYj+5vZ/icmXhe0D78Nm7VN7huC+bGMZGUFqL8/SYCIqk3EZL9Bk8gOSODIzY26mroUJs2VC0H27Th6PDhtUtq+XJCra1rtFdWV6GTJ6sSU2RWKaWXXyOU04WDBqGMVXVspf0JFxeOzZ5dJ0mpgvrBD6hcQSmCstNomPaTn7B6zhwe5eTUI1eJbGw/l1Vrzle/9bs8h4v+tvxuzAGKi75ng+tkmjmEa2+GyI/Bbeh4BtiuIujIEba7T6L7qhASM55wZn5fWg6w4kx2ATeO2vPl131ZcaIAUg6y2MkGh7VHOHIkAKcev2HS6hBuhnryxyHau/ti5O6+euTN9KqKpEwv5yY3Y+UBrcqKJHzVqlcW5XpUxPr1r11JhXl4cPrAgVe33beP8OXLa0imqqhO+ftzauvWV7aPDA7mmK1tjfYvr6QUGSmSeqWg5s7lUV5ePfP6iDC3HRwNvaP+epLnjcufcPeUP5N8zlFS8pCw/RuZu+vqizv2Uo7hPKE77dq1o/2UTVzKVu7lKyX93HbGrz5DrvI0+e8Ps3OFI6fVpzQVctV3ISM7tFPbdOzcjeVHbvL4ShDWK0NJycvmVoQ/U3yiq8vyeUDyxtQJiKRM/Qgwgfmrp/s6dapxuu756b4//rH2lZRyuu/LL2u0V0/3NW9et9N9//mfb326z/GXv1RXTG7KKb5166hcQdkoK6jZs0nPl6/BmsBhbLJTFEmZbOpNZ+IpubkE9uhRY7WirHaUFUvA3/9eu6RWrOBQ27Y12iuSO/T113WS1IE//rHGSk1pf3TYMI47Otbo+/lKytcXx5//HJcuXbTXoFq2VIWlCGrN3Lmk1XsFZTp5l5kaBwGRlHHkUWZRCwFDldTen/yE8G3bWGptzfI1a5jfooVWUD/+sbqCUm6tlz9CwNgJiKSMPcMyPwxaUjt34m5hgdNnn6l3+Nn84z+qgpIVlBzYpkJAJGUqmTbheRqqpNRb0P39cfjpT9XbzG3/4R9YNXs2abnK7QnyRwiYBgGRlGnk2aRnqUqqe/ca132eX5P64IM3X5P69tsa7dVrUl99VbdrUn/4w6uvSVlYcNzBoUbf6jWpn/xEvSvR8Re/UJ/Zt3L27Le4i8+kUy+TNwICIikjSKJMoXYCiqQCunZV765TfvhXLYpoDvzlL+oTJ5T3Vfcp75Uv+4Z5enLwq69qtFf2HWzVSv2elPL+5baVn5UnTiPmEpAAACAASURBVOz//e9VEVVuq+w7eMgQjtnb1+hbiWXvP/wDJzZtYs6vf43XtGlkyDWo2hMte42SgEjKKNMqk6pKICklhfA9e4jw8+PUK8rpXbuICg9/5T6lTdSJE5zZt69Ge2Wfsj0qLKz6vs2bObVpk/rMP2W8qJMn1WcDvjy20j7y0CEiQ0Kqt6+I8bTy3a6QEHwWL+ZRdnbVKcl7IWAyBERSJpNq051oSXExz0pLKYJXFuUhP8+Kil65T2lTWFxMYXn5K/cr258VF1fft2ABRe+/T1FYmLpd6VsZ41XjF5aVUVhS8sp9Sv2nhYXkF1Y8hsh0UygzN2ECIikTTr5MvYEITJoEGg0EBDTQANKtEDAdAiIp08m1zLSxCFhbayUVGNhYI8o4QsBoCYikjDa1MrEmIyCSajL0MrDxERBJGV9OZUZNTUAk1dQZkPGNiIBIyoiSKVPREwIiKT1JhIRhDAREUsaQRZmDfhEQSelXPiQagyYgkjLo9EnweklAJKWXaZGgDJOASMow8yZR6zMBkZQ+Z0diMzACIikDS5iEawAERFIGkCQJ0VAIiKQMJVMSp+EQEEkZTq4kUr0nIJLS+xRJgAZHQCRlcCmTgPWXgEhKf3MjkRkqAZGUoWZO4tZDAiIpPUyKhGTgBERSBp5ACV+fCIik9CkbEotxEBBJGUceZRZ6QUAkpRdpkCCMioBIyqjSKZNpWgIiqablL6MbIwGRlDFmVebURAREUk0EXoY1YgIiKSNOrkytsQmIpBqbuIxn/AREUsafY5lhoxEQSTUaahnIZAiIpEwm1TLRhicgkmp4xjKCqREQSZlaxmW+DUhAJNWAcKVrEyUgkjLRxMu0G4KASKohqEqfpk1AJGXa+ZfZ65SASEqnOKUzIQCIpOQwEAI6IyCS0hlK6UgIVBAQScmhIAR0RkAkpTOU0pEQqCAgkpJDQQjojIBISmcopSMhUEGgUlIHDwoSISAE3pGASOodAUpzwyZQWlTIs2fPeFZYTGkdplJeVkJhcSnltdWtlFRgAGXl5bXXra2fV+wrLy+nTB28jJKSEopLa4lErVvL/lf0L5uEgL4REEnpW0YknkYiUEZe/DbGt2zGJ598wietuzJyWxy5hbWpqozccxvp67iPGwUllJUWU1hYUlNClZJaboGZ6w6C7uS+Zk7llBQXU1Rc25hVmhYnc3jzYszXxEPpVbyWLcfp4O0qFaq+fcKto550dQriUdXN8l4IGBgBkZSBJUzC1Q2B4pwzeHw7mY2hV0m8e5e7Z3djN70bVsHptQ9Q8oTHOU8o4Qm3I3cw1yWcpy+3sLUFjQYWduOzid7suvXs5RoVnx8Q7L+RZZsSXrP/pc1Fd9nqYc3nc45TQjH5eXnkPC15qVLlx3wu75zNH0Zv40HlJnkVAgZIQCRlgEmTkN+dwLN7OxnR2YlDt4pedFaSQ+qDdNKTslF+9Jc/fUxKxiPyi5Uqz8i4k052TjbpuU8pKk4n0m8OfQat5mJ6IVBKzoMbxMfHc2nIEJ4qklrcm1bT17L+xFkuX7rEtQdPq626Sp5cYt1cG0bZ7edhRjaP8x+RePM6V+PjSUjMUWN4ERxQlMhOTztazwtXJZWbk0v201Ioe0JaVhYP7t/gWkI8l5MKKKOAa/sc+WDSXh4DT9NucOX7e+S9zmnVBpIPQkB/CIik9CcXEkkjEih/do5lnTvQvM80tp04ycnTF7iVWUrSXi+chngQD+QHDuejgYNYf6UcnhxlWkc3fFfP4pNp24lLOsfaQb/nV//Rhol+l3mceJzpFl/RrFkzPnzvPTw1GnI9+vHtmOn079+aNi0/pdmwBVzIenFqL/vqdiZ9/l/85oOxbNrtz6TZZvz1T81p36wZf+k8gb1XX1rVlVZIyi0GSi4wZ8ZMRm9PhJwg+g8fS/e+39C5TTP+1t+R6JR0rgW60Wx6EA/TLuI8qgXfjJhNVGYjQpahhIAOCIikdABRujBQAuX5RHh1pvWXX9Ly09Z0mL2J2GtH2eO/nICkHC77T6HF5z3wjk4nJ241TrsiiA1w50PLjVwvyOJm+HomzQ6nKP88yxzGMHjDNRVEprU1izQaLnv0oX378cwPeUhJWT6hbn9j8clMyp7jSmTv6uU4rLkKJSexaNuDgcsi1dOHd3y70ddjF+fOHeVwQAAHj4aTlJ7Ibq8ZtFYldY4Z02wZsTUR8g7RvUVvJvpfQ1nTRS39lCVH4ri4dyEfdByF1bSR9Pe5VKcbQ56HJm+EgJ4QEEnpSSIkjCYmkH8JT4c+DF99gIOHA/Fd4cPKPYEsmzYNv9Agtsx35dCFS9w7vYIPR23iRkEW34evZ6pjFMnXfHG2aYX3pYo5TJ2qvSa1uBdfTlvPvjuKOnIJdfsQ92qSuse+NctxVCT17DhDJ9jjFJKs7eTqZj5y2oGvx0B6tW9PF/PxHLuSyN6VM2mjSuo8s6bbMWpbImQH0H20M2vOZ6lto5Z9ztKjCSTsceCX//1nmn/djeV7M6qdamxi2jK8EKgzAZFUnVFJRWMikHXtGP4nbldZ1aRydPVkZm6MJv5kCMv7dMR60xbCT27BYdkcBvdbSeydVDKjl/GBIqn8TK4fX4e1axzkH8Nlag+mh1Zc35o1i1MaDQ8X9+KbqT7s/v4JlGcT4vYRHhFVV1J32LXKC1ffJOAkQyfMY2Fkvoq5/NgEWs7bzu0nVahXO933kqRGzWNVtHL1Cc4sbcayI7HE7HGn1ZwDXDi6jkldp3Cial9VupW3QkCfCYik9Dk7ElsDESjnYeR6hltaYjljDvb29syaOpphc205ptwKdzeYCT1aY7b6FEVksWFyM9pO2kxSbhnPwubx6/5ruFJYQNKZFXT/0ALvbac4EuTDAMsJal+Tv/iCKRoNtxZ04tPRK9hyvQDKszg093fMP55RRYyPCPG0ocM3Mwk85Mcwy/60GWSl9jF0fG+8jsaTq960UYGh6DZ+CyfwwdxIKDnLlPETGLDpNmTtos0AOzxOa69hhbv8EbeAc0Rtsef3Yw6Qlvs9B92/wWzsd5xNle9NNdBBJd02EAGRVAOBlW71n8CzhG3MnDqJSZMmMWnmQjYmKKfllLvokgg+Fk5gQrb6MTnMh7CLN1HWOMWJp1i1P1b97lFxxgX8Zsxm4brLFJPBmS1Oal9TPvqIa8rdfRvmsf7IBa5kFEP5M25HeHPmXtU7/MrJiD2Ax3RXdvj5YGHZi8+7D1P7sN5xifyXfVKazeWzIWyISIGyB4QeDeGAEuOz62w9EE5MsnapdD/Sh6jvH5Jy5RTeh6+q16kKbobh77KC8JSXO9VOWf4WAvpKQCSlr5mRuAyXwKxZ2mtSh0PqPofsg/SwmIFjeE7d20hNIWACBERSJpBkmWIjE6h84kRgYN0HfppMRNRFYpO116Tq3lBqCgHjJiCSMu78yuyagsDbSKop4pQxhYABEBBJGUCSJEQDIyCSMrCESbj6TEAkpc/ZkdgMk4BIyjDzJlHrJQGRlF6mRYIyaAIiKYNOnwSvXwREUvqVD4nGGAiIpIwhizIHPSFgUpIqKSnmzp1b3Lt3V4/KHe7fT+TBgySysjL05LCQMN6JgEjqnfBJYyFQlYDJSKqwsJDdu/0YOrQLY8b01YsyenRfxo3rz9ix/fjqq7/h5DStam7kvaESEEkZauYkbj0kYBKSKi4uZsuWdTg7WxEff5yYmKAmL9HRQZw/H0x8/AnWr19Eu3YfMGfOFD08RCSkehMQSdUbmTQQAq8jYPSSKi0tY+vW9bi4WHPpUhjnzgXrRblwIYRLl8Lx8VnI8OEdGTOmIw4O1q/Lk2w3JAIiKUPKls5ivXXrOqdPn+Ds2VONUqKiIoiJOU1h4et+87POptakHRm9pJQVlKurIqgTqpxiYo7Q1EURpSLMtWsXMGRIWxwchjJmTCfs7UVSTfqvQVeDi6R0RdJg+klIuMjAgR346KPf0rz5HxulfP75/9C27YekpSlPRTbeP0YtqS1bfFRBKafUFDE0tZwqx1di+e67BVhYtGf27EE4OQ1j9OiOIilj+XcmkjKWTNZ5Hsqpeu1/OC2ZPXt4g5c5c0ZgY2NG//7fkJoqkqpzovSpop/fd7i52RAXd0zvBKWsoszMOmBj0wdHRwu1iKT06eh5x1jGWGofMLtvzzt2JM0NhYCLy0zGjOnGzJlDmDq1f4OXOXOG4+c3n5Eju5OSUvGLMg0FVj3jNMqVlFZQ07h4MYTz54/qzQpKWUklJJzEy8uRMWO6M2uWOfb2Q0RS9TxoG7J6YRkov/7p1pN3KEdOcmuhF7cu33nRz9v2+RRulMOFXPi+ah9V378iVqVubC5cl+fVNuTh8rxvN7dZNGv2P6xc6c7OnX4NXoYN682CBeMZPbqHSOp5Fgzkja/vWhYunI5yY8LFi6GqoPThZglFUJcvR+Dp6Vhxms8cBwcL5s4VSenTobX+PjSLgBZnXlMiX7O9av14aHETWpx/qW4UNI+tR7kEzcNL6GM9l6MpT/nbafjgDDQ/D81PQ/OqY1Z5r+z7Mgp80yD4kT7RNd5YXF1n0qLFH9TvOzbGLOfPt8PZ2RJLS5FUY/DW2Rj+/j4sWTKL2NhQ9cYERVKVJTb2WLX3yueGLpVjK69Xr57C09OJYcM6MGuW2XNBiaR0lv537sgvBf4jBDQHQBNQpQSC5mDF58OgUT5X3V+X90Gg2VmA5uMeaP7avm7lb+3R/O+X/Oyn/0RW/hO2PwSb7SfQdJ+NRunv5TiVOJRth2HI+WI6ewcT9LDknblIB28mUCmpmzevvrmyDmo4OEzFxWW0SEoHLButC+Uuvm+++YARI3owcaKZ+gVZ5UuySlG+MDt+/ED1Vft+QMVn5VX3RRnj5TJhghJTD/UUX+UKShGUSKrRDpFaB/JPgX8/WiEgRQDBaEVwCDRKUaVQjKbDKDRb0tAcq6ij1KutVPa1K5t/bTeQE3u3EXkk4M3l6CFOBQUSceQg0WfPQrn2N+qWP04mMjKKqDyYcPmFlBQxKXH+MBisr5TTwtmPn4xaxCGRVK1519VOkZSuSNbsx2iuSc2ePZnlyx2JiDhMcPAujh7drZawsEDWrl2MuXk7Nm9eiL+/O1OnDqZ167/Qvv0ntG//sc5LmzZ/Uy9o+vouZv16F/z9FzNqVE8sLTsxf/5wVUyVghJJ1TwoG3uLfzL8q7KCqhRKQAmavU/RBJbwo3D4Ub/p/Oj9ZuyOvsLZyDP8bE+mdr9S503lYJm6svnpoWJOxlzU2dRCHsH/KjErAq0Q1I+OKIKCrxdtR9NzOr+YsJygtFKdjSkdvZ6ASOr1bN51j9FIysnJlj17NpCRcY+kpGvPy+PHiaq0xo7tzalTO4iK2ouT0wSmTOmPr+98fHzm6rR4e89k+/ZlREUFcfy4H8eP+xMVtQc7uxGMGtVJvd28qqBEUu96CL9be2UF9S+hoNlfjGbbI/6/4Fx+5rCLn/3pY+at9ePOM7hzN5E7V+Kh6AlDBg3il3/5VN2v1Kmt/OufP+YfVl5Ecxx+eAT+Fg1/DIc/hNVSTsIfgrL5vPtAUq7FU1AKeSXaEpkFfzgOfzgBv1AEpZx2rBDUT47C1CslfL1wO5p+s9H0n8MvJ3mJpN7t8Khza5FUnVHVu6JRSWr7dm9SUm5w61bs85KcfJ2DB7cyZkwvVRgnT25n7twxzJgxlMDA5ezatVinZds2V44d8+XatSiCgtYRHLyRkye3YWs7TCRV78Oz4RooJ89UQSmn+BRJrYpH8/sP6T/FjoL8PLJTEikpyK0RQFZqCvkPEimoQ7l9N5HPTzzTXs+qvJaliOVVRbmedAQ04aBpN4aN23aTnFfIR6fgvaPwXij8ovJ0pNJeuUam9HkQ/v+jygqqiG8WbtMKapATmoH2Iqka2Wu4DSKphmNrspKaPn0w+/YtYdu2BTot/v7zOXJkAwkJp0RSDXfcvlPPyuUdRVC/rFyNKKf5AkvQ+GfQ81QeyYVQ/NIIaYVwqwCSSiC59DVF2QfcBq4VQqfY19zc8KobLZTTdhuS0HjGodmQzM8i4GfKdS9FRlWLIqbKclC7oppy+RltF29H03cWmkHz0AyZL5J6KX8N/VEk1XCETU5SERE7mDFjBFZW/di9exH+/s46LZs323P4sI9IquGO2XfqWV1BVV6DqjxdpvzQV0R1FH5wBH4YBGNvQFwOxOVqi3K79w8DtfuU/TXKYfhhGGg2JvPrLXf5/DR8GAEfn4JP6lIuwidTFvLJZ5/zyYYYNOvi0GzJfbFiqhRT5Wsg/DIUJl9+SgdFUH1moRlcISiR1DsdI2/TWCT1NtTq1sbkJHXihD+ennPx8rLn2LHNBAWt12k5dGgtp0/v4/Ll07KSqtsx2Gi1FEH5JcO/Va6glB/4ygpGOc12sqIooll5Hc3yWFVa6n6lzpuKcipu41X+rcMI9mzyeec5TR43hm+3JtA1Hv5RiU8Zv4qg/u0YTEx4Qmf3nWh6z6guKJHUO/OvbwciqfoSq3t9k5PU4cPrOHs2kOvXz6qrHeW0nC7L5cunuHLlNNHRhzlyZL1ck6r7sdjgNZVTfL+qvK6jSOkUaE6DZks2mkmb1PLzNeGYLfXns+nL1RsensupUhCvez0Bf5u1iXB/b53O49hj+Jlyi3ulpJQV1DGYkPCUrh470fSaoT29p4ipapFrUjrNw5s6E0m9idDb7zc5SSk3MijXjJSbGnRT1qOszsLCtlQryp19ylhy48TbH5y6bKl8Ufe9yhWU8oXXiRvRWCxBM9UHi5BERgzorZb1nktILIHOF0CzS7nrr45lD/S4BDszQBnLN/kNJR18wi5x9FBAtWlGZ4PvPW0fG5Pgx8oqqvImiUD4l0pBLdmJpudrBCUrqWpMG+ODSKrhKJukpCrl8a6vR49uUoW3bNlM9bb2efMmMn/+JObOHYuX12yOHdOKSu7ua7gDuC49KyuoXyuCUm5YCILxl8F1zgymWVrgYjcV0H5RtrKv4xkwNhamXq1bmXENBlTeJKEIsC5iOwy/9ggjYJ0XNwvA6xZ43YX3lbv79lT0ofRVZQX1c1VQhXRdsgtNLzs0Q52rr55kJVWZwkZ/dV0wW30skjxxQvfoRVIVq523EVZIyGaU04f9+n3N+PG91EfnW1kNUL8svGrVPJGU7o/XeveoCEp91JEiqIprUNOvwtrMenf12gal5TDsYpXvLb3ulGDV7QHwcTQsSYWvokCzu0JMlaumqnUPwk9DYNLlIjp6KIKaUbugFFn1n8M/WLpzoOC1YZvejpwcyMyErCzdlvx8XB1taNHyj4ikdH9YiaTeUVKHDvlgYdEZPz9nAgKWs3v3YkJCNnDhQrB6Q0adT/dZdsDeaZruM2xqPaalwf17kJyM30P4D+UaVKWgKn/wKyudAzAsHqYkaFcwWcUw5TJMuVL/0immQjCV/df1VRGSEsvL8VVtfxB+HKLcxVdCu9quQVVdRZk5ohnizOiAOBJ9/GD1avD2bpri4wPz58OUKU1bRo+Grl2hUyfo3Fm3pXt3XDu3okWHj0VSDfDzxqgktW/fRrKykkhJua6WBw9uoDxxouqXed9mxfS6NspKqlJS69bZs3PnIrZudSEgYDWRkQHqqcA6S2pCN+zHDYbgYAgKen05cgQCA2HJEli8GNzdm64oMTg5gfIDwMKi6Yu5ObRqRdmw4ay7nqF9KoMiAUUGVb9AW/l5b8UK5hC0rlzNKKfa6lv2vWKMquO9w3vlSRWTr5TSVr2L76XbzKuKqfK9uSOawc6M2R1NhvkI+MmPtb/bSqOR13/+Z/jFL+DnP9dt+dnPcf3iLzTv8jn3799tgB/TNbucN2+6PAW9Jhb93rJgwWy6dWvFsGF9GTasj1rMzbsxd641hw5tQ3kskvKIotcJ5222V0pq6NBObNjgyJ497mzf7sbBg971l9T0Adh/+QH8+tfw3nu1l3//d/mB85ofunkffMzJwDDWPIJZ18HpFjh9X0u5BXNvwtRrdahbWz8NsM/5Dsy6UkyrhTtqfg+qUkpVX9UnTTgyZt8FMv12QfduYGUF8+Zp/zOh/IeiscvcubB2LRw61LRF+c9fTAxcuADnz+u2nDvPArvxtGzzF6ZNG43yhPKGKE5O05g/35Z582wxN+/EkiVW8hR0/dZS9eicne2YP9+GvXt92b7dRy1bt64lOHhPg0pKuSZlbt6eQYPaMXx4F8zN22JvP47o6EP1W0lN7YN9969h0CAwM3t9GTAABg8GV1dYulS7olJWNE1RPDy0p5KU1V1EhF6UgruJOCfBhzvu8sW+RMMte+/y1aEkfG7k85MRrmgGKqfwXrrNvOpnRVAD5jJm/wUeK4/LuJcIqanw9CmUlUFpadOUEtP4VSHOC+ZgM7U/S5ZMwc1tnM6Lh8dkRo7sTIsWf6RVqz+rD8X29LQVSVXXgH5/cnS0RTndl52djHKar7I05Ok+7eprEwcPbmLv3nVq2b37O4KCtnDmzIH6fU9qTCfsZ00C5eJudnbtRamj/NBp6j8Vvz6iqcOoOn4RMDs2H82yeDQrLhtu8bqEZu11PBLy+NfxHmjU60yvkZRyim+APeP2XeCxHhwWVfNhCu/LyspQzuT07NmCESO6qv9ZVf7Dqsui9Nu//zd07PgZ3bu3pFu3FgwY8A29erUiNfWBUWM2qmtSdXnA7Nuc1ntTm/DwbZw8ueN5CQvbxtGjm5+fWqzzLeiONkZ9sDXG5AoB+/gCNCsvo/G+arhlzRX+acNNllx+g6TMHfnBAAfG7jsvgmqMA+ylMYqLi1m3zpPVq52ZMGEg7dp9RJcuX+i8dOvWnM6dP6dTp2asWeOCjc0wBg1qw9ChnUlLS30pKuP6KJJ6h7v7KuWlfDn45RIcvKH+krK3Nq6jqwlmY1KSMnPghwMcGLP3HI/LmgC2iQ/57Nkz1q3zYunS2Tg6TlR/Dc+qVZPx8pqk07JixWSWLh3H2LHdWL7cCVfXqYwc2R5Ly+5cvZqAspIz5j8iKR1IqlJWr3ut80pKJPXO/9ZMQlLKl3gH2vOjAQ6M3hvNo+rfRX5nhtLBmwk8ffqETZtW4e4+Ezu70Ywf343Fi8eoZdGi0eiquLuPZcmSsUybNgAvLyfc3KYxZMhXjBrVnYSEuDcHagQ1RFIiKSM4jF9MweglpQhqgD0/GujImL3RPH4xdXnXSASePCnAz8+bhQttcXW1pk+fLxk06FsGD27HoEFtdVaGDm1P376t1WtQiqAWLFDu6mvF6NE9iY/X3W95biRsbz2MSEok9dYHjz42NGpJVQjqBwMdsdxzVgTVBAfg06dP8ff/Djc3G5ydrZk+vR8+PjasXm3F6tVTdFJWrZqCt/dUVqyYiI2NcsegPYsX29G/fwv1l7devBjTBDNvuiGNRlKOjtM4cGAzeXkPSUu7pZb09Nvql3sb6su8rzu99/J2Od3XeAe40UrKXLnF3J4fmCmCiiaj8ZDKSBUEiooK2bx5DU5Ok3B3t2PWrIFs3myHj880nZb1620rBDWAJUvmqoLq1+8Lxo3rw4UL0SaXD6ORlLPzDGbPnoCf3xo2bPBUi4/PUvbv92+w70m9LKPXfRZJNd6/K2OU1L8pt6D3nY1moIMIqvEOpWojlZSUsnHjKry8HNmwwYMOHf6OnV0/rKx6Vit2dgOZOdOcGTPM1Ffl88t13vy5B9bWfVVBubvPoG/fLxg/vg8xMVHVYjKVD0YjqcWL7XnvvX/kX//1H3nvvX9Sy89+puHbb5tx+PB29X8hun7ixOuk9PL2N0lq3rzhWFq2x8bG0lSOuwabpzFK6mejF6LpOwfLvedkBdVgR87rO1a+DrhhwwoWLZrO9etnCAzcxNy5E3BwmFRRJuPoOBknpyn07fsV7dt/SPfuLdTX3r1bqfuU/Q4OdSmT1PrLljmwaJEd/fo1rxBU5OsDNPI9RiMpF5eZTJgwCA8PJxYtmqsW5Xe8bNy4Qq9XUg4OFtjZDcDKypzo6NNGfrg1/PSMTVKL4rP4p1ELsdgh16Aa/uh59Qjr12sFdelSGDExR7h4MZQrVyK4fPnk86J8vnUrhh07VrJu3QKmTzdn3bqF7NmzRq37cv2qbau+v3HjDFevnmLhwun0799cfZxbTIzpCkrJiNFISrkmFRDgS35+Ksq1KKU8enRHfQKFvl6TcnAYyty5Q9Q7g5QnqQcF7X/1vxLZWmcCyhMnZilPnFgaj8YroenKigTt0y7eNgbPS2hWX8HjagEzQ6+SJk+SqPMxoMuKyveglFNucXHHOX/+qCopRVQvlwsXQvD2nk9kZCDJyZc5e/YwCQkRbNiwUK177lxwjTav6kMZQ/nO1cCBLdW7+EzxGtTL+TMaSTk52dJUT5x4+fTey59fdbrP3n4o9vZDsLDoQM+eX6A8pDYyMvzl/MjnehLIKYWVt0sYF5XN+LM5TVNichl/uYTxV8sZfy7vLWPQxu+fXE5WPRlIdd0QUG6SWLHCUV3ZJCSEEx9/4rVFWQ0dOLAOD4/pLFo0lVWrnPDwsGXXrtVcuhSOsgqrrb3Sv7JCc3CYgLl5a/WLunFx53UzEQPvRSTVBLegVwpq6NAO9OrVAguLLly/fsXADyX9CL+oDNKKIK+8CUtWPnkz5pA3ZAR59x68dSy5ZfBIWRrKn0YnsG7dCr7++m9MnjxIfQTRlClDqK1YWQ3Bzm4Uffq0oUOHj9TrUT16tMDWdiRWVkNrbav0q7SfOnUow4e3ZdSobiQkxDb6nPV1QJFUE0lK+aJe794t1Gdv3bhxVV+PD4nrbQikp8GnH8NP/hGuJLxND9KmCQmsXbuUGTMGsWyZNYsWTWTBgvEsWDChTmXJEmuWLbNh6VIblPd1abdw4UTc3MbTsePHDB7cgatXLzXh7PVvaJFUI0tKuZNvzpzBdO/eHHPzDo32mzz179Az4ojS06FNG+3vBLsqKWuZUwAAH6hJREFU/wExtEwnJt5m9uxxWFh0VH8VhqVljwZ+7ak+PX3AgLaygnrFwSKSakRJWVp2xtHRAjOzr9WnJF+/fvkVKZFNBk9AJGXwKczIeMz9+4kkJ99vlJKUdJ/0dON+mvnbHhRGJandu9fx6FEi9+9feV7S0+9y5MhO9VbOiIjtHDvm1+glMnIXdnYjGD68A8OHd6RXr+aMGNGTvLzct82btNNnAiIpfc6OxGZgBIxGUnPmTGHZMnsiI4MJCzugvp4+fYRz58Lw9V2p3pywc6cXW7cubbSybdsyduxYzv79q7GyGqT+wrI+fVowcmQvEhNvUa6HvzTQwI5f/QxXJKWfeWnwqArJTs6koKiU8vInPLp9jUtxccTGxhJ79Q5pz6oGUE7ug9tcUvbFxpKQWm1n1Yom/95oJKU8Nn/06H5YW49gxozx9OzZGjOzbyqeTKx9OrGun1Jc2xOPhwxpr97p07Vrc/r0aU3v3q3p1esLLC17c+fO9yZ/4Bk1AJGUUaf39ZOLZ0VLFw4npFOQf4IZ7/0ff/3sc5o1a8bnbTph7nOUO3lK6zJy75xgqVk3dZ+y/8+jHdhz6SHP5PtwNfAajaSqzuz8+ShGjuyEq+sQli4dpZZly0azZIny3rJRipfXWGbO7EePHp/Tr18L+vT5glGjenHr1vWqocp7YyQgkjLGrNZhTnEs/3weBy89JCsjHJcPFhL1VGud8qTjOE7rxHjf7yksS2PL2Bl4LIukoKLXyztGMWD1QVKf1GEYE6tilJJauXIRe/asQPntuEFB65qsHDu2iU2b3Fm8eA7OztOQW81N5F9Xaiq0bg3/8R9w7ZqJTFqmCfF4NXfmUIIiqZO4fbSYsxWSUuikHvNhucM8LhWnsmnqeIbbHkBulXjzcWOUknrztKWGEGhAArm50K4d/PzncEm+89KApPWs65cltYjIguLnMebEeOK5YAjBuXB3+0LMW32Fua0j7u7ueB64xtPnNeVNVQIGJamn6fHsd3fBcc4c5ijF3p39EfeBIq4fOMvVmxmUVJ2d+r6E64FO2vpz5uC1M4xHNeooG5I47LmAuUq/893ZkKB81T+f2FNH2BB+75UtZKMQeC2Bnj1Bo4Fz515bRXYYG4HaJZV73osVHgM5UPnj5O4OFtmMYNiwYXzbrSu2R+LIf+E0Y4Pz1vMxIEmVcv+EN0P/uSWDra2xVsrIfnSy20joo1ts/3YOa/3iqXZKtyibc3sn0XNEb219a2umjOuPx+Yd3Kg8GayiS+es6xwmmo1jstLvhFF0nDQaj7B4zp04wKrQO5S/NWJpaHIEysqgRw+tpM7L89dMJ/+1SyolwBOX4VM4Ue1nj5ZO/mk7vhy+koTHYqmXjxcDklQht0N24NZ+K+nPZ3EDNzcvPMNC2WG2GN+dV6osmUvJ+T4Y2xEjWHHlReLLk04SFnyYO1VtlhOCdcd5nHxQ2XEp18JWsS7mceUGeRUCdScgkqo7K6OqGY/XF9prUpmPT7LgE0+ef13/SRxLpnRkqFMsmVlnWO69mcN3yp7PPit0IsNnbedWzoufVc93mvgbA5JUkSop17abSa5MWk4Ik2Y44HX2FHsGviSpkhyittnQ2uFMZe3Xvz6JYEar9nSvcSEzg1OHt7Eg4Ia2beY5vOcOpmfPnvSy8SU+o1S5GsrM3RtY1qsnPc0n4Hg0nvN+k+nR2xKX7xK00nx0lpWzBmnb2W7hSnYpJIcyc/VGPGf2pEefoUzz146REbMHxz496dmzN7N8DvHwxXH8+vhlj34REEnpVz4aLZqLuP9tLvvjUsnLDWHqP/+ZFl260aNHD7p170b3xT5EKo+0z7vOQe8ZdOvVWd2n7G8+chx7r6RSLKdsamTLgCRVxsOo9Qz7lz/Tsl072inls7b0cwzgTkESu7q7sLnqSqrwMRFrh2G29WaNSdfcUMDdEwdxGPoxX37dlnbtezPmuzjgDutdJvL5vCgovo6P3womL9vIjh07WOdmhcPuM9wKXsTvPxmH++p1rHEfR8dPOjFv0wHWzx+Flc1ULt25y/otXlgt36S283GbgsPes9w67Mpv/9SDGd6b2bDShRkzRxJ8/hoBqyYxzmkH27e7MXb8fPzCnyu5ZtiyRT8JiKT0My8NHlUud0/fJC2viLKyx1wO2stWP198fX3x3RNKbEaVAEpSiT66Q7vP15dtF9LlkkIVPFXfGpCkSrgf7oftBxPxPniQg0oJiuTWA+UGh/ts6uxcXVJFGYStHcE3q+v+yPuy1EhCDx3k4JY1jBvXGbvtR9jpOZNOXtcpSNyA2de/47+btadr1650+Oy/+NXoNUQGLKWl1W6U2zfKE4Ow//NUQpXbdDJC2fjdHDw3rGBYh//mf77Qtmv/6W95b5wPUfsX88UAd6KUXyVbeJ39C7/E78xtdrn04Y9fdmXy0vWc+v4hyWmvOIFdNYPyXv8IiKT0LycSkcESMCBJVZzua+f74nTfc+y32djFFf+9N3nxhe0iboWtYODk7aRUW0KXUVJcRGmVbeWlRTyrts4u4eI+R8ZM9GKN1yy6rrhJRqwbk4Z/y/ztUURHRxMdfZYzNx6QHrGUT91DeFRWRGbcQZy/WIP6dd2kUHzWLcVh4TTsxnfCdWeVdjcfknbCnY/GbCThGZSln2Ob85dsuFREZvI1omOiObLemoFf9Gfh3tvIWerniTaMNyIpw8iTRGkQBAxLUke34NByNTW/HnmHDe1n4bX2JPfS00lPT+dRzhOKM66y2q41vdaGqduU7Rd3zcF90UJicl7kJ/PUUvpMWUJggvIk4nRSb0axYUFvlmw7zmYPW75adJHSwlPYm43GcnkUeU+ekBGxihFr9nM2YCGfugbxsLSIjIsHsP9oCeo3Y+4dYYWXA+sPH8Zl6DjGr4pR2z0KX8Ew7wCi97ry0Yi1XHwCZWnRbHf9mmUBJ/BfPoINZ5+QmXSKRe0msmBxFOqTVF6EK+/0nYBISt8zJPEZEAEDklQx9yIOsLSPH7dqAE4lYEx/mr//V/7+4Yd8+OFHtLLazv2ycgrTo/Cc8Gc+VLd/SOeRdhxPzORZlRsSSp9mEb9zJl+1+Lu23met6b42kieFSez1dqb/ihj1eVsF8XuY2PszdYy/d53BtkvpFFxaTwfP46SXFpN95ShLOq/TSjQlnE3fueB7rZSCK7sZ2/NTtd0H3Wez6+oj8i/40G6qP1eeQtnjOPYv682u+0+4sduBPu9/yEeffMK3o905lVhMlVBrzFw26CEBkZQeJkVCMlQCBiQpKC8tofhZySt+aJdTWviE3OwsMjMz1ZKV/+z5qb+ypy+25z55ze/jLi8kN1vbNjMrh3z1W8Hl6qnBZ8WVJxHLKXySox0jT7mYpFyIKuFpcal60bO8rJTipxVSKS9V22rPIpZRWJBd0a5ifKVdYcVcyssoKXqqjbeshAI1jixynxXJxVRD/JclkjLErEnMekrAoCSlpwwlLCFQnYAiKXniRHUm8kkIvCUBkdRbgpNmQqBWAmZm2idOREbWWk12CgEhUDsBkVTtfGSvEHg7AhYWWklFRLxde2klBISASkAkJQeCEGgIAiKphqAqfZogAZGUCSZdptwIBERSjQBZhjAFAiIpU8iyzLHxCYikGp+5jGiUBERSRplWmVSTExBJNXkKJADjICCSMo48yiz0jYBISt8yIvEYKAGRlIEmTsLWcwIiKT1PkIRnKAREUoaSKYnTsAiIpAwrXxKt3hIQSeltaiQwgyYgkjLo9Enw+kNAJKU/uZBIjInA0KHaL/OeOmVMs5K5CIFGJyCSanTkMqBJEBg+XCup8HCTmK5MUgg0FAGRVEORlX5Nm4CVlVZS+/aZNgeZvRB4RwIiqXcEKM2FwCsJ2NpqJbV9+yt3y0YhIATqRkAkVTdOUksI1I+ASKp+vKS2EHgNAZHUa8DIZiHwTgREUu+ETxoLgUoCIqlKEvIqBHRJQCSlS5rSlwkTEEmZcPJl6g1IQCTVgHCla1MiIJIypWzLXBuPgEiq8VjLSEZNQCRl1OmVyTUZAZFUk6GXgY2LgEjKuPIps9EXAiIpfcmExGHgBERSBp5ACV9PCYik9DQxEpahERBJGVrGJF7DICCSMow8SZR6T0AkpfcpkgANksCsWdonTvj5GWT4ErQQ0BcCIil9yYTEYVwEFi3SSmrZMuOal8xGCDQyAZFUIwOX4UyEgIeHVlLKq/wRAkLgrQmIpN4anTQUArUQcHfXSmrJkloqyS4hIATeREAk9SZCsl8IvA0BkdTbUJM2QqAGAZFUDSSyQQjogIBISgcQpQshACIpOQqEQEMQEEk1BFXp0wQJiKRMMOky5UYgIJJqBMgyhCkQEEmZQpZljo1PQCTV+MxlRKMkIJIyyrTKpJqcgEiqyVMgARgHAZGUceRRZqFvBERS+pYRicdACYikDDRxEraeE1i8WPs9qaVL9TxQCU8I6DcBkZR+50eiM1QCXl7wwx+CiwuUlhrqLCRuIdDkBERSTZ4CCcAoCWzcCP/0T6A8Db2w0CinKJMSAo1BQCTVGJRlDNMj4OsLP/0pTJ0Kz56Z3vxlxkJARwREUjoCKd0IgWoENm/WSsrGRiRVDYx8EAL1IyCSqh8vqS0E6kZgyxb48U+0p/vK69ZEagkBIVCTgEiqJhPZIgTqRCAl5T7JyfdeXVZ6kvzvvyR50niS7/y/9u40KMprz+P4pKampqYqeXNnambu1NxbNZObubmLSUziNRrEDdzCBVQiLigiu4CAGlD2VVnc2RRU3JdEJcaIuOKCIi6AioqoIIIsssmigizfqacRNRXUVoFumv+Lk+70c85zzvmcLn/1PH3ozuu8zsvavuT1wsJ8KirK1RqbVBIBXRGQkNKVlZR59JhAS0sLGRmnMDT8guHDP8XAoP+vy8j+GHSUzo6/4WsjR/Zn0KCP8Pae02PzlI5EQBsEJKS0YRVkDL1KoKammokThzFz5hjs7Iyxte2k2Jtg6zAeW3vTzo931uYlryl9KMXYeCALFzr1KisZrAi8q4CE1LsKSvs+J1BdXcW0aWMICbHH398KP7+Z3VysiI31JCJitoRUn3u3yYQlpOQ9IAJvKPDgQQ0mJkMwMvqaiAj/bi9+fvOYOtWQ0FA7vLyc33C0Ul0EereAhFTvXj8ZvQYElJAaO/ZvODhM6ZHe6+vrmDXr7wQF2UhI9Yi4dKJNAhJS2rQaMpZeIaCE1LhxA7Gzm9Qj4y0tvSch1SPS0ok2CkhIaeOqyJi0WkBCSquXRwanYwISUjq2oDKd7heQkOp+Y+lBBDoEJKQ6JORRBNQUkJBSE0qqiUAXCEhIdQGinKJvCUhI9a31ltlqVkBCSrP+0nsvFJCQ6oWLJkPutQISUr126WTgmhKQkNKUvPTbFwUkpPriqsuc30lAQuqd+KSxCLyRgITUG3FJZREACSl5F4hAzwlISPWctfSkIwISUjqykDKNXiEgIdUrlkkGqU0CElLatBoyFl0XkJDS9RWW+XW5gIRUl5PKCUXgpQISUi+lkQMi0LmAhFTnLvKqCHSHgIRUd6jKOXVaQAkp5VvQHR175lvQGxoa5AtmdfodJZN7lYCE1Kt05JgIdCKghJSx8dcYGw9hzZoV3VYSE2PZuDGOqKhwLC3HERIivyfVyXLISzouICGl4wss0+t6gY5f5vXzs8LTcyoeHlO6tCjnVIqBwScMHPghAwf+gRkzxhAZ6SS/J9X1yyln1HIBCSktXyAZnvYJPHr0CDOz4cyePR43t8m4upp3aXFzM0cppqZ6jBr1BSNGfIaJydeYmQ2RkNK+t4OMqJsFJKS6GVhOr1sCzc3NLF8eRHR0ICNH9kdfvx/Dhn3SDeVTDAz6Y2o6hNjYYMzMhmJq+iUeHg66BSqzEYHXCEhIvQZIDotAh0BLSyuRkb5ERfnj4TGToKCZhIRYdXkJDZ1FQMB0zM1HEB8fjqfnLKysRuLqOo3CwoKO4cijCPQJAQmpPrHMMsl3FWhufkJkpB+rVvnh4jIVH58pREc7Ex3tQlSUc5eVmBgXoqOdcHIyZd26SObPt8LCQh9n5ymUlpa86zSkvQj0OgEJqV63ZDLgnhZQPoOKiGi/gpozZypjxw7A3HyYqkyaNIyuKUOZPHk4pqaDmTRp+NOAmomFxVCcnSdTVlba09OW/kRAKwQkpLRiGWQQ2ipQV1fLkiX+rFzpx9y50wkIsGD5cgciI+26tCxb5sDixVZYWY0lJiaU775TrqCG4uQ0Wa6gtPXNIePqEQEJqR5hlk56o0BNTTXh4T4sW+aFp6cVQUEziI93Z80apbh1WUlImMuKFQ64uExg9erFLFhgzdSpeqorqJKSe72RTsYsAl0mICHVZZRyIl0SqKqqVAVUYmIk8+ZZMmvWSAICpqk+i/L2noK392R8faeqNk8oGyiUEhw8E39/C9Wx9jpKvdcXX19lG7sZMTEheHnZYm4+WPUZVHHxXV0ilbmIwFsJSEi9FZs00mWBysoK1WdQsbGB3LhxhvBwD2xsxjN7tjmOju3FyWkK1tamGBp+xujRnzNu3ABGjOjH5MkGqo0VHfVe/zhJdc7o6GC8ve0xMxuIq6sFd+8W6jKxzE0E1BaQkFKbSir2BQHlCioy0p/o6ACuXj1JRkYyFy8eIjv7KFlZR56VnJwTpKf/TFiYOz4+Nri6fkt4+Hz27Fmjavdi3Zc9z8w8TG7uadLTk/HwsGL8+AG4uVlw505+X6CWOYqAWgISUmoxSaW+IFBdXf00oPyfBZQSUko5d+6A6lF5fv58CseP72bLluXcuZNFdnYqp04lceZMMklJa1Sh1tHuVY+XL6dy/Pge1e3E8eO/wN19Brdv3+wL1DJHEVBbQEJKbSqpqMsCDQ31xMZGsn59OAUFF7hy5TjK1VJn5dq1U6qgiovzJz4+iE2blrBjRwwrVy5k3771qluEnbV78TXlNmJ7QM3AxORz1c7Bmzdv6DKxzE0E3kpAQuqt2KSRLgk0NTXh4+PO6NFfEh7uiZ+f82tLcLA73t4Oqi+BVb4IdujQj7G2NiEsTP32CxdaY2rafgWVl5erS6QyFxHoMgEJqS6jlBP1RgHlG80XL17AggXTCAqyx8trBl5elmqUGfj4KDv6HFQlJMQRf38btdr7+c3C0dEUPb2PmDvXkry8672RTsYsAj0iICHVI8zSibYKKD8ouGPHOmxsxmFr+w12dkbdXhwcjJk4cTCWlibcvp2nrTQyLhHQCgEJKa1YBhmEpgXS0o6TlpbK6dPHu70ofZ08eZTCQtnFp+l1l/61X0BCSvvXSEYoAiIgAn1WQEKqzy69TFwEREAEtF9AQkr710hGKAIiIAJ9VkBCqs8uvUxcBERABLRfQEJK+9dIRigCIiACfVZAQqrPLn1vnXgjFXn3uF/5kNanU2h9Usu9KyU0tLXRXF/C1YvZ5FY3P5/gkxpu5Vwlr6SOFhopv1pMdcMT2p7XeO2zqsvnOX7oEIeUcvQ4uVXPmzRW3eFSZg75dS+c8XEFuZevUVDx6Nk4n7f49bOmmgLulZXwsK2VqhtZZNws53FLR71W6stukXXlDrUvTKvjqDyKgC4LSEjp8urq5NzyWT/ajzWJ2Tx8Or+HpUcI/DiU9JbHlKevYPh7f8Ik/jJPnh5vOheG3r/+lrHBp6kjn+jPffghvRh1/72vu72TCGND9PX00dfXZ8iw4Tit2MjdR0oHrdzauYBP/3EAdkkFdOTKg4Nz+cv7H2K5NgdVtdesRVHSLAKXBZPVUseWkf35t4EBnKl+eramIrZb/5EP/teelOrXnOgXh1toqCriWu79Zxa/OCz/IwK9QEBCqhcskgzxRYECNnwTSMLGS89DquwYwX9dTEZLPfcydmP13jDsQ/y40qi0e8jJ1Q58/i//hd3qdGooIHagP7sy7qkZUhVscTUiaHMa9c+GUUtazFgW7LxLC0+4sTuRye8Nwm11FLdVyVfLT0Hf0u/9P+Cx6+oL7Z6d4FdPHh1zITwqmMyWGraOdsX4z0NYd6NIdbX3pPQwTv1/xxd6s0mp+VXTV7zwkLwTidi5HZSQeoWSHNJuAQkp7V4fGd2vBPLZ8E0Y25Ne+EHA5kyWfRZORksthWdSCPidCfYxFgRfaoWHJ1i6MoipI2ewetcxyigg7qsAdqsZUs13tuHutZaD1xpeGEkLpVm7cDFO5B6PuPZ9EgEfjmD6WjfilC+QqP0Jr9BgrA2nsfZwFg+UlncOsSo8lNDwaLbmPG4/V2Mx53dHEBoaykLLgVgHreB6aw3bxoQRNP2vGO85S/XjZsrOhGE0xYdFTvM5WVHPjRPbVW2UdmFxyWSVKbcZW7i1ZxPLF4cSGrGSc+WttDXeJcnPhAGD7Flz5j7wgOyfY1RtF8XtJ6cSaMpn3+mf2bBkKauSr1Cv7uXlCxryVAS6U0BCqjt15dzdIFDMdrPpTBxrieu8ecybNw9XR3MMPwwko+0hd078yMrh3oRuiGF2cBaFZ9ewJG4xQfMDWLfpIKVvGFINxwJwidpIevmLU2mj4vpBIj5dzlUecWXLFuIm+uIRFYt3TC4FhxcTvC6Gxc4L2Lj/PDX3r7HI054JltZYT5/KhAVeXLhVyuWfl2FkZIi1tTXGf/s9xq7R5FHF1jEh7FgfiZH1FtJzcjm2Yhbz1/9AnJMnp8pqyNwXg+s85fsGF+AwbTzB3x/l9tUUFtnY4jBnAa4W+kz2P05pVR7b3YfwcT9zlu7LIjMzCRef9nbfzXYi8McL3Lu0gQFfjWbEmOnM25ROTcc90henK89FQIMCElIaxJeu30agPaQmjJmOi7s77u7uuNhPwqAjpFJ3sfjv8SQf3Mv2wEWs3ryNbQlJ7I0KJiYxpfOQeljCsXhbbG1t+S58DZdVlz7tY+s8pKDyVDzG/ZaqQipnUyIRVtvYv3MrO1atIHrVenbtOsjuRV4k7M3g7NYZ6HnuQrmWgUpSor5l0tIdJC6Zi9UP7ffvKvfaEhgWSnZrFZtHBbEt5Sw/OC1k25n9rHRexuH0Q8Q6unJAuefYVkbGVh+8vLxwHv8npgXEkn04AaPJE5jp5kPq9XxOnLxB3ZN68s9uY27AeXh8Fm/LL/jvMXaqdh5TvuR/zH3Y92M8RmP82Hyr49O0t1kTaSMC3ScgIdV9tnLmbhF41e2+OgpSvydoxBZu1l7icOwERrgnsOdiOVlR3qxY/5KQelzB+T3BBAcHs2LDbm4+//CJjtt9h2+036JrurEX16UhzBn8Jb8dt5ZSGsnZuJbgb3+i6MFJdq9U+txG6o0yTi+aR9yPGXy/6BMcE49Rq9qOWMmZlHj+PNuPbUu+ZevTr+8rT5lNWFwoWU+q2GwYyPYDd7h3yhfXwDnYLL1I8fVU4l08OHo3n30bPZng7EZISAgeFl8yK2QVt2vqOPpDPBGL5uLpaIOH725uNtaSmxqPs1cad/N24jv1P5ngHkFoSAghS6JJOJBF6fkEhttFsvPaC8ncLesmJxWBtxOQkHo7N2mlMYGXbJzop2ycUEJqJ/56CZRQy0l/a4xGh3GuGbIjPVi+rj2k3nTjxFZXY2av3I9q13ndNSLcBvHBP/0Gp11ltNHEpQ0JBBrv4AGV7LUzZ/z0deS2wGnfOaqQuvzTXL6as5nbillbIUmR32C1YivrQ2diu7NEJZm5yAQnhzBy2qrYZBDA9oP5NDbsx+n/jAg6XUl1fhrxLt4cupBKZLANCy+0L0DN3lkELV1GUtJKtqZlqV6sOb0I0/fncKSijGsn1uLolQZN51hqa8b0qOL2hk0XWPVjMmcOxGBgHc62q2+0I6P9HPJfEegBAQmpHkCWLrpSIJ/1o5Qt6FnPd/eVHiHgjyGkt9SRf3Q7PgOiUH5CsLaggNuZd2mkhbRgd5YkJFNCPlH9ffj+Tbag39qBr4EeXw/SZ+gIQ4Z89AH/8M+/YezGO8rOA7LXrcZvzAaUrRzV1/IouFrGEx6T8p09q/ZkUNtQzo4wGwYP0UdfbzijAtdQVNVA0ZlEphj+BX39KQz/6N8xX7ic61SyYagPm/bf5DEPKTyRQ8WjVqpvHmOVtRtHHtSQtdkD48/at8N/+vsPGOWWQGbeYRZ98zWDBw3DcMwwLD0OU93USHlmLEb/MQAb30NcupiE7divGKSvj/4wM+w2Z3AnOwE9ixC25LzR3vauXFA5lwi8UkBC6pU8clD7BBq5f72I8vu//GPe4kv3qG9robG2kqKc0mcB1j7+NmqLCykpr+EJjZRdKaKqvunN/pj3UgZHDySTnJzMwaMnOZy0Dm9HH05VtvHwfjlFufd5umfvKVkLNYX5lFY1tP8xb811UlOSST54nPOlT/8MubWWu1kHSU4+QdrZs9y8X8Zjmqm4VkRFzeNfjK/l0QNKbxdQq+zjqy4i61DHWE6QnX9f9fdZNZfPtY8x5Qg51U2qcbQ9LuNq6jFOXVQ+EWumLPcUB5KTST6Rw31lwK2VXLlZTMUj2danfe91GZEiICEl7wMReEuBhuJCqmU33FvqSTMRUE9AQko9J6klAiIgAiKgAQEJKQ2gS5ciIAIiIALqCUhIqecktURABERABDQgICGlAXTpUgREQAREQD0BCSn1nKSWCIiACIiABgQkpDSALl2KgAiIgAioJyAhpZ6T1BIBERABEdCAgISUBtClSxEQAREQAfUEJKTUc5JaIiACIiACGhCQkNIAunQpAiIgAiKgnoCElHpOUksEREAEREADAhJSGkCXLkVABERABNQTkJBSz0lqiYAIiIAIaEBAQkoD6NKlCIiACIiAegISUuo5SS0REAEREAENCPw/162lFTY6gOMAAAAASUVORK5CYII=;" parent="BRSpTZAeTSUbDM5Jt1Pd-10" vertex="1">
          <mxGeometry width="151" height="119.0235294117647" as="geometry" />
        </mxCell>
        <mxCell id="BRSpTZAeTSUbDM5Jt1Pd-9" value="" style="group" parent="BRSpTZAeTSUbDM5Jt1Pd-10" vertex="1" connectable="0">
          <mxGeometry x="91.48941523674033" y="86.56679751803942" width="21.31764705882353" height="20.298507462686565" as="geometry" />
        </mxCell>
        <mxCell id="BRSpTZAeTSUbDM5Jt1Pd-7" value="" style="endArrow=classic;html=1;rounded=0;" parent="BRSpTZAeTSUbDM5Jt1Pd-9" edge="1">
          <mxGeometry width="50" height="50" relative="1" as="geometry">
            <mxPoint x="16.343529411764706" y="20.298507462686565" as="sourcePoint" />
            <mxPoint x="3.552941176470588" y="-9.552238805970148" as="targetPoint" />
            <Array as="points">
              <mxPoint x="3.552941176470588" y="20.298507462686565" />
              <mxPoint x="3.552941176470588" y="5.970149253731343" />
            </Array>
          </mxGeometry>
        </mxCell>
        <mxCell id="BRSpTZAeTSUbDM5Jt1Pd-8" value="Logs" style="text;html=1;strokeColor=none;fillColor=none;align=center;verticalAlign=middle;whiteSpace=wrap;rounded=0;" parent="BRSpTZAeTSUbDM5Jt1Pd-9" vertex="1">
          <mxGeometry width="21.31764705882353" height="17.91044776119403" as="geometry" />
        </mxCell>
        <mxCell id="OZDqTBQDMHWh8ZJ64I9l-4" value="" style="endArrow=classic;startArrow=classic;html=1;rounded=0;fillColor=#f8cecc;strokeColor=#b85450;" parent="1" edge="1">
          <mxGeometry width="50" height="50" relative="1" as="geometry">
            <mxPoint x="450" y="812" as="sourcePoint" />
            <mxPoint x="507" y="762" as="targetPoint" />
          </mxGeometry>
        </mxCell>
        <mxCell id="OZDqTBQDMHWh8ZJ64I9l-6" value="" style="endArrow=classic;startArrow=classic;html=1;rounded=0;fillColor=#f8cecc;strokeColor=#b85450;" parent="1" edge="1">
          <mxGeometry width="50" height="50" relative="1" as="geometry">
            <mxPoint x="450" y="908" as="sourcePoint" />
            <mxPoint x="518.5" y="946" as="targetPoint" />
          </mxGeometry>
        </mxCell>
        <mxCell id="0DDknlvD0FUHzTkSRWRA-10" value="" style="group" vertex="1" connectable="0" parent="1">
          <mxGeometry x="12" y="1934" width="778.1" height="174" as="geometry" />
        </mxCell>
        <mxCell id="0DDknlvD0FUHzTkSRWRA-2" value="" style="group" vertex="1" connectable="0" parent="0DDknlvD0FUHzTkSRWRA-10">
          <mxGeometry width="655" height="174" as="geometry" />
        </mxCell>
        <mxCell id="0DDknlvD0FUHzTkSRWRA-8" value="" style="rounded=1;whiteSpace=wrap;html=1;dashed=1;" vertex="1" parent="0DDknlvD0FUHzTkSRWRA-2">
          <mxGeometry x="286" y="-37" width="369" height="198" as="geometry" />
        </mxCell>
        <mxCell id="b3pnO662u0tpKJPlmEd1-2" value="Regla de Snort" style="rounded=0;whiteSpace=wrap;html=1;fillColor=#f8cecc;strokeColor=#b85450;" parent="0DDknlvD0FUHzTkSRWRA-2" vertex="1">
          <mxGeometry x="327.74015748031496" y="80.32075471698114" width="100.25984251968505" height="48.679245283018865" as="geometry" />
        </mxCell>
        <mxCell id="b3pnO662u0tpKJPlmEd1-4" value="Prerocessor de Snort" style="rounded=0;whiteSpace=wrap;html=1;fillColor=#d5e8d4;strokeColor=#82b366;" parent="0DDknlvD0FUHzTkSRWRA-2" vertex="1">
          <mxGeometry x="321.8425196850394" width="112.05511811023624" height="48.679245283018865" as="geometry" />
        </mxCell>
        <mxCell id="b3pnO662u0tpKJPlmEd1-5" value="Generación de registros" style="rounded=0;whiteSpace=wrap;html=1;" parent="0DDknlvD0FUHzTkSRWRA-2" vertex="1">
          <mxGeometry x="540.8976377952756" y="41.37735849056604" width="101.10236220472441" height="48.679245283018865" as="geometry" />
        </mxCell>
        <mxCell id="b3pnO662u0tpKJPlmEd1-11" style="edgeStyle=orthogonalEdgeStyle;rounded=0;orthogonalLoop=1;jettySize=auto;html=1;exitX=1;exitY=0.5;exitDx=0;exitDy=0;exitPerimeter=0;entryX=0;entryY=0.5;entryDx=0;entryDy=0;" parent="0DDknlvD0FUHzTkSRWRA-2" source="b3pnO662u0tpKJPlmEd1-8" target="b3pnO662u0tpKJPlmEd1-5" edge="1">
          <mxGeometry relative="1" as="geometry" />
        </mxCell>
        <mxCell id="b3pnO662u0tpKJPlmEd1-8" value="" style="verticalLabelPosition=bottom;shadow=0;dashed=0;align=center;html=1;verticalAlign=top;shape=mxgraph.electrical.abstract.summation_point;" parent="0DDknlvD0FUHzTkSRWRA-2" vertex="1">
          <mxGeometry x="463.38582677165357" y="45.43396226415094" width="42.12598425196851" height="40.56603773584905" as="geometry" />
        </mxCell>
        <mxCell id="b3pnO662u0tpKJPlmEd1-10" style="edgeStyle=orthogonalEdgeStyle;rounded=0;orthogonalLoop=1;jettySize=auto;html=1;entryX=0.5;entryY=1;entryDx=0;entryDy=0;entryPerimeter=0;" parent="0DDknlvD0FUHzTkSRWRA-2" source="b3pnO662u0tpKJPlmEd1-2" target="b3pnO662u0tpKJPlmEd1-8" edge="1">
          <mxGeometry relative="1" as="geometry">
            <Array as="points">
              <mxPoint x="484" y="106" />
            </Array>
          </mxGeometry>
        </mxCell>
        <mxCell id="b3pnO662u0tpKJPlmEd1-9" style="edgeStyle=orthogonalEdgeStyle;rounded=0;orthogonalLoop=1;jettySize=auto;html=1;exitX=1;exitY=0.5;exitDx=0;exitDy=0;entryX=0.5;entryY=0;entryDx=0;entryDy=0;entryPerimeter=0;" parent="0DDknlvD0FUHzTkSRWRA-2" source="b3pnO662u0tpKJPlmEd1-4" target="b3pnO662u0tpKJPlmEd1-8" edge="1">
          <mxGeometry relative="1" as="geometry" />
        </mxCell>
        <mxCell id="b3pnO662u0tpKJPlmEd1-14" style="edgeStyle=orthogonalEdgeStyle;rounded=0;orthogonalLoop=1;jettySize=auto;html=1;entryX=0;entryY=0.5;entryDx=0;entryDy=0;exitX=0;exitY=0.5;exitDx=0;exitDy=0;startArrow=classic;startFill=1;" parent="0DDknlvD0FUHzTkSRWRA-2" source="b3pnO662u0tpKJPlmEd1-2" target="b3pnO662u0tpKJPlmEd1-4" edge="1">
          <mxGeometry relative="1" as="geometry">
            <mxPoint x="267.38455464520797" y="25.7522930183367" as="targetPoint" />
          </mxGeometry>
        </mxCell>
        <mxCell id="b3pnO662u0tpKJPlmEd1-15" style="edgeStyle=orthogonalEdgeStyle;rounded=0;orthogonalLoop=1;jettySize=auto;html=1;startArrow=none;startFill=0;" parent="0DDknlvD0FUHzTkSRWRA-2" source="b3pnO662u0tpKJPlmEd1-12" edge="1">
          <mxGeometry relative="1" as="geometry">
            <mxPoint x="305.23030368085807" y="65.71698113207547" as="targetPoint" />
          </mxGeometry>
        </mxCell>
        <mxCell id="b3pnO662u0tpKJPlmEd1-12" value="Máquina atacante inicia MitM" style="rounded=0;whiteSpace=wrap;html=1;fillColor=#fff2cc;strokeColor=#d6b656;" parent="0DDknlvD0FUHzTkSRWRA-2" vertex="1">
          <mxGeometry x="149.9685039370079" y="41.37735849056604" width="123.00787401574804" height="48.679245283018865" as="geometry" />
        </mxCell>
        <mxCell id="b3pnO662u0tpKJPlmEd1-17" style="edgeStyle=orthogonalEdgeStyle;rounded=0;orthogonalLoop=1;jettySize=auto;html=1;exitX=1;exitY=0.5;exitDx=0;exitDy=0;entryX=0;entryY=0.5;entryDx=0;entryDy=0;startArrow=none;startFill=0;" parent="0DDknlvD0FUHzTkSRWRA-2" source="b3pnO662u0tpKJPlmEd1-16" target="b3pnO662u0tpKJPlmEd1-12" edge="1">
          <mxGeometry relative="1" as="geometry" />
        </mxCell>
        <mxCell id="b3pnO662u0tpKJPlmEd1-16" value="Escaneo de red por parte de la máquina atacante" style="rounded=0;whiteSpace=wrap;html=1;" parent="0DDknlvD0FUHzTkSRWRA-2" vertex="1">
          <mxGeometry y="41.37735849056604" width="101.10236220472441" height="48.679245283018865" as="geometry" />
        </mxCell>
        <mxCell id="0DDknlvD0FUHzTkSRWRA-11" value="NIDS" style="text;html=1;strokeColor=none;fillColor=none;align=center;verticalAlign=middle;whiteSpace=wrap;rounded=0;dashed=1;" vertex="1" parent="0DDknlvD0FUHzTkSRWRA-2">
          <mxGeometry x="528" y="-30" width="60" height="30" as="geometry" />
        </mxCell>
        <mxCell id="0DDknlvD0FUHzTkSRWRA-4" value="Cálculo de HASH" style="rounded=0;whiteSpace=wrap;html=1;" vertex="1" parent="0DDknlvD0FUHzTkSRWRA-10">
          <mxGeometry x="676.9976377952756" y="40.15735849056591" width="101.10236220472441" height="48.679245283018865" as="geometry" />
        </mxCell>
        <mxCell id="0DDknlvD0FUHzTkSRWRA-6" style="edgeStyle=orthogonalEdgeStyle;rounded=0;orthogonalLoop=1;jettySize=auto;html=1;exitX=1;exitY=0.5;exitDx=0;exitDy=0;" edge="1" parent="0DDknlvD0FUHzTkSRWRA-10" source="b3pnO662u0tpKJPlmEd1-5">
          <mxGeometry relative="1" as="geometry">
            <mxPoint x="676.6359421302532" y="65.55172413793116" as="targetPoint" />
          </mxGeometry>
        </mxCell>
      </root>
    </mxGraphModel>
  </diagram>
  <diagram id="1LQomCJbjQ9PH-gjWKzd" name="Page-2">
    <mxGraphModel dx="744" dy="431" grid="1" gridSize="10" guides="1" tooltips="1" connect="1" arrows="1" fold="1" page="1" pageScale="1" pageWidth="827" pageHeight="1169" math="0" shadow="0">
      <root>
        <mxCell id="1F31Fn_EdGAVDMiZKdkD-0" />
        <mxCell id="1F31Fn_EdGAVDMiZKdkD-1" parent="1F31Fn_EdGAVDMiZKdkD-0" />
      </root>
    </mxGraphModel>
  </diagram>
</mxfile>
